<?xml version="1.0" standalone="no"?>
<!DOCTYPE svg PUBLIC "-//W3C//DTD SVG 1.1//EN" "http://www.w3.org/Graphics/SVG/1.1/DTD/svg11.dtd" >
<svg>
<metadata>
Created by FontForge 20090622 at Thu Feb 22 05:52:37 2018
 By deploy user
Copyright (c) 2010, Sebastian Kosch (sebastian@aldusleaf.org),
with Reserved Font Name "Crimson Text".
This Font Software is licensed under the SIL Open Font License, Version 1.1.
This license is available with a FAQ at: http://scripts.sil.org/OFL
</metadata>
<defs>
<font id="CrimsonText-Regular" horiz-adv-x="684" >
  <font-face 
    font-family="Crimson Text"
    font-weight="400"
    font-stretch="normal"
    units-per-em="1024"
    panose-1="2 0 5 3 0 0 0 0 0 0"
    ascent="717"
    descent="-307"
    x-height="432"
    cap-height="656"
    bbox="-280 -297 1226 1026"
    underline-thickness="47"
    underline-position="-112"
    unicode-range="U+0020-U+FEFF"
  />
<missing-glyph horiz-adv-x="374" 
d="M34 0v682h272v-682h-272zM68 34h204v614h-204v-614z" />
    <glyph glyph-name=".notdef" horiz-adv-x="374" 
d="M34 0v682h272v-682h-272zM68 34h204v614h-204v-614z" />
    <glyph glyph-name=".null" horiz-adv-x="0" 
 />
    <glyph glyph-name="nonmarkingreturn" horiz-adv-x="341" 
 />
    <glyph glyph-name="space" unicode=" " horiz-adv-x="229" 
 />
    <glyph glyph-name="exclam" unicode="!" horiz-adv-x="280" 
d="M142 642q22 0 33.5 -18.5t11.5 -44.5q0 -10 -4.5 -53t-12 -137.5t-14.5 -207.5q-1 -15 -5 -20.5t-19 -12.5q-5 -2 -8.5 5t-4.5 17q-8 130 -15.5 225.5t-10.5 129t-3 54.5q0 25 14.5 44t37.5 19zM82 45q0 24 17 40.5t41 16.5t40.5 -16.5t16.5 -40.5t-16.5 -41.5
t-40.5 -17.5t-41 17.5t-17 41.5z" />
    <glyph glyph-name="quotedbl" unicode="&#x22;" horiz-adv-x="348" 
d="M97 698h14q15 0 22.5 -12.5t7.5 -52.5q0 -30 -14 -92t-17 -92q-2 -15 -16 -15q-16 0 -18 13q-5 47 -19.5 108t-14.5 80q0 15 18.5 39t36.5 24zM260 698h15q14 0 21.5 -12.5t7.5 -52.5q0 -30 -15 -91.5t-18 -92.5q-1 -15 -16 -15q-13 0 -15 13q-5 47 -19.5 108t-14.5 80
q0 16 18 39.5t36 23.5z" />
    <glyph glyph-name="numbersign" unicode="#" horiz-adv-x="476" 
d="M301 24l-3 -4q-6 -5 -27 -5h-13q-6 0 -9.5 2.5t-3.5 4.5v2l22 151h-94l-22 -151q0 -1 -1 -2t-1.5 -2t-2 -1.5t-4 -1t-5.5 -1t-7.5 -1t-9.5 -0.5h-13q-6 0 -9.5 2.5t-3.5 4.5l-1 2l23 151h-86q-6 0 -6 10q0 14 8 41q1 3 2.5 4t3.5 1h1h86l12 86h-107q-6 1 -6 11q0 14 8 41
q1 3 2.5 4t3.5 1h1h107l24 156q9 9 47 9q6 0 8.5 -2.5t2.5 -4.5l-1 -2l-23 -156h94l24 156q9 9 47 9q6 0 8.5 -2.5t2.5 -4.5l-1 -2l-24 -156h82q1 0 2 0.5t3 -1.5t2 -6q0 -14 -9 -43l-6 -7h-83l-13 -86h104q1 0 2 0.5t3 -1.5t2 -6q0 -14 -9 -43q-1 -3 -2.5 -4.5t-2.5 -1.5
h-1h-104zM277 231l12 86h-94l-13 -86h95z" />
    <glyph glyph-name="dollar" unicode="$" horiz-adv-x="491" 
d="M284 683q35 0 35 -7l-120 -728q-35 0 -35 9zM245 644q23 0 52 -4.5t58 -11t35 -7.5q11 -90 11 -137q0 -8 -7 -8q-25 2 -26 11q-5 35 -39.5 75t-88.5 40q-109 0 -109 -97q0 -46 29.5 -75t91.5 -64q5 -3 32.5 -18.5l35 -20l31 -19.5t31.5 -23l24 -23.5t22 -28t11.5 -29
t5.5 -34.5q0 -77 -61 -127.5t-143 -50.5q-40 0 -168 23q-24 64 -28 151q0 8 18 8q14 0 22 -8q36 -135 158 -135q49 0 84 29t35 81q0 21 -7.5 39t-13.5 28t-25.5 24t-24.5 17t-29 15q-6 3 -9 5q-102 53 -150 96t-48 108q0 73 57 122t133 49z" />
    <glyph glyph-name="percent" unicode="%" horiz-adv-x="680" 
d="M195 621q-41 0 -61.5 -37.5t-20.5 -87.5q0 -54 28 -100t64 -46q40 0 57.5 37t17.5 89q0 55 -23.5 100t-61.5 45zM199 645q64 0 105.5 -47t41.5 -114q0 -63 -41 -111t-106 -48q-62 0 -106 46.5t-44 112.5q0 68 42 114.5t108 46.5zM484 289q-41 0 -62 -37.5t-21 -87.5
q0 -53 28 -99.5t65 -46.5q40 0 57 37t17 89q0 55 -23.5 100t-60.5 45zM488 313q64 0 105 -47t41 -114q0 -64 -40.5 -111.5t-106.5 -47.5q-62 0 -106 46.5t-44 112.5q0 68 42.5 114.5t108.5 46.5zM607 624l-483 -624q-10 -12 -33 -12q-13 0 -18 11l482 625q10 12 20 12
q11 0 16.5 -1t7 -1.5t4 -4t4.5 -5.5z" />
    <glyph glyph-name="ampersand" unicode="&#x26;" horiz-adv-x="671" 
d="M407 95q-29 29 -70 84t-67 95l-27 40q-36 -25 -53 -38.5t-33.5 -41.5t-16.5 -62q0 -66 41 -99t101 -33q31 0 66.5 15t58.5 40zM314 620q-33 0 -56 -21.5t-23 -55.5q0 -64 52 -158q52 30 75.5 60.5t23.5 84.5q0 36 -20 63t-52 27zM309 656q67 0 106 -29.5t39 -82.5
q0 -61 -39 -104t-110 -87q58 -98 148 -199q25 38 41 73t16 44t-9.5 12.5t-21.5 4t-14 1.5q-2 4 -2 12t3 11h79q15 0 31.5 1t39 2t39.5 2q5 -3 5 -13q0 -15 -6 -15q-13 0 -37 -6t-32 -11q-1 -1 -14 -22.5t-38 -58.5t-52 -68l32 -33t24 -22.5t24 -18t18 -4.5q14 0 30.5 17
t21.5 29q8 0 15.5 -6t7.5 -12q-4 -8 -9 -16t-17.5 -23t-34 -24.5t-48.5 -9.5q-26 0 -55 18t-44 36l-16 18q-86 -75 -182 -75q-89 0 -141.5 43t-52.5 118q0 65 44 108.5t122 83.5q-19 32 -28.5 51.5t-19.5 52.5t-10 65q0 57 42 97t105 40z" />
    <glyph glyph-name="quotesingle" unicode="'" horiz-adv-x="186" 
d="M96 698h15q15 0 22.5 -12.5t7.5 -52.5q0 -30 -15.5 -91.5t-18.5 -92.5q-1 -15 -16 -15q-13 0 -15 13q-5 47 -19.5 108t-14.5 80q0 16 18 39.5t36 23.5z" />
    <glyph glyph-name="parenleft" unicode="(" horiz-adv-x="323" 
d="M136 305q0 -141 50.5 -261t88.5 -139q2 -1 2 -5q0 -6 -4.5 -13.5t-9.5 -7.5q-21 0 -53 34t-63.5 88.5t-53.5 137t-22 166.5q0 89 20.5 174t50 142t62.5 92t59 35q5 0 9 -9t4 -15q0 -3 -1 -3q-50 -24 -94.5 -147.5t-44.5 -268.5z" />
    <glyph glyph-name="parenright" unicode=")" horiz-adv-x="322" 
d="M186 305q0 145 -44.5 268.5t-94.5 147.5q-1 0 -1 3q0 6 4 15t9 9q26 0 59 -35t62.5 -92t50 -142t20.5 -174q0 -84 -22 -166.5t-53.5 -137t-63.5 -88.5t-53 -34q-5 0 -9.5 7.5t-4.5 13.5q0 4 2 5q38 19 88.5 139t50.5 261z" />
    <glyph glyph-name="asterisk" unicode="*" horiz-adv-x="444" 
d="M307 613q13 15 28.5 19t27.5 -7q12 -12 10 -27.5t-16 -28.5q-18 -16 -50.5 -33.5t-46.5 -30.5l-5 -14q1 -7 10 -10q16 -8 50 -14t57 -16q18 -8 27 -21.5t2 -27.5q-7 -15 -23 -18t-32 6q-22 12 -48.5 37.5t-42.5 34.5l-14 3q-4 -2 -6 -13q-2 -18 2.5 -52t1.5 -59
q-2 -20 -12.5 -32t-25.5 -10q-16 2 -24 15.5t-4 32.5q5 25 21.5 58.5t19.5 51.5q1 9 -3 13q-4 5 -13 3q-17 -4 -48 -19t-57 -20q-19 -4 -34.5 2t-17.5 21q-3 16 8 28t30 14q25 3 61.5 -2t54.5 -3q9 3 11 8q3 6 -2 14q-9 15 -32.5 40.5t-36.5 47.5q-22 40 6 56q32 16 51 -23
q10 -23 16.5 -59t14.5 -53q5 -10 10 -11q6 -1 13 6q12 13 28 43.5t33 49.5z" />
    <glyph glyph-name="plus" unicode="+" horiz-adv-x="582" 
d="M319 215v-192q0 -10 -45 -16q-2 0 -3.5 -0.5t-2.5 -0.5q-5 0 -5 8v199q0 5 -6 5h-199q-6 0 -6 10q0 14 8 41q1 3 2.5 4t3.5 1h1h191q5 0 5 6v190q-1 5 5 7q27 8 41 8l10 -6v-200q0 -5 4 -5h200q8 0 8 -5q0 -8 -10 -45q-1 -3 -2.5 -4.5t-2.5 -1.5h-2h-191q-4 0 -4 -3z" />
    <glyph glyph-name="comma" unicode="," horiz-adv-x="239" 
d="M118 -14q0 18 -15 49t-15 41q0 22 22 37.5t50 15.5q13 0 24 -4q13 -19 13 -64q0 -19 -2 -26q-14 -65 -39 -105.5t-88 -92.5h-1q-4 0 -13.5 8t-9.5 14q0 2 11.5 12.5l25.5 24.5t25.5 39t11.5 51z" />
    <glyph glyph-name="hyphen" unicode="-" horiz-adv-x="375" 
d="M58 210q0 51 12 51h1l241 12h1q6 0 6 -9q0 -22 -3.5 -35.5t-6.5 -16.5l-3 -2l-241 -11h-2t-3 3t-2 8z" />
    <glyph glyph-name="period" unicode="." horiz-adv-x="233" 
d="M59 45q0 24 17.5 40.5t41.5 16.5t40.5 -16.5t16.5 -40.5t-16.5 -41.5t-40.5 -17.5t-41.5 17.5t-17.5 41.5z" />
    <glyph glyph-name="slash" unicode="/" horiz-adv-x="424" 
d="M391 755l-296 -767q-2 -7 -15.5 -15t-36.5 -8q-7 0 -11.5 1.5t-5.5 3.5l-1 2l296 767q10 22 49 22q9 0 21 -6z" />
    <glyph glyph-name="zero" unicode="0" horiz-adv-x="484" 
d="M112 320q0 -120 35 -202.5t90 -82.5q64 0 99.5 83t35.5 207q0 119 -35 198.5t-90 79.5q-61 0 -98 -81t-37 -202zM24 319q0 136 59 229t159 93q101 0 159.5 -92.5t58.5 -229.5q0 -136 -59 -229t-159 -93q-99 0 -158.5 93.5t-59.5 228.5z" />
    <glyph glyph-name="one" unicode="1" horiz-adv-x="484" 
d="M131 496q-6 3 -12 11.5t-6 13.5q0 4 2 6q169 115 173 115h2q8 0 12 -19q-10 -33 -10 -94v-394q0 -58 8 -89q2 -7 29.5 -13.5t37.5 -6.5q4 0 4 -18q0 -9 -1 -11q-100 5 -121 5q-16 0 -116 -5q-4 4 -4 16.5t4 12.5q13 0 40.5 6.5t29.5 13.5q6 24 6 57v360q0 29 -2 44
t-4.5 18.5t-7.5 3.5q-6 0 -17.5 -6t-26.5 -15z" />
    <glyph glyph-name="two" unicode="2" horiz-adv-x="484" 
d="M256 642q67 0 105.5 -50t38.5 -113q0 -37 -12.5 -76.5t-39 -80.5l-48 -71.5t-59.5 -70.5l-52.5 -55l-46.5 -46q-3 -5 2 -7h193q28 0 40.5 16t25.5 61q4 11 14 11q13 0 18 -4q-24 -120 -27 -140q-2 -16 -20 -16h-328q-4 0 -7.5 11.5t-3.5 18.5q109 110 187 228.5t78 200.5
q0 54 -27 83.5t-71 29.5q-83 0 -133 -83q-6 0 -12.5 6.5t-6.5 9.5q3 12 16.5 32.5t36 45t60 42t79.5 17.5z" />
    <glyph glyph-name="three" unicode="3" horiz-adv-x="485" 
d="M250 642q43 0 82.5 -35.5t39.5 -92.5q0 -44 -21.5 -74.5t-61.5 -60.5q53 -19 96.5 -63t43.5 -110q0 -95 -67 -153t-166 -58q-85 0 -130 30q-10 7 -10 29q0 47 37 47q9 0 18.5 -7.5t21 -19.5t19.5 -18q29 -21 76 -21q44 0 79.5 34.5t35.5 110.5q0 59 -38 100t-89 41
q-37 0 -65 -7q-7 9 -7 26q0 7 2 10q69 12 110 48t41 98q0 34 -26.5 60.5t-60.5 26.5q-22 0 -40.5 -7.5t-28 -15.5t-18.5 -17.5l-10 -10.5q-4 0 -8 9.5t-4 16.5q27 40 61 62t88 22z" />
    <glyph glyph-name="four" unicode="4" horiz-adv-x="482" 
d="M359 645q13 0 13 -10v-403h62q16 0 16 -48q0 -6 -6 -10h-72v-175q-3 -5 -42 -5q-37 0 -37 8v172h-253q-7 9 -7 31l303 428q9 12 23 12zM293 232v266q0 9 -5 9q0 -1 -1 -2l-182 -261q-1 -1 -1 -3q0 -9 7 -9h182z" />
    <glyph glyph-name="five" unicode="5" horiz-adv-x="485" 
d="M139 623q197 6 235 14q5 -7 5 -21q0 -25 -6 -55q-26 -8 -113 -11l-87 -4q-5 -1 -7 -8q-11 -55 -29 -160q33 13 94 13q80 0 138.5 -55t58.5 -130q0 -92 -64.5 -151.5t-162.5 -59.5q-89 0 -134 30q-10 7 -10 29q0 47 37 47q9 0 18.5 -7.5t21 -19.5t19.5 -18q29 -21 80 -21
q42 0 75.5 35.5t33.5 109.5q0 26 -7 49t-22.5 45.5t-45.5 35.5t-71 13q-52 0 -87 -11q-8 4 -18 14z" />
    <glyph glyph-name="six" unicode="6" horiz-adv-x="484" 
d="M130 210q0 -70 33.5 -123.5t83.5 -53.5q44 0 77 38.5t33 102.5q0 68 -32.5 112t-95.5 44q-27 0 -52 -14.5t-32 -30.5q-14 -32 -15 -75zM235 -6q-83 0 -137 64.5t-54 149.5q0 78 31 150t83.5 126.5t113 95t128.5 67.5q6 0 14.5 -11t8.5 -16q-101 -44 -171.5 -106.5
t-97.5 -161.5q-2 -10 1 -10q2 1 3 2q14 11 50.5 24t66.5 13q70 0 117.5 -58.5t47.5 -127.5q0 -83 -62 -142t-143 -59z" />
    <glyph glyph-name="seven" unicode="7" horiz-adv-x="483" 
d="M133 553q-17 0 -30.5 -14t-19.5 -28t-13 -37q-1 -4 -14 -5t-20 2l14.5 66.5t16.5 83.5q1 12 16 12h289q16 0 41 1.5t26 1.5q7 0 7 -9q0 -6 -4 -15.5t-12.5 -26.5l-12.5 -25l-263 -563q-3 -3 -11 -3q-11 0 -23 10.5t-12 17.5l266 531h-241z" />
    <glyph glyph-name="eight" unicode="8" horiz-adv-x="484" 
d="M241 27q50 0 79 30t29 81q0 29 -17 57.5t-43 50.5t-40.5 32t-27.5 17q-4 2 -6 2q-3 0 -4 -1q-42 -26 -60.5 -58.5t-18.5 -80.5q0 -58 33 -94t76 -36zM241 608q-37 0 -61.5 -32t-24.5 -84q0 -68 104 -128q4 -2 6 -2q3 0 6 2q68 45 68 122q0 47 -27.5 84.5t-70.5 37.5z
M247 643q69 0 116.5 -41.5t47.5 -110.5q0 -76 -112 -147q-7 -2 0 -6q52 -30 91.5 -75.5t39.5 -95.5q0 -74 -57.5 -125t-133.5 -51q-83 0 -134.5 45t-51.5 118q0 13 3 25.5t6.5 22.5t11.5 21.5l13.5 19t16.5 17.5l16 14.5t18 13.5l16.5 11.5t15.5 10.5l13 8q5 3 0 6
q-39 23 -70.5 64.5t-31.5 91.5q0 64 50 113.5t116 49.5z" />
    <glyph glyph-name="nine" unicode="9" horiz-adv-x="484" 
d="M353 431q0 71 -33.5 124t-86.5 53q-43 0 -74 -40t-31 -105t33 -108.5t94 -43.5q27 0 52 14.5t32 30.5q13 30 14 75zM249 647q82 0 136 -64.5t54 -149.5q0 -78 -32 -152.5t-82.5 -130t-107 -96t-112.5 -60.5q-6 0 -14 12t-8 17q77 30 148 98.5t98 167.5q2 10 -1 10
q-2 -1 -3 -2q-11 -13 -46 -24t-62 -11q-72 0 -122 54t-50 129q0 83 61.5 142.5t142.5 59.5z" />
    <glyph glyph-name="colon" unicode=":" horiz-adv-x="236" 
d="M179 371q0 -25 -17 -43t-42 -18t-42.5 18t-17.5 43t17.5 42t42.5 17t42 -17t17 -42zM179 46q0 -25 -17 -42.5t-42 -17.5t-42.5 17.5t-17.5 42.5t17.5 42.5t42.5 17.5t42 -17.5t17 -42.5z" />
    <glyph glyph-name="semicolon" unicode=";" horiz-adv-x="244" 
d="M196 39q0 -42 -10 -72q-11 -33 -36.5 -61t-76.5 -71q-4 -2 -7 -2q-7 0 -14 11t-7 16q0 2 18.5 17t36.5 44t18 65q0 29 -13.5 53.5t-13.5 28.5q0 20 21.5 38t48.5 18q9 0 18 -7q17 -16 17 -78zM82 371q0 25 18 42t43 17t42 -17t17 -42t-17 -43t-42 -18t-43 18t-18 43z" />
    <glyph glyph-name="less" unicode="&#x3c;" horiz-adv-x="535" 
d="M475 35q0 -7 -6 -28.5t-10 -21.5q-1 0 -5 2l-375 190q-18 10 -18 40q0 15 18 24l369 187q4 2 5 2q8 0 17 -47l-3 -9l-326 -165l331 -168q3 -1 3 -6z" />
    <glyph glyph-name="equal" unicode="=" horiz-adv-x="571" 
d="M520 168q0 -8 -10 -45q-1 -3 -2.5 -4.5t-2.5 -1.5h-1h-445q-7 0 -7 10t9 41q1 3 2.5 4t2.5 1h2h444q8 0 8 -5zM52 269q5 46 15 46h449q4 0 4 -5q0 -8 -10 -45q-1 -3 -2.5 -4.5t-2.5 -1.5h-1h-445q-7 0 -7 10z" />
    <glyph glyph-name="greater" unicode="&#x3e;" horiz-adv-x="535" 
d="M67 382q0 13 6.5 30.5t9.5 17.5q1 0 5 -2l370 -187q17 -9 17 -24q0 -31 -17 -40l-375 -190q-4 -2 -5 -2q-4 0 -10.5 21.5t-6.5 28.5l3 6l331 168l-325 165q-3 1 -3 8z" />
    <glyph glyph-name="question" unicode="?" horiz-adv-x="366" 
d="M112 558q-16 0 -31.5 9t-15.5 31q0 23 7 34q20 10 50 10q60 0 128.5 -53t68.5 -132q0 -52 -22.5 -86.5t-78.5 -66.5q-21 -12 -47.5 -33t-30.5 -29q-10 -18 -10 -69q0 -13 -20 -13q-13 0 -13 8q0 13 -0.5 46.5t-0.5 47.5q0 12 1.5 22.5t5.5 20t6.5 16.5t10.5 15t10.5 12
t13 11t12.5 9t13.5 9.5t12.5 7.5l35.5 23t25.5 19.5t20.5 24t5.5 24.5q0 43 -24.5 66t-56.5 23q-30 0 -48 -3.5t-28 -3.5zM59 45q0 24 17 40.5t41 16.5t41 -16.5t17 -40.5t-17 -41.5t-41 -17.5t-41 17.5t-17 41.5z" />
    <glyph glyph-name="at" unicode="@" horiz-adv-x="819" 
d="M730 214q0 129 -79.5 221.5t-204.5 92.5q-138 0 -236.5 -87.5t-98.5 -217.5q0 -157 89 -253t269 -96q8 0 17.5 2t18.5 5.5l16.5 6.5t12.5 6l6 2q2 -9 2 -10q0 -20 -34.5 -38.5t-93.5 -18.5q-78 0 -147 33t-115.5 84.5t-73 114.5t-26.5 124q0 180 116 286t289 106
q72 0 134 -31.5t102.5 -81.5t63 -110.5t22.5 -120.5q0 -69 -17 -119.5t-45 -76.5t-58 -38t-62 -12q-48 0 -80 35t-32 70q0 1 -2 0t-3 -2q-16 -27 -63 -62t-82 -35q-52 0 -80.5 45.5t-28.5 102.5q0 107 74 188t201 81l89 -9l-7 -53l-25 -223q-2 -20 -2 -28q0 -70 50 -70
q35 0 61 21t39 53t18.5 60.5t5.5 52.5zM506 334q0 8 -2 12.5t-14 8.5t-35 4q-64 0 -107.5 -57.5t-43.5 -158.5q0 -47 18 -68.5t41 -21.5q39 0 82 46.5t45 70.5l15 152q1 6 1 12z" />
    <glyph glyph-name="A" unicode="A" 
d="M365 660l200 -528q18 -47 29 -72q6 -15 31 -24.5t37 -9.5q4 0 4 -19q0 -4 -2 -10q-100 5 -110 5q-1 0 -116 -5q-4 4 -3.5 16.5t4.5 12.5q12 0 30 5t21 13q2 8 2 16q0 13 -3.5 30.5t-6.5 27.5l-4 11l-41 113q-3 4 -6 4q-39 3 -76 3q-52 0 -127 -5l-5 -3l-43 -110
q-17 -50 -17 -69q0 -14 8 -20q9 -7 29 -11.5t29 -4.5q3 0 3.5 -12t-1.5 -17q-100 5 -103 5q-20 0 -35 -1t-33.5 -2l-35.5 -2q-4 4 -4 15q0 14 4 14q12 0 31 5t26 14q21 27 47 94l174 447q2 5 5.5 16t5.5 16.5t6 14t7 12.5t7.5 9t10 7t12.5 2zM249 299q52 -2 71 -2q44 0 91 3
l3 5l-81 221l-86 -223q0 -4 2 -4z" />
    <glyph glyph-name="B" unicode="B" horiz-adv-x="592" 
d="M457 176q0 64 -43 109.5t-135 45.5q-22 0 -72 -4q-4 -12 -4 -33v-146q0 -76 16 -89q15 -14 54 -14q25 0 49.5 4t58.5 15.5t55 40t21 71.5zM116 143v378q0 59 -7 86q-3 8 -29.5 15t-39.5 7q-4 0 -4 12q0 13 4 17q52 -2 119 -2q51 0 83.5 0.5t57.5 0.5q26 0 53 -4.5
t55.5 -16.5t50.5 -30t36 -47.5t14 -65.5t-23 -67t-42.5 -43t-33.5 -17q-8 -3 -5 -6q39 -7 93 -56.5t54 -116.5q0 -86 -69.5 -136.5t-184.5 -50.5h-137l-121 -3q-3 3 -3 16t3 13q13 0 38.5 7t30.5 16q7 12 7 94zM325 376q41 4 68.5 28.5t27.5 65.5q0 69 -34.5 107.5
t-102.5 38.5q-46 0 -71 -7q-6 -1 -6 -9l-4 -101v-119q0 -7 66 -7q32 0 56 3z" />
    <glyph glyph-name="C" unicode="C" horiz-adv-x="656" 
d="M634 183q0 -11 -14 -76.5t-20 -68.5q-73 -44 -239 -44q-132 0 -224.5 97t-92.5 231q0 142 95 243.5t233 101.5q118 0 243 -25q-2 -134 -2 -144q0 -15 -21 -15q-10 0 -13 5q-3 13 -7.5 26.5t-19 35t-35 37t-58 27t-84.5 11.5q-98 0 -167 -86.5t-69 -195.5q0 -81 28 -149
t88.5 -112.5t143.5 -44.5q99 0 153 58q14 15 24.5 39.5t16 41t8.5 16.5q6 0 14.5 -2t13.5 -4z" />
    <glyph glyph-name="D" unicode="D" horiz-adv-x="722" 
d="M157 656q38 0 96.5 1t77.5 1q163 0 254 -96t91 -226q0 -145 -92 -242t-254 -97q-12 0 -71.5 2t-99.5 1l-121 -3q-3 3 -3 15q0 14 3 14q13 0 38.5 7t30.5 16q7 12 7 94v378q0 59 -7 86q-3 8 -29.5 15t-39.5 7q-4 0 -4 12q0 13 4 17q52 -2 119 -2zM201 535v-396
q0 -42 15 -76q4 -10 53.5 -15t76.5 -5q230 0 230 297q0 114 -60.5 194t-176.5 80h-5q-108 0 -120 -16q-13 -18 -13 -63z" />
    <glyph glyph-name="E" unicode="E" horiz-adv-x="571" 
d="M152 656q45 0 156 4t167 4q4 -29 15.5 -76.5t13.5 -59.5q-5 -5 -18 -5t-14 7q-15 55 -42 70.5t-74 15.5h-67q-86 0 -88 -13q-5 -24 -5 -84v-160q0 -6 43 -6h53h40.5t26.5 4t18 5t10.5 13t7.5 17.5t7 28.5q1 7 15 7q12 0 17 -5v-189q-4 -4 -16 -4q-13 0 -16 8
q-7 27 -12 40.5t-7.5 16t-8.5 6.5q-13 8 -106 8q-72 0 -72 -9v-155q0 -65 9 -91q3 -10 68 -10h48q93 0 126 17q15 8 33.5 35.5t29.5 65.5q2 6 14 6q19 0 25 -6l-15.5 -41.5l-16.5 -46t-13 -40.5t-9 -38q-51 0 -161 2t-180 2l-121 -3q-3 3 -3 16t3 13q13 0 38.5 7t30.5 16
q7 12 7 94v378q0 59 -7 86q-3 8 -29.5 15t-39.5 7q-4 0 -4 12q0 13 4 17q52 -2 119 -2z" />
    <glyph glyph-name="F" unicode="F" horiz-adv-x="551" 
d="M163 656q45 0 156 4t167 4q4 -29 15.5 -76.5t13.5 -59.5q-5 -5 -18 -5t-14 7q-15 55 -42 70.5t-74 15.5h-67q-86 0 -88 -13q-5 -24 -5 -84v-163q0 -6 42 -6h53q67 0 82 9.5t26 54.5q1 6 2 9q1 7 15 7q12 0 17 -5v-194q-4 -4 -16 -4q-13 0 -16 8q-7 27 -12 40.5t-7.5 16
t-8.5 6.5q-13 8 -106 8q-71 0 -71 -9v-158q0 -58 9 -93q2 -7 28 -13.5t36 -6.5q4 0 4 -15q0 -8 -2 -14q-100 5 -116 5q-5 0 -120 -5q-4 4 -4 15q0 14 4 14q13 0 38.5 6t28.5 14q7 27 7 90v385q0 59 -7 86q-3 8 -29.5 15t-39.5 7q-4 0 -4 12q0 13 4 17q52 -2 119 -2z" />
    <glyph glyph-name="G" unicode="G" horiz-adv-x="715" 
d="M44 322q0 142 95 243.5t233 101.5q71 0 237 -45q4 -114 4 -124q0 -15 -21 -15q-10 0 -13 5q-27 137 -204 137q-100 0 -167 -85t-67 -205q0 -111 73.5 -204.5t184.5 -93.5q88 0 130 22q7 3 7 15l-1 82v7q0 65 -8 86q-4 10 -32.5 16t-44.5 6q-4 0 -4 12.5t4 16.5
q128 -5 131 -5q8 0 108 5q2 -6 2 -14q0 -15 -4 -15q-6 0 -27.5 -6.5t-30.5 -11.5q-10 -7 -10 -67q0 -21 1.5 -45.5t1.5 -26.5q0 -18 7 -35t7 -20q0 -8 -25 -18q-2 -1 -19.5 -7.5t-22.5 -8.5t-22.5 -7.5t-28 -7.5l-30 -6t-37 -5.5t-41 -3t-49.5 -1.5q-132 0 -224.5 97
t-92.5 231z" />
    <glyph glyph-name="H" unicode="H" horiz-adv-x="707" 
d="M507 135v176l-2 4q-94 2 -148 2q-154 0 -154 -5v-173q0 -58 9 -93q2 -7 28 -13.5t36 -6.5q3 0 3.5 -12t-1.5 -17q-100 5 -116 5q-5 0 -120 -5q-4 4 -4 15q0 14 4 14q13 0 38.5 6t28.5 14q7 27 7 89v388q0 62 -7 89q-3 8 -28.5 14.5t-38.5 6.5q-4 0 -4 13q0 12 4 16
q13 -1 53 -3.5t67 -2.5q20 0 39 1t41 2.5l36 2.5q2 -4 1.5 -16.5t-3.5 -12.5q-10 0 -36 -7t-28 -14q-9 -35 -9 -93v-149l2 -3q98 -2 152 -2q58 0 148 2q2 2 2 4v152q0 62 -7 89q-3 8 -28.5 14.5t-38.5 6.5q-4 0 -4 12.5t4 16.5q12 -1 53 -3.5t68 -2.5q19 0 38 1t40.5 2.5
l35.5 2.5q2 -6 2 -15q0 -14 -4 -14q-10 0 -36 -7t-28 -14q-8 -31 -8 -93v-380q0 -62 8 -93q2 -7 28 -13.5t36 -6.5q4 0 4 -15q0 -8 -2 -14q-100 5 -114 5q-6 0 -121 -5q-4 4 -4 16.5t4 12.5q13 0 38.5 6t28.5 14q7 27 7 89z" />
    <glyph glyph-name="I" unicode="I" horiz-adv-x="318" 
d="M116 523q0 62 -7 89q-3 8 -28.5 14.5t-38.5 6.5q-4 0 -4 13q0 12 4 16q115 -5 120 -5q16 0 116 5q2 -6 2 -15q0 -14 -4 -14q-10 0 -36 -7t-28 -14q-9 -35 -9 -93v-380q0 -58 9 -93q2 -7 28 -13.5t36 -6.5q4 0 4 -15q0 -8 -2 -14q-100 5 -116 5q-5 0 -120 -5q-4 4 -4 15
q0 14 4 14q13 0 38.5 6t28.5 14q7 27 7 89v388z" />
    <glyph glyph-name="J" unicode="J" horiz-adv-x="322" 
d="M178 656q20 0 39 1t41 2.5l36 2.5q2 -6 2 -15q0 -14 -4 -14q-10 0 -36 -7t-28 -14q-9 -35 -9 -93v-434q0 -126 -70.5 -219t-179.5 -93q-11 0 -24 4t-21 8l-7 4q-12 14 -12 37q0 22 18.5 36t43.5 14q18 0 40.5 -21.5t35.5 -21.5q14 0 28.5 14t28.5 41t23 76.5t9 112.5v446
q0 62 -7 89q-3 8 -28.5 14.5t-38.5 6.5q-4 0 -4 13q0 12 4 16q13 -1 53 -3.5t67 -2.5z" />
    <glyph glyph-name="K" unicode="K" horiz-adv-x="693" 
d="M165 656q20 0 39 1t41 2.5l36 2.5q2 -4 1.5 -16.5t-3.5 -12.5q-10 0 -36 -7t-28 -14q-9 -35 -9 -93v-163l7 -6h7q32 0 58 29q117 131 172 203q24 29 24 38q0 17 -57 17q-4 0 -4 9t2 16l34 -2.5t39 -2.5t34 -1q25 0 57 2.5l44 3.5q2 -4 1.5 -14.5t-3.5 -10.5
q-61 -7 -92 -42l-201 -234q-8 -9 7 -27l241 -265q16 -17 42 -28t40.5 -13t23.5 -2q5 0 5 -18q0 -7 -2 -11q-100 5 -124 5q-25 0 -45 -1t-45 -2t-45 -2q-4 4 -4 16.5t4 12.5q12 0 27.5 4t15.5 12q0 32 -227 265q-4 4 -29 4q-7 0 -7 -8v-164q0 -58 9 -93q2 -7 28 -13.5
t36 -6.5q3 0 3.5 -12t-1.5 -17q-100 5 -116 5q-5 0 -120 -5q-4 4 -4 15q0 14 4 14q13 0 38.5 6t28.5 14q7 27 7 89v388q0 62 -7 89q-3 8 -28.5 14.5t-38.5 6.5q-4 0 -4 13q0 12 4 16q13 -1 53 -3.5t67 -2.5z" />
    <glyph glyph-name="L" unicode="L" horiz-adv-x="568" 
d="M161 656q20 0 39 1t41 2.5l36 2.5q2 -6 2 -15q0 -14 -4 -14q-10 0 -36 -7t-28 -14q-9 -35 -9 -93v-377q0 -53 9 -88q3 -10 68 -10h48q93 0 126 17q15 8 33.5 35.5t29.5 65.5q2 6 14 6q19 0 25 -6l-15.5 -41.5l-16.5 -46t-13 -40.5t-9 -38q-52 0 -162.5 3t-178.5 3
l-121 -3q-3 3 -3 16t3 13q14 0 39 6t30 15q7 12 7 94v378q0 64 -7 91q-3 8 -28.5 14.5t-38.5 6.5q-4 0 -4 13q0 12 4 16q13 -1 53 -3.5t67 -2.5z" />
    <glyph glyph-name="M" unicode="M" horiz-adv-x="910" 
d="M167 657q37 0 92 5q7 -23 198 -501q1 -2 4 -2q4 0 5 4q98 230 156 379l40 120q64 -4 83 -4q62 0 112 4q3 -9 3 -15q0 -14 -5 -14h-2q-11 0 -29 -6.5t-27 -13.5q-12 -9 -12 -67q0 -16 9 -406q1 -57 15 -92q4 -9 30 -15.5t37 -6.5q4 0 4 -14q0 -9 -2 -15q-100 5 -119 5
q-5 0 -120 -5q-4 4 -4 16q0 13 4 13q10 0 30.5 5t29.5 10q12 7 12 43v53l-12 352q-1 16 -5.5 37.5t-9.5 21.5q-2 0 -5 -7l-209 -500q-19 -43 -37 -43q-3 0 -9 2l-229 582q-2 -96 -6 -220t-7 -204.5t-3 -82.5q0 -18 6 -26t36.5 -15.5t40.5 -7.5q4 0 4 -15q0 -8 -2 -14
q-100 5 -116 5q-2 0 -117 -5q-5 5 -5 15q0 14 5 14q14 0 41.5 6.5t36.5 15.5q16 18 18 87q2 104 4.5 205t4.5 158.5t2 73.5q0 25 -4 40q-3 8 -34 14.5t-45 6.5q-4 0 -4 14q0 11 4 15q17 -1 37.5 -2t37.5 -2t37 -1z" />
    <glyph glyph-name="N" unicode="N" horiz-adv-x="721" 
d="M551 524q0 61 -7 88q-3 8 -34.5 15.5t-44.5 7.5q-4 0 -4 11.5t4 15.5q13 -1 52 -3.5t66 -2.5q26 0 65.5 3t46.5 3q2 -6 2 -15q0 -12 -4 -12q-10 0 -43.5 -8t-35.5 -15q-8 -31 -8 -93v-380q0 -62 3 -140q-4 -4 -19 -4q-17 0 -33 23l-388 550v-427q0 -66 7 -93
q2 -7 33.5 -14.5t41.5 -7.5q3 0 3.5 -12t-1.5 -17q-100 5 -115 5l-115 -5q-3 3 -3 15q0 14 3 14q14 0 45.5 7.5t34.5 16.5q10 26 10 94v393q0 49 -7 75q-3 8 -34 14.5t-45 6.5q-4 0 -4 12.5t4 16.5q78 -2 102 -2q52 0 80 2q37 -68 339 -490q3 17 3 41v311z" />
    <glyph glyph-name="O" unicode="O" horiz-adv-x="728" 
d="M348 625q-95 0 -150 -83t-55 -192q0 -80 26 -151t81 -118.5t129 -47.5q64 0 112 41.5t70.5 103t22.5 131.5q0 80 -26 150.5t-81 118t-129 47.5zM44 328q0 140 93.5 239.5t225.5 99.5t226 -99.5t94 -239.5t-94 -239t-226 -99t-225.5 99t-93.5 239z" />
    <glyph glyph-name="P" unicode="P" horiz-adv-x="545" 
d="M164 656q30 0 71 2t70 2q33 0 66.5 -10t65 -30t51.5 -57t20 -86q0 -29 -12.5 -62.5t-36.5 -65t-64.5 -52t-90.5 -20.5q-56 0 -77 28q-6 7 -3 23q1 4 3 3q30 -11 67 -11q50 0 86 42t36 100q0 71 -31 112.5t-96 41.5q-45 0 -70 -7q-5 -1 -7 -7.5t-3.5 -30.5t-1.5 -72v-357
q0 -67 8 -87q5 -13 35.5 -21t43.5 -8q4 0 4 -14q0 -9 -2 -15q-100 5 -130 5l-122 -5q-3 3 -3 18q0 13 3 13q14 0 39 6t30 15q7 12 7 94v378q0 59 -7 86q-3 8 -29.5 15t-39.5 7q-4 0 -4 12q0 13 4 17z" />
    <glyph glyph-name="Q" unicode="Q" horiz-adv-x="724" 
d="M348 625q-95 0 -152 -83.5t-57 -191.5q0 -125 65 -221t175 -96q96 0 152.5 83.5t56.5 192.5q0 125 -65 220.5t-175 95.5zM692 -84q18 0 33 2t24 4t11 2q12 0 12 -20v-5q-66 -35 -168 -35q-48 0 -104.5 26t-119 61.5t-103.5 48.5q-36 11 -74 37t-75 66t-60.5 99.5
t-23.5 125.5q0 140 93.5 239.5t225.5 99.5t226 -99.5t94 -239.5q0 -128 -73.5 -218t-150.5 -105q27 -13 74.5 -41t79.5 -38t79 -10z" />
    <glyph glyph-name="R" unicode="R" horiz-adv-x="660" 
d="M287 616q-45 0 -70 -7q-4 -1 -6.5 -7.5t-4 -30t-1.5 -72.5v-121q0 -29 87 -29h25q35 0 72.5 35t37.5 93q0 139 -140 139zM303 660q34 0 69 -10t69 -30t56 -57t22 -86q0 -42 -31.5 -88t-85.5 -71q-10 -4 -6 -10q50 -105 115 -176q96 -105 156 -105q3 -6 3 -14q0 -9 -3 -15
q-11 -3 -27 -3q-140 0 -243 144l-36.5 52.5l-30 44t-22 29.5t-22 24t-20.5 13q-11 4 -37 4q-8 0 -12 -0.5t-8 -4.5t-4 -12v-147q0 -67 8 -87q5 -13 35.5 -21t43.5 -8q4 0 4 -14q0 -9 -2 -15q-100 5 -130 5l-122 -5q-3 3 -3 18q0 13 3 13q14 0 39 6t30 15q7 12 7 94v378
q0 59 -7 86q-3 8 -29.5 15t-39.5 7q-4 0 -4 12q0 13 4 17l120 -2q30 0 71 2t70 2z" />
    <glyph glyph-name="S" unicode="S" horiz-adv-x="491" 
d="M61 490q0 77 59 126.5t137 49.5q22 0 41.5 -2.5t32 -5.5t36 -9.5t41.5 -10.5q12 -53 12 -143q0 -7 -10 -7q-24 0 -26 10q-5 44 -42.5 85.5t-91.5 41.5q-60 0 -84.5 -30t-24.5 -74q0 -19 7 -36.5t14 -29t25.5 -26.5t27 -21t34 -22t32.5 -20l35 -21.5t41 -26t34.5 -27
t34 -34.5t20 -37.5t9.5 -46.5q0 -80 -62.5 -131.5t-146.5 -51.5q-24 0 -51 3.5t-45 7t-45.5 10t-38.5 8.5q-25 123 -25 159q0 6 16 6q18 0 25 -9q34 -144 166 -144q50 0 85 30t35 85q0 20 -6 37t-12.5 28t-23 23.5t-25.5 18.5t-33 19l-33 18l-40.5 24t-38 24.5t-38.5 31
l-28 33t-22.5 41.5t-6.5 46z" />
    <glyph glyph-name="T" unicode="T" horiz-adv-x="669" 
d="M335 656q44 0 113 2t107 2q25 0 69 11l19 -143q-7 -7 -24 -7q-9 0 -10 5q-14 56 -34.5 72.5t-77.5 16.5q-106 0 -110 -15q-9 -32 -9 -100v-361q0 -58 9 -93q2 -7 28 -13.5t36 -6.5q4 0 4 -15q0 -8 -2 -14q-100 5 -116 5q-5 0 -120 -5q-4 4 -4 15q0 14 4 14q13 0 38.5 6
t28.5 14q7 27 7 89v362q0 87 -9 103q-8 15 -108 15q-57 0 -77.5 -16.5t-34.5 -72.5q-1 -5 -10 -5q-17 0 -24 7l19 143q44 -11 69 -11q38 0 106.5 -2t112.5 -2z" />
    <glyph glyph-name="U" unicode="U" horiz-adv-x="719" 
d="M157 657q16 0 116 5q2 -6 2 -14q0 -15 -4 -15q-10 0 -36 -7t-28 -14q-9 -35 -9 -93v-223q0 -113 48 -180t136 -67q171 0 171 225v250q0 61 -7 88q-3 8 -34.5 15.5t-44.5 7.5q-4 0 -4 11.5t4 15.5q13 -1 52 -3.5t66 -2.5q26 0 65.5 3t46.5 3q2 -6 2 -15q0 -12 -4 -12
q-10 0 -43.5 -8t-35.5 -15q-8 -31 -8 -93v-243q0 -155 -65 -215.5t-185 -60.5q-119 0 -183 70t-64 226v227q0 62 -7 89q-3 8 -28.5 14.5t-38.5 6.5q-4 0 -4 13q0 12 4 16q115 -5 120 -5z" />
    <glyph glyph-name="V" unicode="V" horiz-adv-x="709" 
d="M136 657q24 0 124 5q2 -4 1.5 -16.5t-3.5 -12.5q-7 0 -19 -2t-26 -10t-14 -21q0 -29 126 -337l43 -106q3 -5 8.5 -2.5t7.5 7.5l150 362q19 49 19 70q0 14 -16 24t-30.5 12.5t-23.5 2.5q-4 0 -4 12.5t4 16.5q93 -5 107 -5q1 0 101 5q2 -6 2 -15q0 -14 -4 -14
q-45 0 -60 -28q-23 -42 -49 -103l-200 -478q-13 -33 -35 -33q-7 0 -10 6l-205 517q-25 66 -45 96q-7 11 -29 17t-35 6q-4 0 -4 13q0 12 4 16q16 -1 38 -2t39.5 -2t37.5 -1z" />
    <glyph glyph-name="W" unicode="W" horiz-adv-x="1076" 
d="M146 657q5 0 105 5q2 -4 1.5 -16.5t-3.5 -12.5q-7 0 -17 -1.5t-21.5 -9t-11.5 -18.5q0 -30 23 -74l207 -410q3 -5 8 -2.5t7 7.5l83 173l-105 216q-29 59 -58 96q-8 10 -27 16.5t-31 6.5q-4 0 -4 15q0 10 4 14q115 -5 126 -5q4 0 104 5q2 -4 1.5 -16.5t-3.5 -12.5
q-7 0 -16.5 -1.5t-21 -8.5t-11.5 -19q0 -26 23 -74l66 -135l70 147q14 31 14 58q0 17 -21.5 25t-37.5 8q-4 0 -4 12.5t4 16.5q80 -5 101 -5q4 0 104 5q2 -4 1.5 -16.5t-3.5 -12.5q-10 0 -34.5 -8t-34.5 -20q-18 -22 -58 -103l-77 -158l109 -224q6 -11 12 5l179 411
q17 41 17 63q0 17 -20.5 25.5t-36.5 8.5q-4 0 -4 12.5t4 16.5q80 -5 102 -5q23 0 38 1l31 2t30 2q2 -6 2 -15q0 -14 -4 -14q-10 0 -32 -7.5t-33 -20.5q-29 -34 -58 -101l-212 -480q-15 -32 -39 -32q-6 0 -9 5l-122 250l-108 -223q-15 -32 -39 -32q-6 0 -9 5l-260 517
q-29 59 -58 96q-8 10 -27 16.5t-31 6.5q-4 0 -4 13q0 12 4 16q115 -5 126 -5z" />
    <glyph glyph-name="X" unicode="X" horiz-adv-x="688" 
d="M176 657q28 0 128 5q2 -4 1.5 -16.5t-3.5 -12.5q-18 0 -39 -7.5t-21 -24.5q0 -12 12 -30l115 -175q4 6 23.5 30.5l28 35.5l26 34t26 35.5l19 28.5t15 26t4.5 16q0 11 -20.5 21t-49.5 10q-4 0 -4 12.5t4 16.5q93 -5 127 -5q12 0 112 5q2 -4 1.5 -16.5t-3.5 -12.5
q-14 0 -50 -8t-46 -21l-188 -246l192 -292q13 -20 41.5 -30t56.5 -10q5 0 5 -16q0 -9 -2 -13q-100 5 -105 5q-6 0 -146 -5q-4 4 -4 16.5t4 12.5q14 0 36 8t22 20q0 4 -5 12l-150 229q-164 -220 -164 -240q0 -4 4.5 -10t21.5 -12.5t42 -6.5q4 0 4 -16q0 -10 -2 -13
q-93 5 -113 5q-23 0 -123 -5q-2 6 -2 13q0 16 4 16q8 0 21.5 1.5t34.5 8.5t32 18l214 280l-140 214q-31 49 -66 69q-27 16 -56 16q-4 0 -4 12.5t4 16.5q123 -5 125 -5z" />
    <glyph glyph-name="Y" unicode="Y" horiz-adv-x="649" 
d="M139 656q12 0 132 6q2 -4 1.5 -15.5t-3.5 -11.5q-17 0 -38.5 -8.5t-21.5 -25.5q0 -11 11 -30l112 -212q5 -5 10 2q136 206 136 241q0 11 -20 22t-49 11q-4 0 -4 11.5t4 15.5q111 -6 118 -6q31 0 64 3t42 3q2 -6 2 -15q0 -12 -4 -12q-12 0 -42 -9t-40 -22l-110.5 -179
t-72.5 -134v-152q0 -62 8 -93q2 -7 27 -14.5t34 -7.5q4 0 4 -13q0 -8 -2 -14q-100 5 -112 5q-3 0 -118 -5q-4 4 -4 14q0 13 4 13q12 0 36.5 7t27.5 15q8 31 8 96v125q0 14 -21.5 55.5t-124.5 226.5q-16 30 -24.5 41.5t-24.5 22.5q-11 8 -33 15t-32 7q-4 0 -4 11q0 12 4 16
l54 -3.5t66 -2.5z" />
    <glyph glyph-name="Z" unicode="Z" horiz-adv-x="600" 
d="M214 656h109q70 0 210 10q3 -1 6.5 -13t3.5 -20l-374 -557q-7 -10 -7 -15q0 -10 14 -10h226q36 0 62 10.5t42.5 32.5t24 36.5t17.5 41.5q2 3 14 3q15 0 24 -9q-32 -104 -44 -166h-496q-8 9 -8 26q0 12 4 17l383 565h-212q-66 0 -94.5 -27.5t-47.5 -96.5q-1 -4 -10 -4
q-23 0 -32 9q27 124 33 176q10 -3 72.5 -6t79.5 -3z" />
    <glyph glyph-name="bracketleft" unicode="[" horiz-adv-x="361" 
d="M140 740q36 0 72 2t59.5 4.5t28.5 2.5q6 0 6 -12q0 -22 -18 -31q-47 -11 -101 -11q-3 0 -4.5 -2t-2.5 -4v-2v-736q1 -8 7 -8q52 0 102 -17q12 -4 12 -22q0 -5 -1.5 -9.5t-3.5 -6.5l-1 -2q-73 12 -155 12q-19 0 -19 23v796q0 23 19 23z" />
    <glyph glyph-name="backslash" unicode="\" horiz-adv-x="430" 
d="M396 -7q0 -27 -23 -32l-24 2l-313 792q7 6 21 6q39 0 49 -22l287 -726q3 -6 3 -20z" />
    <glyph glyph-name="bracketright" unicode="]" horiz-adv-x="361" 
d="M183 -49v736q-1 8 -7 8q-24 0 -49.5 2.5t-38.5 5.5l-13 3l-1 1q-2 1 -4 2.5t-4.5 4t-4 5.5t-3 8t-1.5 10q0 12 5 12h1q78 -9 160 -9q18 0 18 -23v-796q0 -23 -18 -23q-36 0 -75 -3t-60 -6l-21 -3q-6 1 -6 12q0 10 6 20l9 8q46 17 100 17q3 0 4.5 2t1.5 4z" />
    <glyph glyph-name="asciicircum" unicode="^" horiz-adv-x="445" 
d="M362 475q-12 0 -58.5 40t-81.5 82q-32 -41 -78.5 -81.5t-59.5 -40.5q-4 0 -7.5 6t-4.5 12l-1 6q1 3 25 25.5t57 63.5t55 89q6 13 10 13q9 0 14.5 -5.5t9.5 -15t18 -32.5t33 -49q10 -13 30 -34l35.5 -36.5t16.5 -17.5q0 -5 -4 -15t-9 -10z" />
    <glyph glyph-name="underscore" unicode="_" horiz-adv-x="468" 
d="M0 -33q5 46 15 46h449q4 0 4 -5q0 -8 -10 -45q-1 -3 -2.5 -4.5t-2.5 -1.5h-1h-445q-7 0 -7 10z" />
    <glyph glyph-name="grave" unicode="`" horiz-adv-x="327" 
d="M104 663q0 4 2.5 8.5t12.5 10t26 5.5q25 0 34 -9q17 -20 40 -53t38 -57.5t15 -27.5q0 -13 -12 -13q-13 0 -84.5 55.5t-71.5 80.5z" />
    <glyph glyph-name="a" unicode="a" horiz-adv-x="423" 
d="M184 50q27 0 52 16.5t25 33.5v103q-8 -4 -39 -14t-48.5 -17.5t-34 -25t-16.5 -40.5q0 -27 17 -41.5t44 -14.5zM234 436q55 0 79 -26.5t24 -85.5v-231q0 -21 11 -35t30 -14q14 0 35 14q4 0 4 -8q0 -13 -5 -21q-41 -35 -70 -35q-23 0 -44 19t-29 40q-1 0 -7.5 -6.5
t-17.5 -15t-25.5 -17.5t-34 -15t-39.5 -6q-46 0 -76 24.5t-30 73.5q0 22 11 41.5t26 32t41 25.5t44.5 19.5l48.5 16.5t42 15q9 3 9 15v75q0 32 -20 49.5t-48 17.5q-30 0 -50 -20.5t-20 -53.5q0 -35 -41 -35q-28 0 -39 19q0 43 63 85.5t128 42.5z" />
    <glyph glyph-name="b" unicode="b" horiz-adv-x="499" 
d="M256 438q96 0 150.5 -65.5t54.5 -139.5q0 -95 -70.5 -167t-155.5 -72q-37 0 -70.5 6.5t-38.5 6.5q-9 0 -22.5 -5.5t-15.5 -5.5q-4 0 -12.5 3t-8.5 7q0 1 3 16.5t6 45.5t3 67v414q0 34 -6 64q-5 16 -51 16h-9q-6 0 -6 11q0 16 6 16q30 3 55.5 8t40 10t24.5 9.5t15 7.5l4 3
h2q4 0 8 -5.5t5 -10.5q-11 -32 -11 -87v-175q0 -11 3 -11q1 0 3 1q14 10 43 21t51 11zM224 389q-28 0 -48 -15.5t-20 -44.5v-233q0 -31 29.5 -45.5t68.5 -14.5q57 0 89 54t32 122q0 79 -41.5 128t-109.5 49z" />
    <glyph glyph-name="c" unicode="c" horiz-adv-x="405" 
d="M231 436q110 0 152 -51q0 -67 -37 -67q-17 0 -26 7.5t-23 27.5q-31 46 -74 46q-41 0 -74.5 -39t-33.5 -116q0 -80 39.5 -133t109.5 -53q21 0 40 4t32.5 9.5t23 11t16.5 10.5l7 5q6 0 6 -13q0 -8 -6 -18q-20 -28 -59 -50.5t-85 -22.5q-83 0 -142.5 62.5t-59.5 152.5
q0 92 50 159.5t144 67.5z" />
    <glyph glyph-name="d" unicode="d" horiz-adv-x="497" 
d="M248 398q-58 0 -91 -52t-33 -121q0 -73 39 -126.5t108 -53.5q34 0 53 15.5t19 41.5v238q0 21 -22.5 39.5t-72.5 18.5zM261 440q43 0 75 -17q7 0 7 18v108q0 34 -6 64q-5 16 -51 16h-9q-6 0 -6 11q0 16 6 16q30 3 55.5 8t40 10t24.5 9.5t15 7.5l4 3h2q4 0 8 -5.5t5 -10.5
q-11 -32 -11 -87v-450q0 -48 6 -76q2 -7 11 -11t18.5 -5t18.5 -1l9 -1q3 -1 3 -12q0 -15 -6 -15q-15 -1 -33.5 -4t-35 -6.5t-30.5 -7t-23 -6.5l-9 -2q-6 0 -6 17v12q0 6 -4 4q-56 -31 -106 -31q-83 0 -139 59t-56 141q0 97 68.5 170.5t154.5 73.5z" />
    <glyph glyph-name="e" unicode="e" horiz-adv-x="430" 
d="M225 399q-52 0 -79.5 -44.5t-27.5 -73.5q0 -7 6 -7h195q5 0 5 10q0 32 -27 73.5t-72 41.5zM235 436q46 0 81 -17.5t53.5 -45t27 -56t8.5 -56.5q0 -20 -6 -24.5t-23 -4.5h-252q-8 0 -8 -5q0 -63 38 -116t110 -53q21 0 40 4t32.5 9.5t23 11t16.5 10.5l7 5q6 0 6 -13
q0 -8 -6 -18q-20 -28 -59 -50.5t-85 -22.5q-83 0 -142.5 62.5t-59.5 152.5q0 105 56.5 166t141.5 61z" />
    <glyph glyph-name="f" unicode="f" horiz-adv-x="301" 
d="M297 695q72 0 95 -39q0 -63 -36 -63q-13 0 -25 15.5t-27.5 31.5t-37.5 16q-44 0 -68 -54t-24 -127v-51q0 -5 5 -5h111q5 0 5 -7q0 -16 -12 -40h-103q-6 0 -6 -6v-231q0 -54 9 -89q2 -7 24.5 -13.5t31.5 -6.5q3 0 4 -12t-1 -17q-100 5 -107 5q-3 0 -105 -5q-2 2 -3 9.5
t0 13.5t3 6q12 0 34 6.5t24 13.5q10 39 10 89v230q0 7 -5 7h-53q-3 0 -3 6q0 9 16 25t34 16h6q5 0 5 6v13q0 105 62.5 181t136.5 76z" />
    <glyph glyph-name="g" unicode="g" horiz-adv-x="474" 
d="M379 -85q0 42 -41 56.5t-163 14.5q-2 0 -6 -2q-1 -1 -9 -4.5t-10 -4.5t-9 -5.5t-9.5 -6t-8.5 -6t-8 -8t-6 -8.5t-5.5 -10t-3 -11.5t-1.5 -13.5q0 -43 44.5 -69.5t98.5 -26.5q60 0 98.5 32t38.5 73zM123 296q0 -46 28.5 -78t66.5 -32q39 0 64.5 30t25.5 72q0 46 -28.5 78
t-66.5 32q-39 0 -64.5 -30t-25.5 -72zM217 432q37 0 85 -13t79 -13h58q6 -2 6 -25q0 -14 -6 -14h-71q-4 0 -4 -3l10 -24q11 -24 11 -48q0 -54 -48 -97t-118 -43q-32 0 -56 4q-13 -7 -27.5 -25t-14.5 -32t8 -22.5t23 -12t29 -5t33 -1.5h7q124 -2 174 -25.5t50 -70.5
q0 -77 -65 -132.5t-167 -56.5q-71 -1 -127.5 27t-56.5 84q0 62 98 106q-27 4 -50 25t-23 51q0 26 22.5 54t50.5 46q-30 11 -55.5 47.5t-25.5 78.5q0 59 49.5 99.5t121.5 40.5z" />
    <glyph glyph-name="h" unicode="h" horiz-adv-x="530" 
d="M312 438q67 0 96 -48t29 -148v-108q0 -57 8 -88q2 -7 26 -13.5t34 -6.5q3 0 4 -12t-1 -17q-100 5 -107 5q-3 0 -105 -5q-4 4 -4 16.5t4 12.5q12 0 33.5 6.5t23.5 13.5q7 29 7 70v106q0 92 -25.5 123.5t-78.5 31.5q-30 0 -59.5 -23.5t-29.5 -41.5v-177q0 -58 8 -89
q2 -7 26 -13.5t34 -6.5q3 0 4 -12t-1 -17q-100 5 -107 5q-6 0 -109 -5q-4 4 -4 16.5t4 12.5q12 0 35.5 6.5t25.5 13.5q7 29 7 69v434q0 34 -6 64q-5 16 -51 16h-9q-6 0 -6 11q0 16 6 16q30 3 55.5 8t40 10t24.5 9.5t14 7.5l5 3h2q4 0 8 -5.5t5 -10.5q-11 -32 -11 -87v-219
q0 -4 2 -4q1 0 3 2q22 24 62.5 46t77.5 22z" />
    <glyph glyph-name="i" unicode="i" horiz-adv-x="269" 
d="M85 593q0 21 14.5 35.5t35.5 14.5t35.5 -14.5t14.5 -35.5t-14.5 -35.5t-35.5 -14.5t-35.5 14.5t-14.5 35.5zM181 135q0 -58 8 -89q2 -7 26 -13.5t34 -6.5q3 0 4 -12t-1 -17q-100 5 -107 5t-109 -5q-4 4 -4 16.5t4 12.5q12 0 35.5 6.5t25.5 13.5q7 29 7 70v189
q0 39 -14 54q-10 12 -24.5 16.5t-24 4.5t-9.5 2q0 24 6 25q106 16 138 26l2 1h3q4 0 5 -8.5t0 -12.5q-5 -40 -5 -72v-206z" />
    <glyph glyph-name="j" unicode="j" horiz-adv-x="238" 
d="M85 305q0 39 -14 54q-10 12 -24.5 16.5t-24 4.5t-9.5 2q0 24 6 25q106 16 138 26q1 0 3 0.5l2 0.5q4 0 5 -8.5t0 -12.5q-5 -40 -5 -72v-273q0 -127 -39 -188q-25 -39 -63.5 -69t-70.5 -42q-9 6 -13 15q-2 5 0 7l12 6q12 6 27.5 21t31.5 40t27 74t11 113v260zM59 593
q0 21 14.5 35.5t35.5 14.5t35.5 -14.5t14.5 -35.5t-14.5 -35.5t-35.5 -14.5t-35.5 14.5t-14.5 35.5z" />
    <glyph glyph-name="k" unicode="k" horiz-adv-x="496" 
d="M387 368q-17 -10 -65 -47.5t-83 -73.5l71 -78.5l69 -77t37 -38.5q17 -14 43 -21.5t37 -7.5q4 0 4 -16q0 -9 -1 -11q-100 5 -109 5q-2 0 -104 -5q-4 4 -4 15.5t4 11.5q10 0 23 4t13 9q0 2 -1 3l-146 158l-12 -3v-60q2 -66 8 -89q2 -7 26 -13.5t34 -6.5q3 0 4 -12t-1 -17
q-100 5 -107 5q-6 0 -109 -5q-4 4 -4 16.5t4 12.5q12 0 35.5 6.5t25.5 13.5q7 29 7 70v433q0 34 -6 64q-5 16 -51 16h-9q-6 0 -6 11q0 16 6 16q30 3 55.5 8t40 10t24.5 9.5t14 7.5l5 3h2q4 0 8 -5.5t5 -10.5q-11 -32 -11 -87v-350q21 5 25 9l46 39l36 30l23 20t15 16t4 12
q0 12 -22 14t-23 4q-7 20 1 23h79q15 0 31.5 1t39 2t39.5 2q4 -2 4.5 -9t-1.5 -13t-4 -6q-13 0 -37 -6t-32 -11z" />
    <glyph glyph-name="l" unicode="l" horiz-adv-x="251" 
d="M87 116v433q0 34 -6 64q-5 16 -51 16h-9q-6 0 -6 11q0 16 6 16q30 3 55.5 8t40 10t24.5 9.5t15 7.5l4 3h2q4 0 8 -5.5t5 -10.5q-11 -32 -11 -87v-456q0 -58 8 -89q2 -7 26 -13.5t34 -6.5q3 0 4 -12t-1 -17q-100 5 -107 5q-6 0 -109 -5q-4 4 -4 16.5t4 12.5q12 0 35.5 6.5
t25.5 13.5q7 29 7 70z" />
    <glyph glyph-name="m" unicode="m" horiz-adv-x="800" 
d="M320 438q40 0 66.5 -21.5t36.5 -49.5q75 71 155 71q126 0 126 -192v-111q0 -58 8 -89q2 -7 26 -13.5t34 -6.5q3 0 4 -12t-1 -17q-100 5 -107 5q-6 0 -109 -5q-4 4 -4 16.5t4 12.5q12 0 35.5 6.5t25.5 13.5q7 29 7 64v113q0 154 -101 154q-37 0 -64 -21.5t-27 -35.5l1 -4
v-5q4 -25 4 -72v-113q0 -49 8 -80q2 -7 26 -13.5t34 -6.5q3 0 4 -12t-1 -17q-100 5 -107 5q-6 0 -109 -5q-4 4 -4 16.5t4 12.5q12 0 35.5 6.5t25.5 13.5q7 29 7 70v102q0 159 -96 159q-30 0 -60.5 -22.5t-30.5 -43.5v-176q0 -58 8 -89q2 -7 26 -13.5t34 -6.5q3 0 4 -12
t-1 -17q-100 5 -107 5q-6 0 -109 -5q-4 4 -4 16.5t4 12.5q12 0 35.5 6.5t25.5 13.5q7 29 7 70v189q0 39 -14 54q-10 12 -24.5 16.5t-24 4.5t-9.5 2q0 24 6 25q106 16 138 26q1 0 3 0.5l2 0.5q4 0 5 -8.5t0 -12.5q-4 -28 -4 -40q0 -4 2 -4q1 0 3 2q23 24 62.5 45.5t75.5 21.5
z" />
    <glyph glyph-name="n" unicode="n" horiz-adv-x="543" 
d="M322 438q70 0 98 -50t28 -162v-91q0 -58 8 -89q2 -7 26 -13.5t34 -6.5q3 0 4 -12t-1 -17q-100 5 -107 5q-2 0 -105 -5q-4 4 -4 16.5t4 12.5q12 0 33.5 6.5t23.5 13.5q7 29 7 70v100q0 93 -24 127t-78 34q-32 0 -61.5 -23.5t-29.5 -42.5v-176q0 -58 8 -89q2 -7 26 -13.5
t34 -6.5q3 0 4 -12t-1 -17q-100 5 -107 5q-6 0 -109 -5q-4 4 -4 16.5t4 12.5q12 0 35.5 6.5t25.5 13.5q7 29 7 70v189q0 39 -14 54q-10 12 -24.5 16.5t-24 4.5t-9.5 2q0 24 6 25q106 16 138 26q1 0 3 0.5l2 0.5q4 0 5 -8.5t0 -12.5q-4 -28 -4 -40q0 -4 2 -4q1 0 3 2
q23 24 62.5 45.5t75.5 21.5z" />
    <glyph glyph-name="o" unicode="o" horiz-adv-x="510" 
d="M243 398q-53 0 -86.5 -48.5t-33.5 -118.5q0 -82 42.5 -140.5t99.5 -58.5q53 0 87 50t34 120q0 81 -43 138.5t-100 57.5zM254 437q90 0 154 -65t64 -156q0 -92 -62.5 -157.5t-153.5 -65.5t-155 65.5t-64 157.5q0 93 62 157t155 64z" />
    <glyph glyph-name="p" unicode="p" horiz-adv-x="511" 
d="M269 436q96 0 150 -64.5t54 -137.5q0 -96 -67 -169t-152 -73q-15 0 -26.5 1t-20.5 3.5t-14 4.5t-13 5.5t-10 4.5q-4 -5 -4 -13v-86q0 -58 8 -89q2 -7 26 -13.5t34 -6.5q3 0 4 -12.5t-1 -16.5q-100 5 -107 5q-6 0 -109 -5q-4 4 -4 16.5t4 12.5q12 0 35.5 6.5t25.5 13.5
q7 29 7 70v413q0 39 -14 54q-10 12 -24.5 16.5t-24 4.5t-9.5 2q0 24 6 25q106 16 138 26q1 0 3 0.5l2 0.5q3 0 3 -5.5t-1 -13.5t-1 -9v-6q14 10 46.5 22.5t55.5 12.5zM237 387q-31 0 -51 -16.5t-20 -47.5v-225q0 -27 29 -45.5t63 -18.5q59 0 94 53t35 119q0 84 -44.5 132.5
t-105.5 48.5z" />
    <glyph glyph-name="q" unicode="q" horiz-adv-x="489" 
d="M265 440q37 0 72 -5.5t40 -5.5q9 0 22.5 4t15.5 4q3 0 12 -3t9 -7q0 -1 -4 -18t-8 -48t-4 -68v-394q0 -46 8 -77q2 -7 26 -13.5t34 -6.5q3 0 4 -12t-1 -17q-100 5 -107 5q-6 0 -109 -5q-4 4 -4 16.5t4 12.5q12 0 35.5 6.5t25.5 13.5q7 29 7 70v124q0 5 -1.5 8.5t-5.5 1.5
q-60 -30 -96 -30q-87 0 -144.5 63t-57.5 144q0 88 68.5 162.5t158.5 74.5zM248 398q-44 0 -73.5 -31t-40 -67.5t-10.5 -73.5q0 -89 44 -135t107 -46q23 0 45.5 13.5t22.5 46.5v232q0 27 -25 44t-70 17z" />
    <glyph glyph-name="r" unicode="r" horiz-adv-x="380" 
d="M293 437q59 0 78 -29q0 -35 -11 -51t-27 -16q-18 0 -33 17t-41 17q-31 0 -54 -29t-23 -61v-150q0 -58 8 -89q2 -7 26.5 -13.5t34.5 -6.5q3 0 4 -12t-1 -17q-100 5 -108 5q-6 0 -109 -5q-4 4 -4 16.5t4 12.5q12 0 35.5 6.5t25.5 13.5q7 29 7 70v189q0 39 -14 54
q-10 12 -24.5 16.5t-24 4.5t-9.5 2q0 24 6 25q106 16 138 26q1 0 3 0.5l2 0.5q4 0 5 -8.5t0 -12.5l-6 -50q18 27 49.5 50.5t62.5 23.5z" />
    <glyph glyph-name="s" unicode="s" horiz-adv-x="359" 
d="M191 437q22 0 55.5 -5.5l46.5 -7.5q10 -46 12 -102q0 -5 -13 -5q-14 0 -15 7q-5 28 -28.5 53t-53.5 25q-72 0 -72 -59q0 -15 4 -26.5t15.5 -22t17.5 -15t26.5 -16t25.5 -14.5q4 -2 23.5 -13.5l27.5 -16.5t23.5 -17t22.5 -21.5t13.5 -24t6.5 -29.5q0 -59 -46 -98.5
t-108 -39.5q-21 0 -38.5 2.5t-41.5 8.5t-37 8q-6 16 -11.5 50t-5.5 54q8 6 12 6q15 0 16 -6q6 -30 37.5 -58.5t68.5 -28.5q32 0 52.5 17.5t20.5 50.5q0 17 -6.5 31.5t-21 26t-27 19t-35.5 19.5t-34 19q-78 45 -78 107q0 54 43.5 88t101.5 34z" />
    <glyph glyph-name="t" unicode="t" horiz-adv-x="314" 
d="M80 374h-58q-5 0 -5 21q0 6 1 7q29 13 63 53q11 13 21.5 29.5t17.5 28.5t7 13q30 0 30 -5v-99q26 0 79 -0.5t56 -0.5q8 0 8 -9q0 -18 -10 -38h-133v-245q0 -40 20.5 -64t53.5 -24q30 0 62 19q3 2 9 -8.5t5 -11.5q-15 -16 -46 -31.5t-64 -15.5q-50 0 -83.5 33t-33.5 94
v254z" />
    <glyph glyph-name="u" unicode="u" horiz-adv-x="517" 
d="M435 341v-200q0 -43 7 -76q2 -7 11 -11t19 -5t20 -1l9 -1q3 -1 3 -11q0 -3 -2.5 -9.5t-5.5 -6.5q-15 -1 -33.5 -4t-34.5 -7t-30 -8t-22 -7l-9 -2q-8 0 -8 16v51l-2 5q-66 -71 -131 -71q-37 0 -63.5 18.5t-39 49t-17.5 59t-5 59.5v126q0 39 -14 54q-10 12 -24.5 16.5
t-24 4.5t-9.5 2q0 24 6 25q106 16 138 26q1 0 3 0.5l2 0.5q4 0 5 -8.5t0 -12.5q-6 -48 -6 -74v-135q0 -77 23 -113.5t75 -36.5q30 0 57 23.5t27 40.5v187q0 39 -14 54q-10 12 -24.5 16.5t-24 4.5t-9.5 2q0 24 6 25q106 16 138 26q1 0 3 0.5l2 0.5q4 0 5 -8.5t0 -12.5
q-6 -48 -6 -72z" />
    <glyph glyph-name="v" unicode="v" horiz-adv-x="493" 
d="M383 373q0 32 -72 32q-4 0 -4 12.5t4 16.5q11 -1 41 -3t54 -2l100 5q2 -6 2 -15q0 -14 -7 -14q-14 0 -37 -8t-31 -26l-159 -359q-2 -7 -12 -15t-17 -8t-9 4q-17 37 -74.5 172t-100.5 220q-10 20 -59 20q-4 0 -4 13q0 12 4 16q103 -5 104 -5l100 5q2 -4 0.5 -16.5
t-4.5 -12.5q-49 0 -49 -17q0 -2 1 -4l120 -271l101 230q8 19 8 30z" />
    <glyph glyph-name="w" unicode="w" horiz-adv-x="734" 
d="M623 370q0 35 -66 35h-4q-4 0 -4 12.5t4 16.5q15 -1 33.5 -2t34 -2t33.5 -1q17 0 29.5 1t28.5 2l31 2q2 -6 2 -15q0 -14 -5 -14q-13 0 -35 -8.5t-29 -27.5l-131 -358q-8 -22 -28 -22q-10 0 -12 4l-123 294l-101 -276q-1 -3 -4 -7.5t-9.5 -9.5t-13.5 -5q-10 0 -12 4
q-24 54 -54.5 129.5t-57.5 136t-63 124.5q-13 22 -54 22q-4 0 -4 13q0 12 4 16q15 -1 33 -2t33 -2t33 -1l100 5q2 -4 1.5 -16.5t-3.5 -12.5q-50 0 -50 -23q0 -3 12.5 -30l43.5 -93.5l63 -138.5l38 108l29.5 84t8.5 29q0 5 -4.5 16t-9.5 19l-5 9q-6 9 -19 15q-10 5 -32 5
q-4 0 -4 12.5t4 16.5q15 -1 32.5 -2t32 -2t32.5 -1q17 0 31.5 1t33.5 2t33 2q2 -6 2 -17t-3 -12q-48 0 -48 -39q0 -21 110 -246l38 111l33.5 96.5t10.5 42.5z" />
    <glyph glyph-name="x" unicode="x" horiz-adv-x="467" 
d="M13 420q2 10 4 14q97 -5 100 -5q2 0 105 5q1 -4 1 -12q0 -17 -3 -17q-40 0 -40 -17q0 -4 5 -12l65 -101l21 31.5l22.5 33t15.5 26.5t7 21q0 9 -11.5 12.5t-26 4t-16.5 1.5q-3 1 -3 16q0 9 3 13q102 -5 105 -5t91 5q2 -10 2 -14q0 -15 -3 -15q-66 -8 -87 -34l-96 -125
q-2 -3 -2 -7q0 -5 3 -11l107 -158q27 -40 84 -44q3 0 3 -14q0 -10 -4 -15q-93 5 -94 5q-3 0 -111 -5q-2 10 -2 13q0 16 3 16q42 3 42 18q0 2 -2 6l-76 120l-69 -103q-7 -11 -7 -19q0 -18 50 -22h5q3 0 3 -15q0 -10 -4 -14q-97 5 -100 5q-2 0 -97 -5q-2 8 -2 14q0 15 4 15
q67 10 90 42l104 139q0 1 0.5 3t0.5 3q0 2 -2 6l-103 151q-9 13 -37 24t-45 11z" />
    <glyph glyph-name="y" unicode="y" horiz-adv-x="454" 
d="M114 429q17 0 31.5 1t33 2t32.5 2q2 -6 2 -15q0 -14 -4 -14q-8 0 -26.5 -7t-20.5 -14v-2q0 -18 107 -261l76 219q7 21 7 31q0 15 -15.5 24.5t-41.5 9.5q-4 0 -4 13q0 12 4 16l39 -3t50 -2q22 0 48 2l39 3q2 -6 2 -15q0 -14 -4 -14q-13 0 -35.5 -9t-29.5 -29l-179 -483
q-23 -62 -52 -86.5t-53 -24.5q-21 0 -31 13t-10 26q0 22 14 32q83 0 110 86l12 36t11 34l-143 350q-11 24 -20 34q-9 9 -27.5 15t-29.5 6q-4 0 -4 13q0 12 4 16q103 -5 108 -5z" />
    <glyph glyph-name="z" unicode="z" horiz-adv-x="414" 
d="M135 47q0 -7 12 -7h131q42 0 61.5 21t30.5 59q2 11 8 11q22 0 29 -12l-21 -119h-337q-20 12 -20 23q0 3 1 4l257 357l-149 1q-20 0 -33 -9.5t-17.5 -19.5t-9 -25.5t-5.5 -18.5q-3 -6 -24 -6q-11 0 -11 3q0 4 7 47.5t9 73.5q59 -6 95 -6h122q56 0 122 8q3 -5 3 -24
l-254 -347q-7 -10 -7 -14z" />
    <glyph glyph-name="braceleft" unicode="{" horiz-adv-x="324" 
d="M66 292q-3 6 -3 18t4 19q29 7 44.5 13t30.5 22.5t15 41.5t-25 81t-25 88q0 82 46 128.5t113 46.5q4 0 4 -8q0 -19 -11 -21q-29 -2 -64 -33t-35 -75q0 -35 25 -91t25 -99q0 -46 -27.5 -80t-56.5 -35q30 -1 57.5 -33t27.5 -78q0 -43 -25.5 -93.5t-25.5 -85.5
q0 -44 35.5 -78t63.5 -36q11 -2 11 -22q0 -7 -4 -7q-65 0 -111 51.5t-46 128.5q0 30 24 84.5t24 79.5q0 13 -4.5 23t-8.5 16t-17.5 12.5l-17.5 8.5t-22.5 7t-20.5 6z" />
    <glyph glyph-name="bar" unicode="|" horiz-adv-x="264" 
d="M164 -106q0 -5 -26.5 -11t-32.5 -6q-5 0 -5 8v872q-1 6 5 8q24 7 50 7q4 0 6 -1.5t2 -2.5v-2z" />
    <glyph glyph-name="braceright" unicode="}" horiz-adv-x="325" 
d="M258 292q-4 -1 -17.5 -5t-19 -6t-16.5 -6.5t-16 -9t-11 -11t-8.5 -15.5t-2.5 -20q0 -25 24 -79.5t24 -84.5q0 -77 -46 -128.5t-111 -51.5q-4 0 -4 7q0 20 11 22q28 2 63.5 36t35.5 78q0 35 -25.5 85.5t-25.5 93.5q0 46 27.5 78t57.5 33q-29 1 -56.5 35t-27.5 80
q0 43 25 99t25 91q0 44 -35 75t-64 33q-11 2 -11 21q0 8 4 8q67 0 113 -46.5t46 -128.5q0 -32 -25 -88t-25 -81t15 -41.5t30.5 -22.5t44.5 -13q4 -7 4 -19t-3 -18z" />
    <glyph glyph-name="asciitilde" unicode="~" horiz-adv-x="576" 
d="M65 259q-9 5 -9 17q0 21 24 39q31 23 52 31t54 8q47 0 118 -26.5t118 -26.5q7 0 14 1t12 2.5t12 5t10.5 5t11 7l9.5 7l10.5 8t10.5 8.5q9 -5 9 -17q0 -22 -23 -39q-31 -23 -51.5 -31t-53.5 -8q-47 0 -118 26.5t-119 26.5q-18 0 -36 -8t-25.5 -13t-29.5 -23z" />
    <glyph glyph-name="uni00A0" unicode="&#xa0;" horiz-adv-x="162" 
 />
    <glyph glyph-name="exclamdown" unicode="&#xa1;" horiz-adv-x="166" 
d="M80 -224q-22 0 -33.5 18.5t-11.5 44.5q0 10 4.5 53t12 137.5t14.5 207.5q1 15 5 20.5t19 12.5q5 2 8.5 -5t4.5 -17q8 -130 15.5 -225.5t10.5 -129t3 -54.5q0 -25 -14.5 -44t-37.5 -19zM25 373q0 24 16.5 41.5t40.5 17.5t41 -17.5t17 -41.5t-17 -40.5t-41 -16.5
t-40.5 16.5t-16.5 40.5z" />
    <glyph glyph-name="cent" unicode="&#xa2;" horiz-adv-x="464" 
d="M279 474q35 0 35 -8l-83 -511q-35 0 -35 9zM254 435q-85 0 -139.5 -68t-54.5 -156q0 -104 56 -161.5t142 -57.5q79 0 148 75q6 6 6 18q0 3 -1.5 6.5t-2.5 5.5t-2 2t-6.5 -5t-15.5 -11.5t-23 -13.5t-32.5 -12t-39.5 -5q-75 0 -114 55.5t-39 137.5q0 80 33 117.5t75 37.5
q21 0 38.5 -8t25.5 -16.5l23 -25.5q2 -2 5.5 -6.5l5 -6.5t5 -5.5l5 -5t4 -3.5t4.5 -3t4.5 -1.5t5.5 -0.5q36 0 36 63q-15 27 -58.5 40.5t-93.5 13.5z" />
    <glyph glyph-name="sterling" unicode="&#xa3;" horiz-adv-x="473" 
d="M51 319h267q5 0 5 -10q0 -20 -15 -30h-258q-5 0 -5 13q0 18 6 27zM282 635q52 0 77 -37q0 -59 -30 -59q-21 0 -43 27t-43 27q-24 0 -40 -13t-22.5 -37t-8.5 -46t-2 -53q0 -20 4 -101t4 -85q0 -98 -45 -174q23 9 72 9q29 0 84 -16t73 -16q13 0 24.5 9t17.5 18.5t15 26.5
t11 20q6 0 12.5 -5.5t6.5 -12.5t-1 -9q-44 -116 -117 -116q-34 0 -101 18.5t-90 18.5q-35 0 -75 -38q-9 0 -14 6.5t-5 12.5q9 17 25 40l22 32q4 8 7 18.5t4.5 23.5t2.5 24t1.5 27.5t0.5 25v26v22.5q0 9 -4.5 83t-4.5 91q0 94 50.5 153t131.5 59z" />
    <glyph glyph-name="currency" unicode="&#xa4;" horiz-adv-x="468" 
d="M240 152q44 0 72.5 42t28.5 100q0 69 -35.5 119t-82.5 50q-44 0 -73 -43t-29 -101q0 -68 35.5 -117.5t83.5 -49.5zM344 455l59 55q4 4 12.5 -2t17 -18t11.5 -24l-60 -56q29 -48 29 -103q0 -59 -33 -108l54 -58q4 -4 -2 -12.5t-18 -17t-24 -11.5l-52 55q-48 -35 -106 -35
q-64 0 -114 40l-53 -50q-4 -4 -12.5 2t-17 18t-11.5 24l54 51q-30 47 -30 102q0 65 38 116l-52 56q-4 4 2 12.5t18 17t24 11.5l52 -55q45 31 102 31q63 0 112 -41z" />
    <glyph glyph-name="yen" unicode="&#xa5;" horiz-adv-x="658" 
d="M143 636q8 0 125 6q2 -4 1.5 -15.5t-3.5 -11.5q-17 0 -37.5 -8t-20.5 -24q0 -11 10 -29l109 -206q5 -5 10 2q132 200 132 234q0 11 -19 21t-48 10q-4 0 -4 11.5t4 15.5q11 -1 41 -3.5t51 -2.5t138 6q2 -6 2 -15q0 -12 -4 -12q-13 0 -48 -8.5t-45 -20.5l-109.5 -178
t-67.5 -126v-28h92q5 0 5 -13q0 -16 -6 -25h-91v-40h92q5 0 5 -13q0 -16 -6 -25h-91q0 -65 7 -92q2 -7 26 -14.5t33 -7.5q4 0 4 -12q0 -9 -2 -15q-98 5 -108 5q-4 0 -114 -5q-4 4 -4 13q0 14 4 14q12 0 35.5 7t26.5 15q8 31 8 92h-92q-5 0 -5 13q0 16 6 25h91v40h-92
q-5 0 -5 13q0 16 6 25h91q0 14 -1 16q-4 18 -141 262q-18 35 -43 62q-9 9 -30.5 15t-33.5 6q-4 0 -4 11q0 12 4 16q16 -1 52.5 -3.5t63.5 -2.5z" />
    <glyph glyph-name="brokenbar" unicode="&#xa6;" horiz-adv-x="137" 
d="M37 389v364q-1 6 5 8q24 7 49 7q4 0 6 -1.5t2 -2.5v-2l1 -365q-1 0 -2 -2t-3 -3t-7 -2.5t-15 -3.5t-25 -4q-6 -1 -8.5 -0.5t-2.5 2v3.5v2zM37 -115v364q-1 6 5 8q24 7 49 7q4 0 6 -1.5t2 -2.5v-2l1 -364l-2 -2q-3 -3 -6 -4.5t-14.5 -4.5t-29.5 -5q-2 0 -3.5 -0.5
t-2.5 -0.5q-5 0 -5 8z" />
    <glyph glyph-name="section" unicode="&#xa7;" horiz-adv-x="382" 
d="M354 263q0 -82 -59 -123q14 -31 14 -50q0 -38 -14.5 -65t-37.5 -40.5t-46.5 -19.5t-47.5 -6q-66 0 -89 34q0 2 -0.5 7t-0.5 7q0 45 32 45q13 0 40 -26.5t51 -26.5q28 0 44.5 16.5t16.5 46.5q0 37 -24 61t-57.5 39.5t-67.5 33.5t-58 55.5t-24 93.5q0 82 59 124
q-14 24 -14 49q0 64 42 98.5t104 34.5q64 0 88 -36q0 -2 0.5 -6.5t0.5 -6.5q0 -45 -31 -45q-13 0 -40 27t-51 27t-42.5 -16t-18.5 -48q0 -36 24 -60t57.5 -39.5t67.5 -34t58 -56.5t24 -94zM282 173l4 4l4 4l4 4t4 5t3 5.5t3 6t2 6.5t1.5 8t0.5 9q0 39 -25.5 67.5t-58.5 44
t-70.5 41.5t-55.5 57q-26 -21 -26 -52q0 -39 25.5 -67.5t58 -43.5t70.5 -41.5t56 -57.5z" />
    <glyph glyph-name="dieresis" unicode="&#xa8;" horiz-adv-x="333" 
d="M261 566q20 0 34.5 -15t14.5 -35t-15 -34t-35 -14t-35 14.5t-15 34.5t15.5 34.5t35.5 14.5zM78 566q20 0 34.5 -15t14.5 -35t-15 -34t-35 -14t-35 14.5t-15 34.5t15.5 34.5t35.5 14.5z" />
    <glyph glyph-name="copyright" unicode="&#xa9;" horiz-adv-x="603" 
d="M428 276q0 -5 -8 -32.5t-12 -29.5q-47 -19 -106 -19q-61 0 -102 41t-41 100q0 61 40 104t101 43q62 0 112 -19q16 -57 16 -61q0 -9 -16 -9q-3 0 -7 2q-2 10 -9 20t-29.5 21.5t-54.5 11.5q-40 0 -68 -31t-28 -73q0 -56 33 -87t72 -31q51 0 72 19q5 5 8.5 13t4.5 14t2 6
q18 0 20 -3zM28 342q0 113 80 193t193 80t193.5 -80t80.5 -193t-80.5 -193t-193.5 -80t-193 80t-80 193zM61 342q0 -100 70.5 -171t170.5 -71t171 71t71 171t-71 171t-171 71t-170.5 -71t-70.5 -171z" />
    <glyph glyph-name="ordfeminine" unicode="&#xaa;" horiz-adv-x="316" 
d="M181 324v68q-7 -3 -27 -9t-32 -11t-23 -16.5t-11 -27.5q0 -19 11.5 -29t28.5 -10q18 0 35.5 12t17.5 23zM236 318q0 -14 7 -24.5t19 -10.5q6 0 12 3l10 5l3 2q3 -1 3 -3q-2 -7 -4 -17q-32 -23 -48 -23t-30.5 13.5t-19.5 27.5l-8 -7l-19 -14.5t-26.5 -14t-32.5 -6.5
q-32 0 -53 17t-21 51q0 16 8 29.5t18 22t28.5 18t30.5 13.5l33.5 11.5t28.5 9.5q6 1 6 10v58q0 18 -13.5 29t-33.5 11q-21 0 -34.5 -14t-13.5 -37q0 -22 -34 -22q-21 0 -21 11q0 30 42.5 59.5t86.5 29.5q42 0 59 -17.5t17 -54.5v-166z" />
    <glyph glyph-name="guillemotleft" unicode="&#xab;" horiz-adv-x="469" 
d="M294 247l87 -90l20 -19.5l15.5 -15l10.5 -10.5l7.5 -7.5t4.5 -5t2.5 -4.5t0.5 -4q0 -4 -3 -7.5t-6 -5t-8 -3t-6 -2.5q-1 2 -19.5 18.5t-69.5 55t-117 80.5q-7 3 -7 14q0 18 8 27q128 77 206 155q23 -6 23 -19q0 -6 -9 -15.5t-52 -50.5l-47 -48.5zM115 247l87 -90
l20 -19.5l15.5 -15l10.5 -10.5l7.5 -7.5t4.5 -5t2.5 -4.5t0.5 -4q0 -4 -3 -7.5t-6 -5t-8 -3t-6 -2.5q-1 2 -19.5 18.5t-69.5 55t-117 80.5q-7 3 -7 14q0 18 8 27q128 77 206 155q23 -6 23 -19q0 -6 -9 -15.5t-52 -50.5l-47 -48.5z" />
    <glyph glyph-name="logicalnot" unicode="&#xac;" horiz-adv-x="538" 
d="M29 374q5 46 15 46h444q12 0 12 -11v-240q-10 -10 -49 -15h-4q-4 0 -6 2t-1 4v1v193q0 10 -11 10h-394q-6 0 -6 10z" />
    <glyph glyph-name="registered" unicode="&#xae;" horiz-adv-x="604" 
d="M29 407q0 113 80 193t193 80t193.5 -80t80.5 -193t-80.5 -193.5t-193.5 -80.5t-193 80.5t-80 193.5zM62 407q0 -100 70.5 -171t170.5 -71t171 71t71 171t-71 170.5t-171 70.5t-170.5 -70.5t-70.5 -170.5zM456 280q0 -8 -15 -8q-47 0 -72.5 21.5t-75.5 104.5q-5 8 -14 8
q-7 1 -18 0q-2 0 -2 -7v-64q1 -30 4 -41q1 -3 11.5 -6t14.5 -3q1 0 1.5 -5t-0.5 -7q-17 1 -63 1q-30 0 -50 -1q-2 2 -2 7t2 5q5 0 16 3t12 6q3 9 3 25l-1 16v155q1 8 1 16q0 16 -3 25q-1 3 -11.5 6.5t-15.5 3.5q-1 0 -1 5q0 6 1 7q19 -3 48 -3q13 0 37 2t37 2q33 0 63.5 -19
t30.5 -58q0 -42 -48 -63q-1 0 -1 -2q0 -12 70 -105q16 -21 40 -21q1 -2 1 -6zM306 428q14 0 26 13.5t12 32.5q0 55 -50 55q-22 0 -31 -3q-3 0 -3 -3l-1 -37v-45q0 -13 47 -13z" />
    <glyph glyph-name="macron" unicode="&#xaf;" horiz-adv-x="460" 
d="M540 559q0 37 12 37h208q5 0 5 -7q0 -10 -6 -32q-1 -3 -2.5 -4.5l-2.5 -2.5h-2h-206l-4 2q-2 3 -2 7z" />
    <glyph glyph-name="degree" unicode="&#xb0;" horiz-adv-x="233" 
d="M18 536q0 40 29 69t70 29t69.5 -29t28.5 -69q0 -41 -29 -70t-69 -29q-41 0 -70 29.5t-29 69.5zM55 536q0 -26 18.5 -44t43.5 -18t43 18t18 44t-18 43.5t-43 17.5q-26 0 -44 -18t-18 -43z" />
    <glyph glyph-name="plusminus" unicode="&#xb1;" horiz-adv-x="533" 
d="M491 62h2.5t4 -3t1.5 -8q-2 -14 -4 -23t-4 -13t-3 -5.5t-3 -2.5l-2 -1h-448h-2t-3 3.5t-1 9.5q3 22 8 38q1 3 2.5 4t2.5 1h2h447zM295 301v-192q0 -10 -45 -16q-2 0 -3.5 -0.5t-2.5 -0.5q-5 0 -5 8v199q0 5 -6 5h-199q-6 0 -6 10q0 14 8 41q1 3 2.5 4t3.5 1h1h191
q5 0 5 6v190q-1 5 5 7q27 8 41 8l10 -6v-200q0 -5 4 -5h200q8 0 8 -5q0 -8 -10 -45q-1 -3 -2.5 -4.5t-2.5 -1.5h-2h-191q-4 0 -4 -3z" />
    <glyph glyph-name="uni00B2" unicode="&#xb2;" horiz-adv-x="338" 
d="M149 594q-39 0 -73 -41q-2 -2 -7.5 2.5t-10 11.5t-4.5 11t1 5q20 26 55 45t68 19q46 0 78 -31t32 -74q0 -27 -9.5 -51.5t-31.5 -49.5t-38.5 -41t-50 -44l-46.5 -39q-1 -1 -1 -4t2 -3h137q18 0 27 5.5t13 18.5l3 12q1 2 5 3q10 0 14 -6q-4 -10 -21 -89l-125 1l-127 -1
q-12 6 -12 21q0 4 4 12l30.5 33l35.5 38l33 37t32 39.5l24.5 35t18.5 34.5t6 28q0 23 -16.5 42.5t-45.5 19.5z" />
    <glyph glyph-name="uni00B3" unicode="&#xb3;" horiz-adv-x="316" 
d="M174 647q28 0 56 -21.5t28 -56.5q0 -21 -10.5 -37.5t-21.5 -24.5t-34 -23q27 0 61.5 -27.5t34.5 -71.5q0 -63 -54 -100.5t-124 -37.5q-29 0 -53 8.5t-30 17.5v7q0 15 8 26t20 11q15 0 36 -17t38 -17q35 0 61.5 22.5t26.5 65.5q0 35 -18 54t-47 19q-6 0 -52 -6q-9 9 -9 19
q0 8 9 11q40 8 66 29.5t26 56.5q0 19 -15.5 30.5t-36.5 11.5q-19 0 -34.5 -9.5t-25 -19t-13.5 -9.5q-5 0 -10 17t-4 18q44 54 121 54z" />
    <glyph glyph-name="acute" unicode="&#xb4;" horiz-adv-x="460" 
d="M633 687q16 0 26 -5.5t12.5 -10t2.5 -8.5q0 -25 -71.5 -80.5t-84.5 -55.5q-12 0 -12 13q0 3 15.5 28.5t38 58t39.5 51.5q9 9 34 9z" />
    <glyph glyph-name="uni00B5" unicode="&#xb5;" horiz-adv-x="509" 
d="M192 -9q-7 0 -13 1.5t-11.5 5.5t-9 7t-8 10.5t-7 11t-6 13t-4.5 12l-5 13t-4 11.5q0 -1 1.5 -53t6 -115t14.5 -115q-12 -20 -24 -20q-9 0 -31 14t-22 23q0 32 6.5 180t14.5 214q0 12 -2 47.5t-2 46.5v119q12 20 24 20q9 0 31 -14t22 -23q0 -46 -23 -154l-5 -23
q0 -66 13 -112.5t38 -46.5q46 0 82.5 49t59.5 114v71v119q12 20 24 20q9 0 31 -14t22 -23q0 -46 -23 -154l-5 -23q-2 -156 58 -156q17 0 33.5 10t23.5 20q4 0 10 -10q3 -6 3 -11q-10 -33 -36.5 -56.5t-56.5 -23.5q-22 0 -37.5 22t-21 46t-11.5 64q-59 -137 -150 -137z" />
    <glyph glyph-name="paragraph" unicode="&#xb6;" horiz-adv-x="496" 
d="M284 286l2 -237q0 -13 24 -13q7 0 13.5 4.5t6.5 9.5q4 45 4 245q0 4 -4 4q-1 0 -5.5 -1t-13.5 -2.5t-20 -2.5q-7 -1 -7 -7zM217 652q29 0 55 -2t56 -2l113 5q4 -4 4 -16.5t-4 -12.5q-13 0 -35.5 -6t-25.5 -14q-3 -10 -3 -104q0 -36 0.5 -91t0.5 -59q0 -6 5 -4l43 8
q4 -8 4 -13q-2 -20 -20 -25l-26 -7q-5 -3 -5 -5q0 -233 7 -259q3 -8 27.5 -15t36.5 -7q4 0 4 -12q0 -11 -4 -15q-19 1 -72 3.5t-89 2.5q-20 0 -40 -1t-43 -2.5t-36 -2.5q-2 4 -1.5 15.5t3.5 11.5q9 0 34 7.5t27 14.5q5 21 5 138v101q0 7 -20 7q-79 0 -125.5 58t-46.5 120
q0 78 53 130.5t118 52.5zM286 599q-2 -159 -2 -261q0 -6 8 -6l37 6q5 0 5 6q0 230 -2 256q0 3 -8 7t-15 4q-23 0 -23 -12z" />
    <glyph glyph-name="periodcentered" unicode="&#xb7;" horiz-adv-x="203" 
d="M47 264q0 24 17 41t41 17t41 -17t17 -41t-17 -41.5t-41 -17.5t-41 17.5t-17 41.5z" />
    <glyph glyph-name="cedilla" unicode="&#xb8;" horiz-adv-x="460" 
d="M680 -27h25q19 0 31.5 -14.5t12.5 -34.5q0 -34 -27 -55t-67 -21q-21 0 -34 9q0 1 -1.5 5.5t-1.5 8.5q0 5 4.5 9.5t9.5 4.5q6 0 17 -6.5t20 -6.5q20 0 31.5 9.5t11.5 23.5q0 16 -10 25t-21 9q-9 0 -26 -7q-2 0 -6.5 5t-3.5 8l16 24.5t16 26.5h21z" />
    <glyph glyph-name="uni00B9" unicode="&#xb9;" horiz-adv-x="272" 
d="M38 554q-1 0 -3.5 1.5t-4 2t-3 2.5t-2.5 4.5t-1 5.5q0 6 3 8q47 19 84 38t51 28l15 8h2q4 0 12 -23q-9 -42 -9 -81v-208q0 -29 8 -47q2 -5 22.5 -9.5t28.5 -4.5q4 0 4 -16q0 -8 -1 -10q-12 0 -44 1.5t-54 1.5q-23 0 -56 -1.5t-44 -1.5q-4 2 -4 13.5t4 11.5q11 0 32.5 4.5
t23.5 9.5q6 16 6 31v195q0 32 -4.5 41.5t-14.5 9.5q-8 0 -51 -15z" />
    <glyph glyph-name="ordmasculine" unicode="&#xba;" horiz-adv-x="370" 
d="M180 529q-39 0 -60.5 -35.5t-21.5 -82.5q0 -55 25.5 -97.5t71.5 -42.5q38 0 57.5 36.5t19.5 83.5q0 55 -23.5 96.5t-68.5 41.5zM187 554q64 0 109 -46t45 -109t-44.5 -107.5t-109.5 -44.5t-111.5 45t-46.5 107q0 64 46 109.5t112 45.5z" />
    <glyph glyph-name="guillemotright" unicode="&#xbb;" horiz-adv-x="471" 
d="M51 73q-23 6 -23 18q0 2 0.5 4t2.5 5t4.5 5.5l8 8l11 10.5t15 14.5l18.5 18.5l87 90l-41 42.5l-47 48.5q-44 43 -52 51.5t-8 14.5q0 4 3 7.5t6 5l8 4t6 2.5q78 -78 205 -155q9 -10 9 -27q0 -11 -8 -14q-58 -37 -106 -73t-69.5 -54t-29.5 -27zM230 73q-23 6 -23 18
q0 3 1.5 6t6 8t10 10l18 17l25.5 25l87 90l-41 42.5l-47 48.5q-59 57 -60 62q-1 2 -1 4q0 4 3 7.5t6 5l8 4t6 2.5q76 -76 206 -155q8 -9 8 -27q0 -11 -7 -14q-58 -37 -106.5 -73t-70 -54t-29.5 -27z" />
    <glyph glyph-name="onequarter" unicode="&#xbc;" horiz-adv-x="670" 
d="M573 -5q-19 0 -27 1t-10.5 2.5t-2.5 5.5v108q-1 3 -5 3h-149q-12 15 -13 26l196 249q6 8 23 8t17 -8v-227q0 -4 5 -4h27q7 0 9.5 -7.5t2.5 -30.5q0 -2 -1.5 -3.5t-2.5 -1.5l-2 -1l-35 -1q-3 0 -3 -5v-109q-5 -5 -29 -5zM533 163v129q-1 4 -5 4l-55 -69l-48 -61
q-3 -3 2 -7q1 -1 2 -1h98q6 0 6 5zM556 617l-348 -631q0 -2 -4 -2q-19 0 -34 19l-1 7l348 632q2 3 6 3q14 0 30 -17q2 -2 3 -5t0 -5v-1zM37 540q-1 0 -3.5 1.5t-4 2t-3 2.5t-2.5 4.5t-1 5.5q0 6 9.5 9.5t47.5 22t87 50.5h3q3 0 11 -24q-9 -41 -9 -80v-196q0 -29 8 -47
q2 -5 22.5 -10t28.5 -5q5 0 5 -15q0 -8 -1 -10q-13 0 -43 1.5t-52 1.5t-52.5 -1.5t-43.5 -1.5q-4 2 -4 13t4 11q11 0 30.5 5t21.5 10q6 16 6 31v183q0 22 -2.5 33.5t-5.5 14.5t-9 3q-5 0 -48 -15z" />
    <glyph glyph-name="onehalf" unicode="&#xbd;" horiz-adv-x="721" 
d="M630 56q18 0 28.5 10.5t14 21t4.5 10.5q14 0 20 -8q-3 -10 -20 -90h-252q-11 6 -11 22q0 5 3 11q5 6 30.5 33t35.5 38.5l32 36.5t32.5 40l24 35t19 35.5t5.5 27.5q0 23 -16 42t-45 19q-18 0 -39 -11.5t-34 -28.5q-2 -3 -8 -1t-7 5q-8 23 -6 25q20 26 54.5 45t67.5 19
q46 0 78 -31t32 -74q0 -27 -9.5 -51.5t-31.5 -49.5t-38 -40.5t-50 -44t-46 -39.5q-1 -1 -1 -4t2 -3h131zM556 618l-348 -632q0 -2 -4 -2q-19 0 -34 19q-2 2 -2 4v3l1 1l348 632q1 2 5 2t19.5 -8.5t15.5 -14.5q0 -2 -1 -3v-1zM167 638h3q3 0 11 -24q-9 -41 -9 -80v-196
q0 -29 8 -47q2 -5 22.5 -10t28.5 -5q5 0 5 -15q0 -8 -1 -10q-13 0 -43 1.5t-52 1.5t-52.5 -1.5t-43.5 -1.5q-4 2 -4 13t4 11q11 0 30.5 5t21.5 10q6 16 6 31v183q0 22 -2.5 33.5t-5.5 14.5t-9 3q-5 0 -48 -15q-1 0 -3.5 1.5t-4 2t-3 2.5t-2.5 4.5t-1 5.5q0 6 9.5 9.5
t47.5 22t87 50.5z" />
    <glyph glyph-name="threequarters" unicode="&#xbe;" horiz-adv-x="694" 
d="M173 647q28 0 56 -21.5t28 -56.5q0 -21 -11 -37.5t-21.5 -24.5t-34.5 -23q27 0 61.5 -27.5t34.5 -71.5q0 -63 -54 -100.5t-124 -37.5q-29 0 -53 8.5t-30 17.5v7q0 15 8.5 26t20.5 11q14 0 35 -17t38 -17q35 0 62 22.5t27 65.5q0 35 -18.5 54t-47.5 19q-4 0 -51 -6
q-9 9 -9 19q0 8 9 11q40 8 65.5 29.5t25.5 56.5q0 19 -15 30.5t-36 11.5q-19 0 -35 -9.5t-25.5 -19t-13.5 -9.5q-5 0 -9.5 16t-3.5 19q44 54 121 54zM597 -5q-19 0 -27 1t-10.5 2.5t-2.5 5.5v108q-1 3 -5 3h-149q-12 15 -13 26l196 249q6 8 23 8t17 -8v-227q0 -4 5 -4h27
q7 0 9.5 -7.5t2.5 -30.5q0 -2 -1.5 -3.5t-2.5 -1.5l-2 -1l-35 -1q-3 0 -3 -5v-109q-5 -5 -29 -5zM557 163v129q-1 4 -5 4l-55 -69l-48 -61q-3 -3 2 -7q1 -1 2 -1h98q6 0 6 5zM228 -16q-10 0 -23 9t-13 14l1 3l348 632q1 3 5 3q15 0 31 -17q2 -2 3 -5t0 -5v-1l-348 -631
q0 -2 -4 -2z" />
    <glyph glyph-name="questiondown" unicode="&#xbf;" horiz-adv-x="310" 
d="M231 -142q16 0 31.5 -9t15.5 -31q0 -21 -8 -34q-20 -10 -50 -10q-36 0 -80 21t-80 65.5t-36 98.5q0 52 22.5 86.5t78.5 66.5q21 12 47.5 33t30.5 29q10 18 10 69q0 13 20 13q13 0 13 -8q0 -13 0.5 -46.5t0.5 -47.5q0 -12 -1.5 -22.5t-5.5 -20t-6.5 -16.5t-10.5 -15
t-10.5 -12t-13 -11t-12.5 -9t-13.5 -9.5t-12.5 -7.5l-35.5 -23t-25.5 -19.5t-20.5 -24t-5.5 -24.5q0 -43 24 -66t56 -23q30 0 48.5 3.5t28.5 3.5zM284 371q0 -24 -17 -40.5t-41 -16.5t-41 16.5t-17 40.5t17 41.5t41 17.5t41 -17.5t17 -41.5z" />
    <glyph glyph-name="Agrave" unicode="&#xc0;" 
d="M365 660l200 -528q18 -47 29 -72q6 -15 31 -24.5t37 -9.5q4 0 4 -19q0 -4 -2 -10q-100 5 -110 5q-1 0 -116 -5q-4 4 -3.5 16.5t4.5 12.5q12 0 30 5t21 13q2 8 2 16q0 13 -3.5 30.5t-6.5 27.5l-4 11l-41 113q-3 4 -6 4q-39 3 -76 3q-52 0 -127 -5l-5 -3l-43 -110
q-17 -50 -17 -69q0 -14 8 -20q9 -7 29 -11.5t29 -4.5q3 0 3.5 -12t-1.5 -17q-100 5 -103 5q-20 0 -35 -1t-33.5 -2l-35.5 -2q-4 4 -4 15q0 14 4 14q12 0 31 5t26 14q21 27 47 94l174 447q2 5 5.5 16t5.5 16.5t6 14t7 12.5t7.5 9t10 7t12.5 2zM249 299q52 -2 71 -2q44 0 91 3
l3 5l-81 221l-86 -223q0 -4 2 -4zM391 741q0 -13 -10 -13q-19 0 -99 40t-80 63q0 11 13 20.5t39 9.5q12 0 18 -3q27 -20 73 -65t46 -52z" />
    <glyph glyph-name="Aacute" unicode="&#xc1;" 
d="M365 660l200 -528q18 -47 29 -72q6 -15 31 -24.5t37 -9.5q4 0 4 -19q0 -4 -2 -10q-100 5 -110 5q-1 0 -116 -5q-4 4 -3.5 16.5t4.5 12.5q12 0 30 5t21 13q2 8 2 16q0 13 -3.5 30.5t-6.5 27.5l-4 11l-41 113q-3 4 -6 4q-39 3 -76 3q-52 0 -127 -5l-5 -3l-43 -110
q-17 -50 -17 -69q0 -14 8 -20q9 -7 29 -11.5t29 -4.5q3 0 3.5 -12t-1.5 -17q-100 5 -103 5q-20 0 -35 -1t-33.5 -2l-35.5 -2q-4 4 -4 15q0 14 4 14q12 0 31 5t26 14q21 27 47 94l174 447q2 5 5.5 16t5.5 16.5t6 14t7 12.5t7.5 9t10 7t12.5 2zM249 299q52 -2 71 -2q44 0 91 3
l3 5l-81 221l-86 -223q0 -4 2 -4zM301 741q0 7 46 52t73 65q6 3 18 3q26 0 39 -9.5t13 -20.5q0 -23 -80 -63t-99 -40q-10 0 -10 13z" />
    <glyph glyph-name="Acircumflex" unicode="&#xc2;" 
d="M365 660l200 -528q18 -47 29 -72q6 -15 31 -24.5t37 -9.5q4 0 4 -19q0 -4 -2 -10q-100 5 -110 5q-1 0 -116 -5q-4 4 -3.5 16.5t4.5 12.5q12 0 30 5t21 13q2 8 2 16q0 13 -3.5 30.5t-6.5 27.5l-4 11l-41 113q-3 4 -6 4q-39 3 -76 3q-52 0 -127 -5l-5 -3l-43 -110
q-17 -50 -17 -69q0 -14 8 -20q9 -7 29 -11.5t29 -4.5q3 0 3.5 -12t-1.5 -17q-100 5 -103 5q-20 0 -35 -1t-33.5 -2l-35.5 -2q-4 4 -4 15q0 14 4 14q12 0 31 5t26 14q21 27 47 94l174 447q2 5 5.5 16t5.5 16.5t6 14t7 12.5t7.5 9t10 7t12.5 2zM249 299q52 -2 71 -2q44 0 91 3
l3 5l-81 221l-86 -223q0 -4 2 -4zM460 698q-19 0 -105 58q-24 -18 -59 -38t-44 -20q-10 0 -10 20q4 4 25.5 23.5l35.5 32.5q28 26 42 46q7 8 10 8q6 0 11 -8q21 -28 41 -48l28.5 -25.5t24.5 -20.5t9 -8q0 -20 -9 -20z" />
    <glyph glyph-name="Atilde" unicode="&#xc3;" 
d="M434 766q36 0 51 34q2 1 6 1q9 0 9 -16q0 -28 -27.5 -49t-50.5 -21q-29 0 -71 21.5t-69 21.5q-33 0 -49 -35q-2 -1 -6 -1q-9 0 -9 16q0 28 27.5 49t50.5 21q28 0 69 -21t69 -21zM365 660l200 -528q18 -47 29 -72q6 -15 31 -24.5t37 -9.5q4 0 4 -19q0 -4 -2 -10
q-100 5 -110 5q-1 0 -116 -5q-4 4 -3.5 16.5t4.5 12.5q12 0 30 5t21 13q2 8 2 16q0 13 -3.5 30.5t-6.5 27.5l-4 11l-41 113q-3 4 -6 4q-39 3 -76 3q-52 0 -127 -5l-5 -3l-43 -110q-17 -50 -17 -69q0 -14 8 -20q9 -7 29 -11.5t29 -4.5q3 0 3.5 -12t-1.5 -17q-100 5 -103 5
q-20 0 -35 -1t-33.5 -2l-35.5 -2q-4 4 -4 15q0 14 4 14q12 0 31 5t26 14q21 27 47 94l174 447q2 5 5.5 16t5.5 16.5t6 14t7 12.5t7.5 9t10 7t12.5 2zM249 299q52 -2 71 -2q44 0 91 3l3 5l-81 221l-86 -223q0 -4 2 -4z" />
    <glyph glyph-name="Adieresis" unicode="&#xc4;" 
d="M365 660l200 -528q18 -47 29 -72q6 -15 31 -24.5t37 -9.5q4 0 4 -19q0 -4 -2 -10q-100 5 -110 5q-1 0 -116 -5q-4 4 -3.5 16.5t4.5 12.5q12 0 30 5t21 13q2 8 2 16q0 13 -3.5 30.5t-6.5 27.5l-4 11l-41 113q-3 4 -6 4q-39 3 -76 3q-52 0 -127 -5l-5 -3l-43 -110
q-17 -50 -17 -69q0 -14 8 -20q9 -7 29 -11.5t29 -4.5q3 0 3.5 -12t-1.5 -17q-100 5 -103 5q-20 0 -35 -1t-33.5 -2l-35.5 -2q-4 4 -4 15q0 14 4 14q12 0 31 5t26 14q21 27 47 94l174 447q2 5 5.5 16t5.5 16.5t6 14t7 12.5t7.5 9t10 7t12.5 2zM249 299q52 -2 71 -2q44 0 91 3
l3 5l-81 221l-86 -223q0 -4 2 -4zM398 778q0 21 14.5 35.5t35.5 14.5t35.5 -14.5t14.5 -35.5t-14.5 -35.5t-35.5 -14.5t-35.5 14.5t-14.5 35.5zM217 778q0 21 14.5 35.5t35.5 14.5t35.5 -14.5t14.5 -35.5t-14.5 -35.5t-35.5 -14.5t-35.5 14.5t-14.5 35.5z" />
    <glyph glyph-name="Aring" unicode="&#xc5;" 
d="M403 660l200 -528q18 -47 29 -72q6 -15 31 -24.5t37 -9.5q4 0 4 -19q0 -4 -2 -10q-100 5 -110 5q-1 0 -116 -5q-4 4 -3.5 16.5t4.5 12.5q12 0 30 5t21 13q2 8 2 16q0 13 -3.5 30.5t-6.5 27.5l-4 11l-41 113q-3 4 -6 4q-39 3 -76 3q-52 0 -127 -5l-5 -3l-43 -110
q-17 -50 -17 -69q0 -14 8 -20q9 -7 29 -11.5t29 -4.5q3 0 3.5 -12t-1.5 -17q-100 5 -103 5q-20 0 -35 -1t-33.5 -2l-35.5 -2q-4 4 -4 15q0 14 4 14q12 0 31 5t26 14q21 27 47 94l174 447q2 5 5.5 16t5.5 16.5t6 14t7 12.5t7.5 9t10 7t12.5 2zM287 299q52 -2 71 -2q44 0 91 3
l3 5l-81 221l-86 -223q0 -4 2 -4zM337 752q0 -23 16.5 -39.5t39.5 -16.5q22 0 38 16.5t16 39.5t-15.5 39t-38.5 16t-39.5 -16t-16.5 -39zM304 752q0 37 26.5 63t62.5 26t61.5 -26t25.5 -63t-25.5 -63.5t-61.5 -26.5t-62.5 26.5t-26.5 63.5z" />
    <glyph glyph-name="AE" unicode="&#xc6;" horiz-adv-x="982" 
d="M485 297q12 0 12 11v215q0 8 -9 8q-4 0 -9 -7l-137 -223q-1 -4 1 -4q52 -2 70 -2q20 0 72 2zM408 247q-22 0 -99 -5l-5 -3l-69 -110q-29 -50 -33 -69q-3 -13 4 -20q14 -14 54 -14q2 0 -0.5 -12t-4.5 -17q-60 3 -102 3q-36 0 -105 -3q-2 2 0 13q3 16 7 16q44 0 61 17
q27 25 69 94l277 447q7 12 7 20q0 12 -16 18.5t-29 6.5q-4 0 -4 14q0 11 4 15q49 -2 116 -2q44 0 155 4t168 4q4 -29 15.5 -76.5t13.5 -59.5q-5 -5 -18 -5t-14 7q-15 55 -42 70.5t-74 15.5h-67q-86 0 -88 -13q-5 -24 -5 -84v-160q0 -6 43 -6h53h40.5t26.5 4t18 5t10.5 13
t7.5 17.5t7 28.5q1 7 15 7q12 0 17 -5v-189q-4 -4 -16 -4q-13 0 -16 8q-7 27 -12 40.5t-7.5 16t-8.5 6.5q-13 8 -106 8q-72 0 -72 -9v-155q0 -65 9 -91q3 -10 68 -10h48q93 0 126 17q15 8 33.5 35.5t29.5 65.5q2 6 14 6q19 0 25 -6l-15.5 -41.5l-16.5 -46t-13 -40.5t-9 -38
q-57 0 -177.5 3t-163.5 3l-118 -5q-4 4 -4 15q0 14 4 14q12 0 37.5 7.5t28.5 15.5q7 27 7 86v98q0 8 -13 11q-21 3 -76 3z" />
    <glyph glyph-name="Ccedilla" unicode="&#xc7;" horiz-adv-x="656" 
d="M634 183q0 -11 -14 -76.5t-20 -68.5q-73 -44 -239 -44q-132 0 -224.5 97t-92.5 231q0 142 95 243.5t233 101.5q118 0 243 -25q-2 -134 -2 -144q0 -15 -21 -15q-10 0 -13 5q-3 13 -7.5 26.5t-19 35t-35 37t-58 27t-84.5 11.5q-98 0 -167 -86.5t-69 -195.5q0 -81 28 -149
t88.5 -112.5t143.5 -44.5q99 0 153 58q14 15 24.5 39.5t16 41t8.5 16.5q6 0 14.5 -2t13.5 -4zM371 -27h30q23 0 37.5 -17t14.5 -41q0 -40 -32 -64.5t-79 -24.5q-26 0 -40 10q0 2 -2 7.5t-2 9.5q0 6 5.5 11t11.5 5t19.5 -7.5t23.5 -7.5q24 0 37.5 11.5t13.5 27.5
q0 19 -11.5 29.5t-24.5 10.5q-12 0 -31 -8q-2 0 -7.5 6t-4.5 9q3 5 18 27.5t20 32.5h25z" />
    <glyph glyph-name="Egrave" unicode="&#xc8;" horiz-adv-x="571" 
d="M152 656q45 0 156 4t167 4q4 -29 15.5 -76.5t13.5 -59.5q-5 -5 -18 -5t-14 7q-15 55 -42 70.5t-74 15.5h-67q-86 0 -88 -13q-5 -24 -5 -84v-160q0 -6 43 -6h53h40.5t26.5 4t18 5t10.5 13t7.5 17.5t7 28.5q1 7 15 7q12 0 17 -5v-189q-4 -4 -16 -4q-13 0 -16 8
q-7 27 -12 40.5t-7.5 16t-8.5 6.5q-13 8 -106 8q-72 0 -72 -9v-155q0 -65 9 -91q3 -10 68 -10h48q93 0 126 17q15 8 33.5 35.5t29.5 65.5q2 6 14 6q19 0 25 -6l-15.5 -41.5l-16.5 -46t-13 -40.5t-9 -38q-51 0 -161 2t-180 2l-121 -3q-3 3 -3 16t3 13q13 0 38.5 7t30.5 16
q7 12 7 94v378q0 59 -7 86q-3 8 -29.5 15t-39.5 7q-4 0 -4 12q0 13 4 17q52 -2 119 -2zM335 741q0 -13 -10 -13q-19 0 -99 40t-80 63q0 11 13 20.5t39 9.5q12 0 18 -3q27 -20 73 -65t46 -52z" />
    <glyph glyph-name="Eacute" unicode="&#xc9;" horiz-adv-x="571" 
d="M152 656q45 0 156 4t167 4q4 -29 15.5 -76.5t13.5 -59.5q-5 -5 -18 -5t-14 7q-15 55 -42 70.5t-74 15.5h-67q-86 0 -88 -13q-5 -24 -5 -84v-160q0 -6 43 -6h53h40.5t26.5 4t18 5t10.5 13t7.5 17.5t7 28.5q1 7 15 7q12 0 17 -5v-189q-4 -4 -16 -4q-13 0 -16 8
q-7 27 -12 40.5t-7.5 16t-8.5 6.5q-13 8 -106 8q-72 0 -72 -9v-155q0 -65 9 -91q3 -10 68 -10h48q93 0 126 17q15 8 33.5 35.5t29.5 65.5q2 6 14 6q19 0 25 -6l-15.5 -41.5l-16.5 -46t-13 -40.5t-9 -38q-51 0 -161 2t-180 2l-121 -3q-3 3 -3 16t3 13q13 0 38.5 7t30.5 16
q7 12 7 94v378q0 59 -7 86q-3 8 -29.5 15t-39.5 7q-4 0 -4 12q0 13 4 17q52 -2 119 -2zM244 741q0 7 46 52t73 65q6 3 18 3q26 0 39 -9.5t13 -20.5q0 -23 -80 -63t-99 -40q-10 0 -10 13z" />
    <glyph glyph-name="Ecircumflex" unicode="&#xca;" horiz-adv-x="571" 
d="M152 656q45 0 156 4t167 4q4 -29 15.5 -76.5t13.5 -59.5q-5 -5 -18 -5t-14 7q-15 55 -42 70.5t-74 15.5h-67q-86 0 -88 -13q-5 -24 -5 -84v-160q0 -6 43 -6h53h40.5t26.5 4t18 5t10.5 13t7.5 17.5t7 28.5q1 7 15 7q12 0 17 -5v-189q-4 -4 -16 -4q-13 0 -16 8
q-7 27 -12 40.5t-7.5 16t-8.5 6.5q-13 8 -106 8q-72 0 -72 -9v-155q0 -65 9 -91q3 -10 68 -10h48q93 0 126 17q15 8 33.5 35.5t29.5 65.5q2 6 14 6q19 0 25 -6l-15.5 -41.5l-16.5 -46t-13 -40.5t-9 -38q-51 0 -161 2t-180 2l-121 -3q-3 3 -3 16t3 13q13 0 38.5 7t30.5 16
q7 12 7 94v378q0 59 -7 86q-3 8 -29.5 15t-39.5 7q-4 0 -4 12q0 13 4 17q52 -2 119 -2zM388 698q-19 0 -105 58q-24 -18 -59 -38t-44 -20q-10 0 -10 20q4 4 25.5 23.5l35.5 32.5q28 26 42 46q7 8 10 8q6 0 11 -8q21 -28 41 -48l28.5 -25.5t24.5 -20.5t9 -8q0 -20 -9 -20z
" />
    <glyph glyph-name="Edieresis" unicode="&#xcb;" horiz-adv-x="571" 
d="M152 656q45 0 156 4t167 4q4 -29 15.5 -76.5t13.5 -59.5q-5 -5 -18 -5t-14 7q-15 55 -42 70.5t-74 15.5h-67q-86 0 -88 -13q-5 -24 -5 -84v-160q0 -6 43 -6h53h40.5t26.5 4t18 5t10.5 13t7.5 17.5t7 28.5q1 7 15 7q12 0 17 -5v-189q-4 -4 -16 -4q-13 0 -16 8
q-7 27 -12 40.5t-7.5 16t-8.5 6.5q-13 8 -106 8q-72 0 -72 -9v-155q0 -65 9 -91q3 -10 68 -10h48q93 0 126 17q15 8 33.5 35.5t29.5 65.5q2 6 14 6q19 0 25 -6l-15.5 -41.5l-16.5 -46t-13 -40.5t-9 -38q-51 0 -161 2t-180 2l-121 -3q-3 3 -3 16t3 13q13 0 38.5 7t30.5 16
q7 12 7 94v378q0 59 -7 86q-3 8 -29.5 15t-39.5 7q-4 0 -4 12q0 13 4 17q52 -2 119 -2zM325 778q0 21 14.5 35.5t35.5 14.5t35.5 -14.5t14.5 -35.5t-14.5 -35.5t-35.5 -14.5t-35.5 14.5t-14.5 35.5zM144 778q0 21 14.5 35.5t35.5 14.5t35.5 -14.5t14.5 -35.5t-14.5 -35.5
t-35.5 -14.5t-35.5 14.5t-14.5 35.5z" />
    <glyph glyph-name="Igrave" unicode="&#xcc;" horiz-adv-x="318" 
d="M116 523q0 62 -7 89q-3 8 -28.5 14.5t-38.5 6.5q-4 0 -4 13q0 12 4 16q115 -5 120 -5q16 0 116 5q2 -6 2 -15q0 -14 -4 -14q-10 0 -36 -7t-28 -14q-9 -35 -9 -93v-380q0 -58 9 -93q2 -7 28 -13.5t36 -6.5q4 0 4 -15q0 -8 -2 -14q-100 5 -116 5q-5 0 -120 -5q-4 4 -4 15
q0 14 4 14q13 0 38.5 6t28.5 14q7 27 7 89v388zM225 741q0 -13 -10 -13q-19 0 -99 40t-80 63q0 11 13 20.5t39 9.5q12 0 18 -3q27 -20 73 -65t46 -52z" />
    <glyph glyph-name="Iacute" unicode="&#xcd;" horiz-adv-x="318" 
d="M116 523q0 62 -7 89q-3 8 -28.5 14.5t-38.5 6.5q-4 0 -4 13q0 12 4 16q115 -5 120 -5q16 0 116 5q2 -6 2 -15q0 -14 -4 -14q-10 0 -36 -7t-28 -14q-9 -35 -9 -93v-380q0 -58 9 -93q2 -7 28 -13.5t36 -6.5q4 0 4 -15q0 -8 -2 -14q-100 5 -116 5q-5 0 -120 -5q-4 4 -4 15
q0 14 4 14q13 0 38.5 6t28.5 14q7 27 7 89v388zM111 741q0 7 46 52t73 65q6 3 18 3q26 0 39 -9.5t13 -20.5q0 -23 -80 -63t-99 -40q-10 0 -10 13z" />
    <glyph glyph-name="Icircumflex" unicode="&#xce;" horiz-adv-x="318" 
d="M116 523q0 62 -7 89q-3 8 -28.5 14.5t-38.5 6.5q-4 0 -4 13q0 12 4 16q115 -5 120 -5q16 0 116 5q2 -6 2 -15q0 -14 -4 -14q-10 0 -36 -7t-28 -14q-9 -35 -9 -93v-380q0 -58 9 -93q2 -7 28 -13.5t36 -6.5q4 0 4 -15q0 -8 -2 -14q-100 5 -116 5q-5 0 -120 -5q-4 4 -4 15
q0 14 4 14q13 0 38.5 6t28.5 14q7 27 7 89v388zM270 705q-19 0 -105 58q-24 -18 -59 -38t-44 -20q-10 0 -10 20q4 4 25.5 23.5l35.5 32.5q28 26 42 46q7 8 10 8q6 0 11 -8q21 -28 41 -48l28.5 -25.5t24.5 -20.5t9 -8q0 -20 -9 -20z" />
    <glyph glyph-name="Idieresis" unicode="&#xcf;" horiz-adv-x="318" 
d="M116 523q0 62 -7 89q-3 8 -28.5 14.5t-38.5 6.5q-4 0 -4 13q0 12 4 16q115 -5 120 -5q16 0 116 5q2 -6 2 -15q0 -14 -4 -14q-10 0 -36 -7t-28 -14q-9 -35 -9 -93v-380q0 -58 9 -93q2 -7 28 -13.5t36 -6.5q4 0 4 -15q0 -8 -2 -14q-100 5 -116 5q-5 0 -120 -5q-4 4 -4 15
q0 14 4 14q13 0 38.5 6t28.5 14q7 27 7 89v388zM205 778q0 21 14.5 35.5t35.5 14.5t35.5 -14.5t14.5 -35.5t-14.5 -35.5t-35.5 -14.5t-35.5 14.5t-14.5 35.5zM24 778q0 21 14.5 35.5t35.5 14.5t35.5 -14.5t14.5 -35.5t-14.5 -35.5t-35.5 -14.5t-35.5 14.5t-14.5 35.5z" />
    <glyph glyph-name="Eth" unicode="&#xd0;" horiz-adv-x="731" 
d="M71 348h345q6 0 6 -10q0 -16 -6 -30h-346q-5 0 -5 13q0 18 6 27zM174 656q36 0 95.5 1t78.5 1q163 0 254 -96t91 -226q0 -145 -92 -242t-254 -97q-12 0 -72.5 2t-98.5 1l-121 -3q-3 3 -3 15q0 14 3 14q13 0 38.5 7t30.5 16q7 12 7 94v378q0 59 -7 86q-3 8 -29.5 15
t-39.5 7q-4 0 -4 12q0 13 4 17q52 -2 119 -2zM218 535v-396q0 -42 15 -76q4 -10 53.5 -15t76.5 -5q115 0 174.5 75.5t59.5 221.5q0 113 -62.5 193.5t-178.5 80.5h-5q-108 0 -120 -16q-13 -18 -13 -63z" />
    <glyph glyph-name="Ntilde" unicode="&#xd1;" horiz-adv-x="721" 
d="M434 766q36 0 51 34q2 1 6 1q9 0 9 -16q0 -28 -27.5 -49t-50.5 -21q-29 0 -71 21.5t-69 21.5q-33 0 -49 -35q-2 -1 -6 -1q-9 0 -9 16q0 28 27.5 49t50.5 21q28 0 69 -21t69 -21zM551 524q0 61 -7 88q-3 8 -34.5 15.5t-44.5 7.5q-4 0 -4 11.5t4 15.5q13 -1 52 -3.5
t66 -2.5q26 0 65.5 3t46.5 3q2 -6 2 -15q0 -12 -4 -12q-10 0 -43.5 -8t-35.5 -15q-8 -31 -8 -93v-380q0 -62 3 -140q-4 -4 -19 -4q-17 0 -33 23l-388 550v-427q0 -66 7 -93q2 -7 33.5 -14.5t41.5 -7.5q3 0 3.5 -12t-1.5 -17q-100 5 -115 5l-115 -5q-3 3 -3 15q0 14 3 14
q14 0 45.5 7.5t34.5 16.5q10 26 10 94v393q0 49 -7 75q-3 8 -34 14.5t-45 6.5q-4 0 -4 12.5t4 16.5q78 -2 102 -2q52 0 80 2q37 -68 339 -490q3 17 3 41v311z" />
    <glyph glyph-name="Ograve" unicode="&#xd2;" horiz-adv-x="728" 
d="M348 625q-95 0 -150 -83t-55 -192q0 -80 26 -151t81 -118.5t129 -47.5q64 0 112 41.5t70.5 103t22.5 131.5q0 80 -26 150.5t-81 118t-129 47.5zM44 328q0 140 93.5 239.5t225.5 99.5t226 -99.5t94 -239.5t-94 -239t-226 -99t-225.5 99t-93.5 239zM416 741q0 -13 -10 -13
q-19 0 -99 40t-80 63q0 11 13 20.5t39 9.5q12 0 18 -3q27 -20 73 -65t46 -52z" />
    <glyph glyph-name="Oacute" unicode="&#xd3;" horiz-adv-x="728" 
d="M348 625q-95 0 -150 -83t-55 -192q0 -80 26 -151t81 -118.5t129 -47.5q64 0 112 41.5t70.5 103t22.5 131.5q0 80 -26 150.5t-81 118t-129 47.5zM44 328q0 140 93.5 239.5t225.5 99.5t226 -99.5t94 -239.5t-94 -239t-226 -99t-225.5 99t-93.5 239zM306 741q0 7 46 52
t73 65q6 3 18 3q26 0 39 -9.5t13 -20.5q0 -23 -80 -63t-99 -40q-10 0 -10 13z" />
    <glyph glyph-name="Ocircumflex" unicode="&#xd4;" horiz-adv-x="728" 
d="M348 625q-95 0 -150 -83t-55 -192q0 -80 26 -151t81 -118.5t129 -47.5q64 0 112 41.5t70.5 103t22.5 131.5q0 80 -26 150.5t-81 118t-129 47.5zM44 328q0 140 93.5 239.5t225.5 99.5t226 -99.5t94 -239.5t-94 -239t-226 -99t-225.5 99t-93.5 239zM473 698q-19 0 -105 58
q-24 -18 -59 -38t-44 -20q-10 0 -10 20q4 4 25.5 23.5l35.5 32.5q28 26 42 46q7 8 10 8q6 0 11 -8q21 -28 41 -48l28.5 -25.5t24.5 -20.5t9 -8q0 -20 -9 -20z" />
    <glyph glyph-name="Otilde" unicode="&#xd5;" horiz-adv-x="728" 
d="M348 625q-95 0 -150 -83t-55 -192q0 -80 26 -151t81 -118.5t129 -47.5q64 0 112 41.5t70.5 103t22.5 131.5q0 80 -26 150.5t-81 118t-129 47.5zM44 328q0 140 93.5 239.5t225.5 99.5t226 -99.5t94 -239.5t-94 -239t-226 -99t-225.5 99t-93.5 239zM434 766q36 0 51 34
q2 1 6 1q9 0 9 -16q0 -28 -27.5 -49t-50.5 -21q-29 0 -71 21.5t-69 21.5q-33 0 -49 -35q-2 -1 -6 -1q-9 0 -9 16q0 28 27.5 49t50.5 21q28 0 69 -21t69 -21z" />
    <glyph glyph-name="Odieresis" unicode="&#xd6;" horiz-adv-x="728" 
d="M348 625q-95 0 -150 -83t-55 -192q0 -80 26 -151t81 -118.5t129 -47.5q64 0 112 41.5t70.5 103t22.5 131.5q0 80 -26 150.5t-81 118t-129 47.5zM44 328q0 140 93.5 239.5t225.5 99.5t226 -99.5t94 -239.5t-94 -239t-226 -99t-225.5 99t-93.5 239zM409 778q0 21 14.5 35.5
t35.5 14.5t35.5 -14.5t14.5 -35.5t-14.5 -35.5t-35.5 -14.5t-35.5 14.5t-14.5 35.5zM228 778q0 21 14.5 35.5t35.5 14.5t35.5 -14.5t14.5 -35.5t-14.5 -35.5t-35.5 -14.5t-35.5 14.5t-14.5 35.5z" />
    <glyph glyph-name="multiply" unicode="&#xd7;" horiz-adv-x="414" 
d="M56 60q-5 0 -17 20t-12 28l138 135q1 1 1 3q0 3 -2 5l-137 137q0 10 13 28.5t18 18.5q1 0 5 -4l142 -141q2 -2 4 -2l2 1l141 141q3 3 5 3q5 0 17 -20.5t12 -28.5l-135 -135q-1 -1 -1 -3v-2l136 -136q0 -11 -10 -29.5t-16 -18.5q-5 0 -8 3l-140 140q-2 2 -4 2t-4 -2
l-143 -140q-3 -3 -5 -3z" />
    <glyph glyph-name="Oslash" unicode="&#xd8;" horiz-adv-x="696" 
d="M332 625q-95 0 -150 -83t-55 -192q0 -80 26 -151t81 -118.5t129 -47.5q64 0 112 41.5t70.5 103t22.5 131.5q0 80 -26 150.5t-81 118t-129 47.5zM540 667q8 -2 20 -10t9 -12l-418 -658q-9 3 -20.5 11t-8.5 12zM347 667q132 0 226 -99.5t94 -239.5t-94 -239t-226 -99
t-225.5 99t-93.5 239t93.5 239.5t225.5 99.5z" />
    <glyph glyph-name="Ugrave" unicode="&#xd9;" horiz-adv-x="719" 
d="M157 657q16 0 116 5q2 -6 2 -14q0 -15 -4 -15q-10 0 -36 -7t-28 -14q-9 -35 -9 -93v-223q0 -113 48 -180t136 -67q171 0 171 225v250q0 61 -7 88q-3 8 -34.5 15.5t-44.5 7.5q-4 0 -4 11.5t4 15.5q13 -1 52 -3.5t66 -2.5q26 0 65.5 3t46.5 3q2 -6 2 -15q0 -12 -4 -12
q-10 0 -43.5 -8t-35.5 -15q-8 -31 -8 -93v-243q0 -155 -65 -215.5t-185 -60.5q-119 0 -183 70t-64 226v227q0 62 -7 89q-3 8 -28.5 14.5t-38.5 6.5q-4 0 -4 13q0 12 4 16q115 -5 120 -5zM423 741q0 -13 -10 -13q-19 0 -99 40t-80 63q0 11 13 20.5t39 9.5q12 0 18 -3
q27 -20 73 -65t46 -52z" />
    <glyph glyph-name="Uacute" unicode="&#xda;" horiz-adv-x="719" 
d="M157 657q16 0 116 5q2 -6 2 -14q0 -15 -4 -15q-10 0 -36 -7t-28 -14q-9 -35 -9 -93v-223q0 -113 48 -180t136 -67q171 0 171 225v250q0 61 -7 88q-3 8 -34.5 15.5t-44.5 7.5q-4 0 -4 11.5t4 15.5q13 -1 52 -3.5t66 -2.5q26 0 65.5 3t46.5 3q2 -6 2 -15q0 -12 -4 -12
q-10 0 -43.5 -8t-35.5 -15q-8 -31 -8 -93v-243q0 -155 -65 -215.5t-185 -60.5q-119 0 -183 70t-64 226v227q0 62 -7 89q-3 8 -28.5 14.5t-38.5 6.5q-4 0 -4 13q0 12 4 16q115 -5 120 -5zM307 741q0 7 46 52t73 65q6 3 18 3q26 0 39 -9.5t13 -20.5q0 -23 -80 -63t-99 -40
q-10 0 -10 13z" />
    <glyph glyph-name="Ucircumflex" unicode="&#xdb;" horiz-adv-x="719" 
d="M157 657q16 0 116 5q2 -6 2 -14q0 -15 -4 -15q-10 0 -36 -7t-28 -14q-9 -35 -9 -93v-223q0 -113 48 -180t136 -67q171 0 171 225v250q0 61 -7 88q-3 8 -34.5 15.5t-44.5 7.5q-4 0 -4 11.5t4 15.5q13 -1 52 -3.5t66 -2.5q26 0 65.5 3t46.5 3q2 -6 2 -15q0 -12 -4 -12
q-10 0 -43.5 -8t-35.5 -15q-8 -31 -8 -93v-243q0 -155 -65 -215.5t-185 -60.5q-119 0 -183 70t-64 226v227q0 62 -7 89q-3 8 -28.5 14.5t-38.5 6.5q-4 0 -4 13q0 12 4 16q115 -5 120 -5zM477 698q-19 0 -105 58q-24 -18 -59 -38t-44 -20q-10 0 -10 20q4 4 25.5 23.5
l35.5 32.5q28 26 42 46q7 8 10 8q6 0 11 -8q21 -28 41 -48l28.5 -25.5t24.5 -20.5t9 -8q0 -20 -9 -20z" />
    <glyph glyph-name="Udieresis" unicode="&#xdc;" horiz-adv-x="719" 
d="M157 657q16 0 116 5q2 -6 2 -14q0 -15 -4 -15q-10 0 -36 -7t-28 -14q-9 -35 -9 -93v-223q0 -113 48 -180t136 -67q171 0 171 225v250q0 61 -7 88q-3 8 -34.5 15.5t-44.5 7.5q-4 0 -4 11.5t4 15.5q13 -1 52 -3.5t66 -2.5q26 0 65.5 3t46.5 3q2 -6 2 -15q0 -12 -4 -12
q-10 0 -43.5 -8t-35.5 -15q-8 -31 -8 -93v-243q0 -155 -65 -215.5t-185 -60.5q-119 0 -183 70t-64 226v227q0 62 -7 89q-3 8 -28.5 14.5t-38.5 6.5q-4 0 -4 13q0 12 4 16q115 -5 120 -5zM412 778q0 21 14.5 35.5t35.5 14.5t35.5 -14.5t14.5 -35.5t-14.5 -35.5t-35.5 -14.5
t-35.5 14.5t-14.5 35.5zM231 778q0 21 14.5 35.5t35.5 14.5t35.5 -14.5t14.5 -35.5t-14.5 -35.5t-35.5 -14.5t-35.5 14.5t-14.5 35.5z" />
    <glyph glyph-name="Yacute" unicode="&#xdd;" horiz-adv-x="649" 
d="M139 656q12 0 132 6q2 -4 1.5 -15.5t-3.5 -11.5q-17 0 -38.5 -8.5t-21.5 -25.5q0 -11 11 -30l112 -212q5 -5 10 2q136 206 136 241q0 11 -20 22t-49 11q-4 0 -4 11.5t4 15.5q111 -6 118 -6q31 0 64 3t42 3q2 -6 2 -15q0 -12 -4 -12q-12 0 -42 -9t-40 -22l-110.5 -179
t-72.5 -134v-152q0 -62 8 -93q2 -7 27 -14.5t34 -7.5q4 0 4 -13q0 -8 -2 -14q-100 5 -112 5q-3 0 -118 -5q-4 4 -4 14q0 13 4 13q12 0 36.5 7t27.5 15q8 31 8 96v125q0 14 -21.5 55.5t-124.5 226.5q-16 30 -24.5 41.5t-24.5 22.5q-11 8 -33 15t-32 7q-4 0 -4 11q0 12 4 16
l54 -3.5t66 -2.5zM307 741q0 7 46 52t73 65q6 3 18 3q26 0 39 -9.5t13 -20.5q0 -23 -80 -63t-99 -40q-10 0 -10 13z" />
    <glyph glyph-name="Thorn" unicode="&#xde;" horiz-adv-x="556" 
d="M174 657q16 0 116 5q2 -6 2 -15q0 -14 -4 -14q-10 0 -36 -7t-28 -14q-9 -34 -9 -88v-20q0 -7 4 -7q1 0 13 3.5t33.5 7t47.5 3.5q33 0 66.5 -10t65 -30t51.5 -57t20 -86q0 -29 -12.5 -62.5t-36.5 -65t-64.5 -52t-90.5 -20.5q-56 0 -77 28q-6 7 -3 23q1 4 3 3
q30 -11 67 -11q50 0 86 42t36 100q0 71 -31 112.5t-96 41.5q-50 0 -70 -7q-12 -4 -12 -37v-284q0 -58 9 -93q2 -7 28 -13.5t36 -6.5q4 0 4 -15q0 -8 -2 -14q-100 5 -116 5q-5 0 -120 -5q-4 4 -4 15q0 14 4 14q13 0 38.5 6t28.5 14q7 27 7 89v388q0 62 -7 89q-3 8 -28.5 14.5
t-38.5 6.5q-4 0 -4 13q0 12 4 16q115 -5 120 -5z" />
    <glyph glyph-name="germandbls" unicode="&#xdf;" horiz-adv-x="578" 
d="M463 561q0 -38 -21.5 -71t-47.5 -52t-47.5 -40.5t-21.5 -38.5q0 -27 25.5 -48t72.5 -46q23 -12 37.5 -21.5t33 -25.5t28 -36.5t9.5 -44.5q0 -60 -38 -103.5t-94 -43.5q-42 0 -75.5 14t-42.5 29q0 58 34 58q11 0 20 -10.5t15.5 -23.5t19.5 -23.5t30 -10.5q28 0 45.5 21
t17.5 58q0 27 -20 48t-49 35.5t-58 31t-49 44t-20 64.5q0 26 12.5 46.5t30.5 36t35.5 33t30 45t12.5 63.5q0 50 -25.5 80.5t-72.5 30.5q-32 0 -52.5 -16.5t-29.5 -46.5t-12 -57.5t-3 -64.5l1 -340q0 -62 7 -89q2 -7 23 -13.5t30 -6.5q3 0 4 -12t-1 -17q-100 5 -102 5
q-1 0 -104 -5q-4 4 -4 15q0 14 4 14q12 0 32.5 6.5t22.5 13.5q9 35 9 89q1 138 1 226q0 8 -5 8h-53q-3 0 -3 6q0 10 5.5 25.5t9.5 15.5h41q5 0 5 6v16q0 125 46 190t125 65q80 0 128 -32.5t48 -99.5z" />
    <glyph glyph-name="agrave" unicode="&#xe0;" horiz-adv-x="423" 
d="M184 50q27 0 52 16.5t25 33.5v103q-8 -4 -39 -14t-48.5 -17.5t-34 -25t-16.5 -40.5q0 -27 17 -41.5t44 -14.5zM234 436q55 0 79 -26.5t24 -85.5v-231q0 -21 11 -35t30 -14q14 0 35 14q4 0 4 -8q0 -13 -5 -21q-41 -35 -70 -35q-23 0 -44 19t-29 40q-1 0 -7.5 -6.5
t-17.5 -15t-25.5 -17.5t-34 -15t-39.5 -6q-46 0 -76 24.5t-30 73.5q0 22 11 41.5t26 32t41 25.5t44.5 19.5l48.5 16.5t42 15q9 3 9 15v75q0 32 -20 49.5t-48 17.5q-30 0 -50 -20.5t-20 -53.5q0 -35 -41 -35q-28 0 -39 19q0 43 63 85.5t128 42.5zM87 633q0 4 2.5 8.5t12.5 10
t26 5.5q25 0 34 -9q17 -20 40 -53t38 -57.5t15 -27.5q0 -13 -12 -13q-13 0 -84.5 55.5t-71.5 80.5z" />
    <glyph glyph-name="aacute" unicode="&#xe1;" horiz-adv-x="423" 
d="M184 50q27 0 52 16.5t25 33.5v103q-8 -4 -39 -14t-48.5 -17.5t-34 -25t-16.5 -40.5q0 -27 17 -41.5t44 -14.5zM234 436q55 0 79 -26.5t24 -85.5v-231q0 -21 11 -35t30 -14q14 0 35 14q4 0 4 -8q0 -13 -5 -21q-41 -35 -70 -35q-23 0 -44 19t-29 40q-1 0 -7.5 -6.5
t-17.5 -15t-25.5 -17.5t-34 -15t-39.5 -6q-46 0 -76 24.5t-30 73.5q0 22 11 41.5t26 32t41 25.5t44.5 19.5l48.5 16.5t42 15q9 3 9 15v75q0 32 -20 49.5t-48 17.5q-30 0 -50 -20.5t-20 -53.5q0 -35 -41 -35q-28 0 -39 19q0 43 63 85.5t128 42.5zM288 657q16 0 26 -5.5
t12.5 -10t2.5 -8.5q0 -25 -71.5 -80.5t-84.5 -55.5q-12 0 -12 13q0 3 15.5 28.5t38 58t39.5 51.5q9 9 34 9z" />
    <glyph glyph-name="acircumflex" unicode="&#xe2;" horiz-adv-x="423" 
d="M184 50q27 0 52 16.5t25 33.5v103q-8 -4 -39 -14t-48.5 -17.5t-34 -25t-16.5 -40.5q0 -27 17 -41.5t44 -14.5zM234 436q55 0 79 -26.5t24 -85.5v-231q0 -21 11 -35t30 -14q14 0 35 14q4 0 4 -8q0 -13 -5 -21q-41 -35 -70 -35q-23 0 -44 19t-29 40q-1 0 -7.5 -6.5
t-17.5 -15t-25.5 -17.5t-34 -15t-39.5 -6q-46 0 -76 24.5t-30 73.5q0 22 11 41.5t26 32t41 25.5t44.5 19.5l48.5 16.5t42 15q9 3 9 15v75q0 32 -20 49.5t-48 17.5q-30 0 -50 -20.5t-20 -53.5q0 -35 -41 -35q-28 0 -39 19q0 43 63 85.5t128 42.5zM296 467q-8 0 -39 22.5
t-54 43.5q-22 -21 -52 -43.5t-38 -22.5q-9 0 -9 23q3 4 22 25.5t32 37.5q22 27 37 53q6 10 8 10q5 0 10 -10q24 -39 36 -55q11 -14 24.5 -29t21.5 -23t8 -9q0 -23 -7 -23z" />
    <glyph glyph-name="atilde" unicode="&#xe3;" horiz-adv-x="423" 
d="M184 50q27 0 52 16.5t25 33.5v103q-8 -4 -39 -14t-48.5 -17.5t-34 -25t-16.5 -40.5q0 -27 17 -41.5t44 -14.5zM234 436q55 0 79 -26.5t24 -85.5v-231q0 -21 11 -35t30 -14q14 0 35 14q4 0 4 -8q0 -13 -5 -21q-41 -35 -70 -35q-23 0 -44 19t-29 40q-1 0 -7.5 -6.5
t-17.5 -15t-25.5 -17.5t-34 -15t-39.5 -6q-46 0 -76 24.5t-30 73.5q0 22 11 41.5t26 32t41 25.5t44.5 19.5l48.5 16.5t42 15q9 3 9 15v75q0 32 -20 49.5t-48 17.5q-30 0 -50 -20.5t-20 -53.5q0 -35 -41 -35q-28 0 -39 19q0 43 63 85.5t128 42.5zM264 548q36 0 51 34q2 1 6 1
q9 0 9 -16q0 -28 -27.5 -49t-50.5 -21q-29 0 -71 21.5t-69 21.5q-33 0 -49 -35q-2 -1 -6 -1q-9 0 -9 16q0 28 27.5 49t50.5 21q28 0 69 -21t69 -21z" />
    <glyph glyph-name="adieresis" unicode="&#xe4;" horiz-adv-x="423" 
d="M184 50q27 0 52 16.5t25 33.5v103q-8 -4 -39 -14t-48.5 -17.5t-34 -25t-16.5 -40.5q0 -27 17 -41.5t44 -14.5zM234 436q55 0 79 -26.5t24 -85.5v-231q0 -21 11 -35t30 -14q14 0 35 14q4 0 4 -8q0 -13 -5 -21q-41 -35 -70 -35q-23 0 -44 19t-29 40q-1 0 -7.5 -6.5
t-17.5 -15t-25.5 -17.5t-34 -15t-39.5 -6q-46 0 -76 24.5t-30 73.5q0 22 11 41.5t26 32t41 25.5t44.5 19.5l48.5 16.5t42 15q9 3 9 15v75q0 32 -20 49.5t-48 17.5q-30 0 -50 -20.5t-20 -53.5q0 -35 -41 -35q-28 0 -39 19q0 43 63 85.5t128 42.5zM290 595q20 0 34.5 -15
t14.5 -35t-15 -34t-35 -14t-35 14.5t-15 34.5t15.5 34.5t35.5 14.5zM107 595q20 0 34.5 -15t14.5 -35t-15 -34t-35 -14t-35 14.5t-15 34.5t15.5 34.5t35.5 14.5z" />
    <glyph glyph-name="aring" unicode="&#xe5;" horiz-adv-x="423" 
d="M184 50q27 0 52 16.5t25 33.5v103q-8 -4 -39 -14t-48.5 -17.5t-34 -25t-16.5 -40.5q0 -27 17 -41.5t44 -14.5zM234 436q55 0 79 -26.5t24 -85.5v-231q0 -21 11 -35t30 -14q14 0 35 14q4 0 4 -8q0 -13 -5 -21q-41 -35 -70 -35q-23 0 -44 19t-29 40q-1 0 -7.5 -6.5
t-17.5 -15t-25.5 -17.5t-34 -15t-39.5 -6q-46 0 -76 24.5t-30 73.5q0 22 11 41.5t26 32t41 25.5t44.5 19.5l48.5 16.5t42 15q9 3 9 15v75q0 32 -20 49.5t-48 17.5q-30 0 -50 -20.5t-20 -53.5q0 -35 -41 -35q-28 0 -39 19q0 43 63 85.5t128 42.5zM150 587q0 -23 16 -39.5
t39 -16.5q22 0 38 16.5t16 39.5t-15.5 39t-38.5 16t-39 -16t-16 -39zM117 587q0 37 26 63t62 26t61.5 -26t25.5 -63t-25.5 -63.5t-61.5 -26.5t-62 26.5t-26 63.5z" />
    <glyph glyph-name="ae" unicode="&#xe6;" horiz-adv-x="675" 
d="M272 100v103q-138 -26 -138 -97q0 -27 17 -41.5t44 -14.5t52 16.5t25 33.5zM464 399q-49 0 -78.5 -45t-29.5 -87q0 -6 6 -6q41 2 111 8.5t76 8.5q5 1 5 9q0 27 -27 69.5t-63 42.5zM245 436q33 0 60 -14.5t36 -39.5q54 54 127 54q46 0 80 -16.5t51 -44t24.5 -54.5t7.5 -56
q0 -5 -0.5 -8.5t-1.5 -6.5t-1.5 -5t-3 -3.5t-3 -2t-4.5 -1t-4.5 -1t-5 -0.5h-5.5q-101 -8 -239 -15q-8 0 -8 -8q0 -64 43.5 -110t105.5 -46q23 0 45.5 5.5t34.5 11.5t25 14.5t14 8.5q6 0 6 -13t-7 -20q-60 -71 -142 -71q-105 0 -162 84q-24 -29 -68.5 -57t-93.5 -28
q-46 0 -76 24.5t-30 73.5q0 33 21.5 60.5t56 45t68 28t67.5 16.5q9 1 9 15v84q0 25 -20.5 41.5t-47.5 16.5q-30 0 -50 -20.5t-20 -53.5q0 -35 -41 -35q-28 0 -39 19q0 43 63 85.5t128 42.5z" />
    <glyph glyph-name="ccedilla" unicode="&#xe7;" horiz-adv-x="405" 
d="M231 436q110 0 152 -51q0 -67 -37 -67q-17 0 -26 7.5t-23 27.5q-31 46 -74 46q-41 0 -74.5 -39t-33.5 -116q0 -80 39.5 -133t109.5 -53q21 0 40 4t32.5 9.5t23 11t16.5 10.5l7 5q6 0 6 -13q0 -8 -6 -18q-20 -28 -59 -50.5t-85 -22.5q-83 0 -142.5 62.5t-59.5 152.5
q0 92 50 159.5t144 67.5zM219 -23h25q19 0 31.5 -14.5t12.5 -34.5q0 -34 -27 -55t-67 -21q-21 0 -34 9q0 1 -1.5 5.5t-1.5 8.5q0 5 4.5 9.5t9.5 4.5q6 0 17 -6.5t20 -6.5q20 0 31.5 9.5t11.5 23.5q0 16 -10 25t-21 9q-9 0 -26 -7q-2 0 -6.5 5t-3.5 8l16 24.5t16 26.5h21z
" />
    <glyph glyph-name="egrave" unicode="&#xe8;" horiz-adv-x="430" 
d="M225 399q-52 0 -79.5 -44.5t-27.5 -73.5q0 -7 6 -7h195q5 0 5 10q0 32 -27 73.5t-72 41.5zM235 436q46 0 81 -17.5t53.5 -45t27 -56t8.5 -56.5q0 -20 -6 -24.5t-23 -4.5h-252q-8 0 -8 -5q0 -63 38 -116t110 -53q21 0 40 4t32.5 9.5t23 11t16.5 10.5l7 5q6 0 6 -13
q0 -8 -6 -18q-20 -28 -59 -50.5t-85 -22.5q-83 0 -142.5 62.5t-59.5 152.5q0 105 56.5 166t141.5 61zM105 633q0 4 2.5 8.5t12.5 10t26 5.5q25 0 34 -9q17 -20 40 -53t38 -57.5t15 -27.5q0 -13 -12 -13q-13 0 -84.5 55.5t-71.5 80.5z" />
    <glyph glyph-name="eacute" unicode="&#xe9;" horiz-adv-x="430" 
d="M225 399q-52 0 -79.5 -44.5t-27.5 -73.5q0 -7 6 -7h195q5 0 5 10q0 32 -27 73.5t-72 41.5zM235 436q46 0 81 -17.5t53.5 -45t27 -56t8.5 -56.5q0 -20 -6 -24.5t-23 -4.5h-252q-8 0 -8 -5q0 -63 38 -116t110 -53q21 0 40 4t32.5 9.5t23 11t16.5 10.5l7 5q6 0 6 -13
q0 -8 -6 -18q-20 -28 -59 -50.5t-85 -22.5q-83 0 -142.5 62.5t-59.5 152.5q0 105 56.5 166t141.5 61zM300 657q16 0 26 -5.5t12.5 -10t2.5 -8.5q0 -25 -71.5 -80.5t-84.5 -55.5q-12 0 -12 13q0 3 15.5 28.5t38 58t39.5 51.5q9 9 34 9z" />
    <glyph glyph-name="ecircumflex" unicode="&#xea;" horiz-adv-x="430" 
d="M318 467q-8 0 -39 22.5t-54 43.5q-22 -21 -52 -43.5t-38 -22.5q-9 0 -9 23q3 4 22 25.5t32 37.5q22 27 37 53q6 10 8 10q5 0 10 -10q24 -39 36 -55q11 -14 24.5 -29t21.5 -23t8 -9q0 -23 -7 -23zM225 399q-52 0 -79.5 -44.5t-27.5 -73.5q0 -7 6 -7h195q5 0 5 10
q0 32 -27 73.5t-72 41.5zM235 436q46 0 81 -17.5t53.5 -45t27 -56t8.5 -56.5q0 -20 -6 -24.5t-23 -4.5h-252q-8 0 -8 -5q0 -63 38 -116t110 -53q21 0 40 4t32.5 9.5t23 11t16.5 10.5l7 5q6 0 6 -13q0 -8 -6 -18q-20 -28 -59 -50.5t-85 -22.5q-83 0 -142.5 62.5t-59.5 152.5
q0 105 56.5 166t141.5 61z" />
    <glyph glyph-name="edieresis" unicode="&#xeb;" horiz-adv-x="430" 
d="M225 399q-52 0 -79.5 -44.5t-27.5 -73.5q0 -7 6 -7h195q5 0 5 10q0 32 -27 73.5t-72 41.5zM235 436q46 0 81 -17.5t53.5 -45t27 -56t8.5 -56.5q0 -20 -6 -24.5t-23 -4.5h-252q-8 0 -8 -5q0 -63 38 -116t110 -53q21 0 40 4t32.5 9.5t23 11t16.5 10.5l7 5q6 0 6 -13
q0 -8 -6 -18q-20 -28 -59 -50.5t-85 -22.5q-83 0 -142.5 62.5t-59.5 152.5q0 105 56.5 166t141.5 61zM320 595q20 0 34.5 -15t14.5 -35t-15 -34t-35 -14t-35 14.5t-15 34.5t15.5 34.5t35.5 14.5zM137 595q20 0 34.5 -15t14.5 -35t-15 -34t-35 -14t-35 14.5t-15 34.5
t15.5 34.5t35.5 14.5z" />
    <glyph glyph-name="igrave" unicode="&#xec;" horiz-adv-x="282" 
d="M178 135q0 -58 8 -89q2 -7 26 -13.5t34 -6.5q3 0 4 -12t-1 -17q-100 5 -107 5q-6 0 -109 -5q-4 4 -4 16.5t4 12.5q12 0 35.5 6.5t25.5 13.5q7 29 7 70v189q0 39 -14 54q-10 12 -24.5 16.5t-24 4.5t-9.5 2q0 24 6 25q106 16 138 26q1 0 3 0.5l2 0.5q4 0 5 -8.5t0 -12.5
q-5 -40 -5 -72v-206zM13 633q0 4 2.5 8.5t12.5 10t26 5.5q25 0 34 -9q17 -20 40 -53t38 -57.5t15 -27.5q0 -13 -12 -13q-13 0 -84.5 55.5t-71.5 80.5z" />
    <glyph glyph-name="iacute" unicode="&#xed;" horiz-adv-x="282" 
d="M178 135q0 -58 8 -89q2 -7 26 -13.5t34 -6.5q3 0 4 -12t-1 -17q-100 5 -107 5q-6 0 -109 -5q-4 4 -4 16.5t4 12.5q12 0 35.5 6.5t25.5 13.5q7 29 7 70v189q0 39 -14 54q-10 12 -24.5 16.5t-24 4.5t-9.5 2q0 24 6 25q106 16 138 26q1 0 3 0.5l2 0.5q4 0 5 -8.5t0 -12.5
q-5 -40 -5 -72v-206zM198 657q16 0 26 -5.5t12.5 -10t2.5 -8.5q0 -25 -71.5 -80.5t-84.5 -55.5q-12 0 -12 13q0 3 15.5 28.5t38 58t39.5 51.5q9 9 34 9z" />
    <glyph glyph-name="icircumflex" unicode="&#xee;" horiz-adv-x="282" 
d="M223 467q-8 0 -39 22.5t-54 43.5q-22 -21 -52 -43.5t-38 -22.5q-9 0 -9 23q3 4 22 25.5t32 37.5q22 27 37 53q6 10 8 10q5 0 10 -10q24 -39 36 -55q11 -14 24.5 -29t21.5 -23t8 -9q0 -23 -7 -23zM178 135q0 -58 8 -89q2 -7 26 -13.5t34 -6.5q3 0 4 -12t-1 -17
q-100 5 -107 5q-6 0 -109 -5q-4 4 -4 16.5t4 12.5q12 0 35.5 6.5t25.5 13.5q7 29 7 70v189q0 39 -14 54q-10 12 -24.5 16.5t-24 4.5t-9.5 2q0 24 6 25q106 16 138 26q1 0 3 0.5l2 0.5q4 0 5 -8.5t0 -12.5q-5 -40 -5 -72v-206z" />
    <glyph glyph-name="idieresis" unicode="&#xef;" horiz-adv-x="341" 
d="M221 135q0 -58 8 -89q2 -7 26 -13.5t34 -6.5q3 0 4 -12t-1 -17q-100 5 -107 5q-6 0 -109 -5q-4 4 -4 16.5t4 12.5q12 0 35.5 6.5t25.5 13.5q7 29 7 70v189q0 39 -14 54q-10 12 -24.5 16.5t-24 4.5t-9.5 2q0 24 6 25q106 16 138 26q1 0 3 0.5l2 0.5q4 0 5 -8.5t0 -12.5
q-5 -40 -5 -72v-206zM272 595q20 0 34.5 -15t14.5 -35t-15 -34t-35 -14t-35 14.5t-15 34.5t15.5 34.5t35.5 14.5zM112 595q20 0 34.5 -15t14.5 -35t-15 -34t-35 -14t-35 14.5t-15 34.5t15.5 34.5t35.5 14.5z" />
    <glyph glyph-name="eth" unicode="&#xf0;" horiz-adv-x="514" 
d="M356 705q22 -27 18 -31l-255 -165q-23 26 -17 32zM243 438q29 0 59.5 -9t41.5 -21q-14 69 -78.5 136t-193.5 120q0 6 4.5 15t9.5 9q53 -12 104 -35.5t99 -61.5t84 -85t57.5 -111t21.5 -135q0 -112 -56 -189.5t-141 -77.5q-100 0 -163.5 67.5t-63.5 154.5q0 84 63 153.5
t152 69.5zM230 398q-51 0 -83.5 -52t-32.5 -124q0 -75 39 -132.5t93 -57.5q56 0 87.5 54t31.5 132q0 95 -19 120q-46 60 -116 60z" />
    <glyph glyph-name="ntilde" unicode="&#xf1;" horiz-adv-x="543" 
d="M322 438q70 0 98 -50t28 -162v-91q0 -58 8 -89q2 -7 26 -13.5t34 -6.5q3 0 4 -12t-1 -17q-100 5 -107 5q-2 0 -105 -5q-4 4 -4 16.5t4 12.5q12 0 33.5 6.5t23.5 13.5q7 29 7 70v100q0 93 -24 127t-78 34q-32 0 -61.5 -23.5t-29.5 -42.5v-176q0 -58 8 -89q2 -7 26 -13.5
t34 -6.5q3 0 4 -12t-1 -17q-100 5 -107 5q-6 0 -109 -5q-4 4 -4 16.5t4 12.5q12 0 35.5 6.5t25.5 13.5q7 29 7 70v189q0 39 -14 54q-10 12 -24.5 16.5t-24 4.5t-9.5 2q0 24 6 25q106 16 138 26q1 0 3 0.5l2 0.5q4 0 5 -8.5t0 -12.5q-4 -28 -4 -40q0 -4 2 -4q1 0 3 2
q23 24 62.5 45.5t75.5 21.5zM324 550q36 0 51 34q2 1 6 1q9 0 9 -16q0 -28 -27.5 -49t-50.5 -21q-29 0 -71 21.5t-69 21.5q-33 0 -49 -35q-2 -1 -6 -1q-9 0 -9 16q0 28 27.5 49t50.5 21q28 0 69 -21t69 -21z" />
    <glyph glyph-name="ograve" unicode="&#xf2;" horiz-adv-x="510" 
d="M243 398q-53 0 -86.5 -48.5t-33.5 -118.5q0 -82 42.5 -140.5t99.5 -58.5q53 0 87 50t34 120q0 81 -43 138.5t-100 57.5zM254 437q90 0 154 -65t64 -156q0 -92 -62.5 -157.5t-153.5 -65.5t-155 65.5t-64 157.5q0 93 62 157t155 64zM158 633q0 4 2.5 8.5t12.5 10t26 5.5
q25 0 34 -9q17 -20 40 -53t38 -57.5t15 -27.5q0 -13 -12 -13q-13 0 -84.5 55.5t-71.5 80.5z" />
    <glyph glyph-name="oacute" unicode="&#xf3;" horiz-adv-x="510" 
d="M243 398q-53 0 -86.5 -48.5t-33.5 -118.5q0 -82 42.5 -140.5t99.5 -58.5q53 0 87 50t34 120q0 81 -43 138.5t-100 57.5zM254 437q90 0 154 -65t64 -156q0 -92 -62.5 -157.5t-153.5 -65.5t-155 65.5t-64 157.5q0 93 62 157t155 64zM323 657q16 0 26 -5.5t12.5 -10
t2.5 -8.5q0 -25 -71.5 -80.5t-84.5 -55.5q-12 0 -12 13q0 3 15.5 28.5t38 58t39.5 51.5q9 9 34 9z" />
    <glyph glyph-name="ocircumflex" unicode="&#xf4;" horiz-adv-x="510" 
d="M344 467q-8 0 -39 22.5t-54 43.5q-22 -21 -52 -43.5t-38 -22.5q-9 0 -9 23q3 4 22 25.5t32 37.5q22 27 37 53q6 10 8 10q5 0 10 -10q24 -39 36 -55q11 -14 24.5 -29t21.5 -23t8 -9q0 -23 -7 -23zM243 398q-53 0 -86.5 -48.5t-33.5 -118.5q0 -82 42.5 -140.5t99.5 -58.5
q53 0 87 50t34 120q0 81 -43 138.5t-100 57.5zM254 437q90 0 154 -65t64 -156q0 -92 -62.5 -157.5t-153.5 -65.5t-155 65.5t-64 157.5q0 93 62 157t155 64z" />
    <glyph glyph-name="otilde" unicode="&#xf5;" horiz-adv-x="510" 
d="M321 549q36 0 51 34q2 1 6 1q9 0 9 -16q0 -28 -27.5 -49t-50.5 -21q-29 0 -71 21.5t-69 21.5q-33 0 -49 -35q-2 -1 -6 -1q-9 0 -9 16q0 28 27.5 49t50.5 21q28 0 69 -21t69 -21zM243 398q-53 0 -86.5 -48.5t-33.5 -118.5q0 -82 42.5 -140.5t99.5 -58.5q53 0 87 50t34 120
q0 81 -43 138.5t-100 57.5zM254 437q90 0 154 -65t64 -156q0 -92 -62.5 -157.5t-153.5 -65.5t-155 65.5t-64 157.5q0 93 62 157t155 64z" />
    <glyph glyph-name="odieresis" unicode="&#xf6;" horiz-adv-x="510" 
d="M243 398q-53 0 -86.5 -48.5t-33.5 -118.5q0 -82 42.5 -140.5t99.5 -58.5q53 0 87 50t34 120q0 81 -43 138.5t-100 57.5zM254 437q90 0 154 -65t64 -156q0 -92 -62.5 -157.5t-153.5 -65.5t-155 65.5t-64 157.5q0 93 62 157t155 64zM346 595q20 0 34.5 -15t14.5 -35
t-15 -34t-35 -14t-35 14.5t-15 34.5t15.5 34.5t35.5 14.5zM163 595q20 0 34.5 -15t14.5 -35t-15 -34t-35 -14t-35 14.5t-15 34.5t15.5 34.5t35.5 14.5z" />
    <glyph glyph-name="divide" unicode="&#xf7;" horiz-adv-x="528" 
d="M262 390q-20 0 -33.5 12.5t-15.5 32.5v4q0 19 15 33.5t34 14.5q20 0 33.5 -12t15.5 -32v-5q0 -18 -15 -33t-34 -15zM262 5q-20 0 -33.5 13t-15.5 34v4q0 19 15 34t34 15q20 0 33.5 -13.5t15.5 -34.5v-2q0 -18 -15 -34t-34 -16zM28 224q0 10 3.5 32t10.5 22h449
q7 -1 7 -10q0 -14 -8 -46q-1 -3 -3 -4.5t-3 -1.5l-2 -1h-448l-4 2q-2 3 -2 7z" />
    <glyph glyph-name="oslash" unicode="&#xf8;" horiz-adv-x="533" 
d="M128 -8q-30 15 -27 21l270 424q30 -13 27 -20zM256 32q53 0 87 50t34 120q0 81 -43 138.5t-100 57.5q-53 0 -86.5 -48.5t-33.5 -118.5q0 -82 42.5 -140.5t99.5 -58.5zM245 437q90 0 154 -65t64 -156q0 -92 -62.5 -157.5t-153.5 -65.5t-155 65.5t-64 157.5q0 93 62 157
t155 64z" />
    <glyph glyph-name="ugrave" unicode="&#xf9;" horiz-adv-x="517" 
d="M435 341v-200q0 -43 7 -76q2 -7 11 -11t19 -5t20 -1l9 -1q3 -1 3 -11q0 -3 -2.5 -9.5t-5.5 -6.5q-15 -1 -33.5 -4t-34.5 -7t-30 -8t-22 -7l-9 -2q-8 0 -8 16v51l-2 5q-66 -71 -131 -71q-37 0 -63.5 18.5t-39 49t-17.5 59t-5 59.5v126q0 39 -14 54q-10 12 -24.5 16.5
t-24 4.5t-9.5 2q0 24 6 25q106 16 138 26q1 0 3 0.5l2 0.5q4 0 5 -8.5t0 -12.5q-6 -48 -6 -74v-135q0 -77 23 -113.5t75 -36.5q30 0 57 23.5t27 40.5v187q0 39 -14 54q-10 12 -24.5 16.5t-24 4.5t-9.5 2q0 24 6 25q106 16 138 26q1 0 3 0.5l2 0.5q4 0 5 -8.5t0 -12.5
q-6 -48 -6 -72zM153 633q0 4 2.5 8.5t12.5 10t26 5.5q25 0 34 -9q17 -20 40 -53t38 -57.5t15 -27.5q0 -13 -12 -13q-13 0 -84.5 55.5t-71.5 80.5z" />
    <glyph glyph-name="uacute" unicode="&#xfa;" horiz-adv-x="517" 
d="M435 341v-200q0 -43 7 -76q2 -7 11 -11t19 -5t20 -1l9 -1q3 -1 3 -11q0 -3 -2.5 -9.5t-5.5 -6.5q-15 -1 -33.5 -4t-34.5 -7t-30 -8t-22 -7l-9 -2q-8 0 -8 16v51l-2 5q-66 -71 -131 -71q-37 0 -63.5 18.5t-39 49t-17.5 59t-5 59.5v126q0 39 -14 54q-10 12 -24.5 16.5
t-24 4.5t-9.5 2q0 24 6 25q106 16 138 26q1 0 3 0.5l2 0.5q4 0 5 -8.5t0 -12.5q-6 -48 -6 -74v-135q0 -77 23 -113.5t75 -36.5q30 0 57 23.5t27 40.5v187q0 39 -14 54q-10 12 -24.5 16.5t-24 4.5t-9.5 2q0 24 6 25q106 16 138 26q1 0 3 0.5l2 0.5q4 0 5 -8.5t0 -12.5
q-6 -48 -6 -72zM356 657q16 0 26 -5.5t12.5 -10t2.5 -8.5q0 -25 -71.5 -80.5t-84.5 -55.5q-12 0 -12 13q0 3 15.5 28.5t38 58t39.5 51.5q9 9 34 9z" />
    <glyph glyph-name="ucircumflex" unicode="&#xfb;" horiz-adv-x="517" 
d="M354 467q-8 0 -39 22.5t-54 43.5q-22 -21 -52 -43.5t-38 -22.5q-9 0 -9 23q3 4 22 25.5t32 37.5q22 27 37 53q6 10 8 10q5 0 10 -10q24 -39 36 -55q11 -14 24.5 -29t21.5 -23t8 -9q0 -23 -7 -23zM435 341v-200q0 -43 7 -76q2 -7 11 -11t19 -5t20 -1l9 -1q3 -1 3 -11
q0 -3 -2.5 -9.5t-5.5 -6.5q-15 -1 -33.5 -4t-34.5 -7t-30 -8t-22 -7l-9 -2q-8 0 -8 16v51l-2 5q-66 -71 -131 -71q-37 0 -63.5 18.5t-39 49t-17.5 59t-5 59.5v126q0 39 -14 54q-10 12 -24.5 16.5t-24 4.5t-9.5 2q0 24 6 25q106 16 138 26q1 0 3 0.5l2 0.5q4 0 5 -8.5
t0 -12.5q-6 -48 -6 -74v-135q0 -77 23 -113.5t75 -36.5q30 0 57 23.5t27 40.5v187q0 39 -14 54q-10 12 -24.5 16.5t-24 4.5t-9.5 2q0 24 6 25q106 16 138 26q1 0 3 0.5l2 0.5q4 0 5 -8.5t0 -12.5q-6 -48 -6 -72z" />
    <glyph glyph-name="udieresis" unicode="&#xfc;" horiz-adv-x="517" 
d="M435 341v-200q0 -43 7 -76q2 -7 11 -11t19 -5t20 -1l9 -1q3 -1 3 -11q0 -3 -2.5 -9.5t-5.5 -6.5q-15 -1 -33.5 -4t-34.5 -7t-30 -8t-22 -7l-9 -2q-8 0 -8 16v51l-2 5q-66 -71 -131 -71q-37 0 -63.5 18.5t-39 49t-17.5 59t-5 59.5v126q0 39 -14 54q-10 12 -24.5 16.5
t-24 4.5t-9.5 2q0 24 6 25q106 16 138 26q1 0 3 0.5l2 0.5q4 0 5 -8.5t0 -12.5q-6 -48 -6 -74v-135q0 -77 23 -113.5t75 -36.5q30 0 57 23.5t27 40.5v187q0 39 -14 54q-10 12 -24.5 16.5t-24 4.5t-9.5 2q0 24 6 25q106 16 138 26q1 0 3 0.5l2 0.5q4 0 5 -8.5t0 -12.5
q-6 -48 -6 -72zM356 595q20 0 34.5 -15t14.5 -35t-15 -34t-35 -14t-35 14.5t-15 34.5t15.5 34.5t35.5 14.5zM173 595q20 0 34.5 -15t14.5 -35t-15 -34t-35 -14t-35 14.5t-15 34.5t15.5 34.5t35.5 14.5z" />
    <glyph glyph-name="yacute" unicode="&#xfd;" horiz-adv-x="454" 
d="M114 429q17 0 31.5 1t33 2t32.5 2q2 -6 2 -15q0 -14 -4 -14q-8 0 -26.5 -7t-20.5 -14v-2q0 -18 107 -261l76 219q7 21 7 31q0 15 -15.5 24.5t-41.5 9.5q-4 0 -4 13q0 12 4 16l39 -3t50 -2q22 0 48 2l39 3q2 -6 2 -15q0 -14 -4 -14q-13 0 -35.5 -9t-29.5 -29l-179 -483
q-23 -62 -52 -86.5t-53 -24.5q-21 0 -31 13t-10 26q0 22 14 32q83 0 110 86l12 36t11 34l-143 350q-11 24 -20 34q-9 9 -27.5 15t-29.5 6q-4 0 -4 13q0 12 4 16q103 -5 108 -5zM359 657q16 0 26 -5.5t12.5 -10t2.5 -8.5q0 -25 -71.5 -80.5t-84.5 -55.5q-12 0 -12 13
q0 3 15.5 28.5t38 58t39.5 51.5q9 9 34 9z" />
    <glyph glyph-name="thorn" unicode="&#xfe;" horiz-adv-x="513" 
d="M294 436q96 0 150 -64.5t54 -137.5q0 -96 -67 -169t-152 -73q-15 0 -26.5 1t-20.5 3.5t-14 4.5t-13 5.5t-10 4.5q-4 -5 -4 -13v-86q0 -58 8 -89q2 -7 26 -13.5t34 -6.5q3 0 4 -12.5t-1 -16.5q-100 5 -107 5t-109 -5q-4 4 -4 16.5t4 12.5q12 0 35.5 6.5t25.5 13.5
q7 29 7 70v655q0 35 -6 65q-5 16 -51 16h-9q-6 0 -6 11q0 16 6 16q30 3 55.5 8t40 10t24.5 9.5t14 7.5l5 3h2q4 0 8 -5.5t5 -10.5q-11 -32 -11 -87v-184q0 -5 3 -5q14 10 45.5 22t54.5 12zM262 387q-31 0 -51 -16.5t-20 -47.5v-225q0 -27 29 -45.5t63 -18.5q59 0 94 53
t35 119q0 84 -44.5 132.5t-105.5 48.5z" />
    <glyph glyph-name="ydieresis" unicode="&#xff;" horiz-adv-x="454" 
d="M114 429q17 0 31.5 1t33 2t32.5 2q2 -6 2 -15q0 -14 -4 -14q-8 0 -26.5 -7t-20.5 -14v-2q0 -18 107 -261l76 219q7 21 7 31q0 15 -15.5 24.5t-41.5 9.5q-4 0 -4 13q0 12 4 16l39 -3t50 -2q22 0 48 2l39 3q2 -6 2 -15q0 -14 -4 -14q-13 0 -35.5 -9t-29.5 -29l-179 -483
q-23 -62 -52 -86.5t-53 -24.5q-21 0 -31 13t-10 26q0 22 14 32q83 0 110 86l12 36t11 34l-143 350q-11 24 -20 34q-9 9 -27.5 15t-29.5 6q-4 0 -4 13q0 12 4 16q103 -5 108 -5zM344 595q20 0 34.5 -15t14.5 -35t-15 -34t-35 -14t-35 14.5t-15 34.5t15.5 34.5t35.5 14.5z
M161 595q20 0 34.5 -15t14.5 -35t-15 -34t-35 -14t-35 14.5t-15 34.5t15.5 34.5t35.5 14.5z" />
    <glyph glyph-name="Amacron" unicode="&#x100;" 
d="M365 660l200 -528q18 -47 29 -72q6 -15 31 -24.5t37 -9.5q4 0 4 -19q0 -4 -2 -10q-100 5 -110 5q-1 0 -116 -5q-4 4 -3.5 16.5t4.5 12.5q12 0 30 5t21 13q2 8 2 16q0 13 -3.5 30.5t-6.5 27.5l-4 11l-41 113q-3 4 -6 4q-39 3 -76 3q-52 0 -127 -5l-5 -3l-43 -110
q-17 -50 -17 -69q0 -14 8 -20q9 -7 29 -11.5t29 -4.5q3 0 3.5 -12t-1.5 -17q-100 5 -103 5q-20 0 -35 -1t-33.5 -2l-35.5 -2q-4 4 -4 15q0 14 4 14q12 0 31 5t26 14q21 27 47 94l174 447q2 5 5.5 16t5.5 16.5t6 14t7 12.5t7.5 9t10 7t12.5 2zM249 299q52 -2 71 -2q44 0 91 3
l3 5l-81 221l-86 -223q0 -4 2 -4zM216 751q0 39 14 39h250q6 0 6 -7q0 -13 -7 -34q-1 -3 -3 -4.5t-4 -2.5h-1h-248h-2t-3 2.5t-2 6.5z" />
    <glyph glyph-name="amacron" unicode="&#x101;" horiz-adv-x="423" 
d="M184 50q27 0 52 16.5t25 33.5v103q-8 -4 -39 -14t-48.5 -17.5t-34 -25t-16.5 -40.5q0 -27 17 -41.5t44 -14.5zM234 436q55 0 79 -26.5t24 -85.5v-231q0 -21 11 -35t30 -14q14 0 35 14q4 0 4 -8q0 -13 -5 -21q-41 -35 -70 -35q-23 0 -44 19t-29 40q-1 0 -7.5 -6.5
t-17.5 -15t-25.5 -17.5t-34 -15t-39.5 -6q-46 0 -76 24.5t-30 73.5q0 22 11 41.5t26 32t41 25.5t44.5 19.5l48.5 16.5t42 15q9 3 9 15v75q0 32 -20 49.5t-48 17.5q-30 0 -50 -20.5t-20 -53.5q0 -35 -41 -35q-28 0 -39 19q0 43 63 85.5t128 42.5zM91 522q0 37 12 37h208
q5 0 5 -7q0 -10 -6 -32q-1 -3 -2.5 -4.5l-2.5 -2.5h-2h-206l-4 2q-2 3 -2 7z" />
    <glyph glyph-name="Abreve" unicode="&#x102;" 
d="M365 660l200 -528q18 -47 29 -72q6 -15 31 -24.5t37 -9.5q4 0 4 -19q0 -4 -2 -10q-100 5 -110 5q-1 0 -116 -5q-4 4 -3.5 16.5t4.5 12.5q12 0 30 5t21 13q2 8 2 16q0 13 -3.5 30.5t-6.5 27.5l-4 11l-41 113q-3 4 -6 4q-39 3 -76 3q-52 0 -127 -5l-5 -3l-43 -110
q-17 -50 -17 -69q0 -14 8 -20q9 -7 29 -11.5t29 -4.5q3 0 3.5 -12t-1.5 -17q-100 5 -103 5q-20 0 -35 -1t-33.5 -2l-35.5 -2q-4 4 -4 15q0 14 4 14q12 0 31 5t26 14q21 27 47 94l174 447q2 5 5.5 16t5.5 16.5t6 14t7 12.5t7.5 9t10 7t12.5 2zM249 299q52 -2 71 -2q44 0 91 3
l3 5l-81 221l-86 -223q0 -4 2 -4zM359 773q32 0 56 15.5t31 42.5q0 2 4 2q5 0 11.5 -4t6.5 -7v-3q-1 -3 -1 -4q-7 -36 -38 -63t-70 -27q-40 0 -70.5 26.5t-37.5 64.5q0 1 -1 4v2q0 3 6.5 7t11.5 4q4 0 4 -2q7 -27 31 -42.5t56 -15.5z" />
    <glyph glyph-name="abreve" unicode="&#x103;" horiz-adv-x="423" 
d="M184 50q27 0 52 16.5t25 33.5v103q-8 -4 -39 -14t-48.5 -17.5t-34 -25t-16.5 -40.5q0 -27 17 -41.5t44 -14.5zM234 436q55 0 79 -26.5t24 -85.5v-231q0 -21 11 -35t30 -14q14 0 35 14q4 0 4 -8q0 -13 -5 -21q-41 -35 -70 -35q-23 0 -44 19t-29 40q-1 0 -7.5 -6.5
t-17.5 -15t-25.5 -17.5t-34 -15t-39.5 -6q-46 0 -76 24.5t-30 73.5q0 22 11 41.5t26 32t41 25.5t44.5 19.5l48.5 16.5t42 15q9 3 9 15v75q0 32 -20 49.5t-48 17.5q-30 0 -50 -20.5t-20 -53.5q0 -35 -41 -35q-28 0 -39 19q0 43 63 85.5t128 42.5zM203 543q31 0 55 20t32 52
q0 3 4 3q5 0 11.5 -4.5t6.5 -8.5v-4q-1 -3 -1 -4q-7 -41 -37.5 -70.5t-70.5 -29.5t-70.5 29t-37.5 72q0 1 -1 4v3q0 4 6.5 8.5t11.5 4.5q4 0 4 -3q8 -32 32 -52t55 -20z" />
    <glyph glyph-name="Aogonek" unicode="&#x104;" horiz-adv-x="746" 
d="M328 586q2 5 5.5 16t5.5 16.5t6 14t7 12.5t7.5 9t10 7t12.5 2l9 -3l200 -528q18 -47 29 -72q6 -15 31 -24.5t37 -9.5q4 0 4 -19q0 -4 -2 -10q-63 4 -99 5q-39 -23 -71.5 -58t-32.5 -65q0 -16 9 -29.5t32 -13.5q22 0 41 9.5t29 19t11 9.5q5 0 5 -13q0 -11 -5 -18
q-50 -66 -105 -66q-37 0 -54 25t-17 52q0 38 33.5 78.5t78.5 69.5l-39.5 -2.5t-41.5 -2.5q-4 4 -3.5 16.5t4.5 12.5q12 0 30 5t21 13q2 8 2 16q0 13 -3.5 30.5t-6.5 27.5l-4 11l-41 113q-3 4 -6 4q-39 3 -76 3q-52 0 -127 -5l-5 -3l-43 -110q-17 -50 -17 -69q0 -14 8 -20
q9 -7 29 -11.5t29 -4.5q3 0 3.5 -12t-1.5 -17q-100 5 -103 5q-20 0 -35 -1t-33.5 -2l-35.5 -2q-4 4 -4 15q0 14 4 14q12 0 31 5t26 14q21 27 47 94zM359 526l-86 -223q0 -4 2 -4q52 -2 71 -2q44 0 91 3l3 5z" />
    <glyph glyph-name="aogonek" unicode="&#x105;" horiz-adv-x="418" 
d="M195 50q27 0 52 16.5t25 33.5v103q-8 -4 -39 -14t-48.5 -17.5t-34 -25t-16.5 -40.5q0 -27 17 -41.5t44 -14.5zM348 93q0 -21 11 -36t30 -15q8 0 16 3.5t13 7t6 3.5q5 0 5 -5q0 -11 -6 -25l-33 -23l-21 -14.5l-25.5 -18t-23 -19t-22.5 -23t-13.5 -23t-6.5 -26.5
q0 -16 9 -29.5t32 -13.5t41.5 9.5t28.5 19t11 9.5q5 0 5 -13q0 -11 -5 -18q-50 -66 -105 -66q-37 0 -54 25t-17 52q0 31 31 71.5t71 72.5q-33 18 -46 55q-1 0 -7.5 -6.5t-17.5 -15t-25.5 -17.5t-34 -15t-39.5 -6q-46 0 -76 24.5t-30 73.5q0 22 11 41.5t26 32t41 25.5
t44.5 19.5l48.5 16.5t42 15q9 3 9 15v75q0 32 -20 49.5t-48 17.5q-30 0 -50 -20.5t-20 -53.5q0 -35 -41 -35q-28 0 -39 19q0 43 63 85.5t128 42.5q55 0 79 -26.5t24 -85.5v-231z" />
    <glyph glyph-name="Cacute" unicode="&#x106;" horiz-adv-x="656" 
d="M634 183q0 -11 -14 -76.5t-20 -68.5q-73 -44 -239 -44q-132 0 -224.5 97t-92.5 231q0 142 95 243.5t233 101.5q118 0 243 -25q-2 -134 -2 -144q0 -15 -21 -15q-10 0 -13 5q-3 13 -7.5 26.5t-19 35t-35 37t-58 27t-84.5 11.5q-98 0 -167 -86.5t-69 -195.5q0 -81 28 -149
t88.5 -112.5t143.5 -44.5q99 0 153 58q14 15 24.5 39.5t16 41t8.5 16.5q6 0 14.5 -2t13.5 -4zM351 741q0 7 46 52t73 65q6 3 18 3q26 0 39 -9.5t13 -20.5q0 -23 -80 -63t-99 -40q-10 0 -10 13z" />
    <glyph glyph-name="cacute" unicode="&#x107;" horiz-adv-x="405" 
d="M231 436q110 0 152 -51q0 -67 -37 -67q-17 0 -26 7.5t-23 27.5q-31 46 -74 46q-41 0 -74.5 -39t-33.5 -116q0 -80 39.5 -133t109.5 -53q21 0 40 4t32.5 9.5t23 11t16.5 10.5l7 5q6 0 6 -13q0 -8 -6 -18q-20 -28 -59 -50.5t-85 -22.5q-83 0 -142.5 62.5t-59.5 152.5
q0 92 50 159.5t144 67.5zM316 657q16 0 26 -5.5t12.5 -10t2.5 -8.5q0 -25 -71.5 -80.5t-84.5 -55.5q-12 0 -12 13q0 3 15.5 28.5t38 58t39.5 51.5q9 9 34 9z" />
    <glyph glyph-name="Ccircumflex" unicode="&#x108;" horiz-adv-x="656" 
d="M634 183q0 -11 -14 -76.5t-20 -68.5q-73 -44 -239 -44q-132 0 -224.5 97t-92.5 231q0 142 95 243.5t233 101.5q118 0 243 -25q-2 -134 -2 -144q0 -15 -21 -15q-10 0 -13 5q-3 13 -7.5 26.5t-19 35t-35 37t-58 27t-84.5 11.5q-98 0 -167 -86.5t-69 -195.5q0 -81 28 -149
t88.5 -112.5t143.5 -44.5q99 0 153 58q14 15 24.5 39.5t16 41t8.5 16.5q6 0 14.5 -2t13.5 -4zM497 698q-19 0 -105 58q-24 -18 -59 -38t-44 -20q-10 0 -10 20q4 4 25.5 23.5l35.5 32.5q28 26 42 46q7 8 10 8q6 0 11 -8q21 -28 41 -48l28.5 -25.5t24.5 -20.5t9 -8
q0 -20 -9 -20z" />
    <glyph glyph-name="ccircumflex" unicode="&#x109;" horiz-adv-x="405" 
d="M314 467q-8 0 -39 22.5t-54 43.5q-22 -21 -52 -43.5t-38 -22.5q-9 0 -9 23q3 4 22 25.5t32 37.5q22 27 37 53q6 10 8 10q5 0 10 -10q24 -39 36 -55q11 -14 24.5 -29t21.5 -23t8 -9q0 -23 -7 -23zM231 436q110 0 152 -51q0 -67 -37 -67q-17 0 -26 7.5t-23 27.5
q-31 46 -74 46q-41 0 -74.5 -39t-33.5 -116q0 -80 39.5 -133t109.5 -53q21 0 40 4t32.5 9.5t23 11t16.5 10.5l7 5q6 0 6 -13q0 -8 -6 -18q-20 -28 -59 -50.5t-85 -22.5q-83 0 -142.5 62.5t-59.5 152.5q0 92 50 159.5t144 67.5z" />
    <glyph glyph-name="Cdotaccent" unicode="&#x10a;" horiz-adv-x="656" 
d="M634 183q0 -11 -14 -76.5t-20 -68.5q-73 -44 -239 -44q-132 0 -224.5 97t-92.5 231q0 142 95 243.5t233 101.5q118 0 243 -25q-2 -134 -2 -144q0 -15 -21 -15q-10 0 -13 5q-3 13 -7.5 26.5t-19 35t-35 37t-58 27t-84.5 11.5q-98 0 -167 -86.5t-69 -195.5q0 -81 28 -149
t88.5 -112.5t143.5 -44.5q99 0 153 58q14 15 24.5 39.5t16 41t8.5 16.5q6 0 14.5 -2t13.5 -4zM327 778q0 21 14.5 35.5t35.5 14.5t35.5 -14.5t14.5 -35.5t-14.5 -35.5t-35.5 -14.5t-35.5 14.5t-14.5 35.5z" />
    <glyph glyph-name="cdotaccent" unicode="&#x10b;" horiz-adv-x="405" 
d="M231 436q110 0 152 -51q0 -67 -37 -67q-17 0 -26 7.5t-23 27.5q-31 46 -74 46q-41 0 -74.5 -39t-33.5 -116q0 -80 39.5 -133t109.5 -53q21 0 40 4t32.5 9.5t23 11t16.5 10.5l7 5q6 0 6 -13q0 -8 -6 -18q-20 -28 -59 -50.5t-85 -22.5q-83 0 -142.5 62.5t-59.5 152.5
q0 92 50 159.5t144 67.5zM178 593q0 21 14.5 35.5t35.5 14.5t35.5 -14.5t14.5 -35.5t-14.5 -35.5t-35.5 -14.5t-35.5 14.5t-14.5 35.5z" />
    <glyph glyph-name="Ccaron" unicode="&#x10c;" horiz-adv-x="656" 
d="M634 183q0 -11 -14 -76.5t-20 -68.5q-73 -44 -239 -44q-132 0 -224.5 97t-92.5 231q0 142 95 243.5t233 101.5q118 0 243 -25q-2 -134 -2 -144q0 -15 -21 -15q-10 0 -13 5q-3 13 -7.5 26.5t-19 35t-35 37t-58 27t-84.5 11.5q-98 0 -167 -86.5t-69 -195.5q0 -81 28 -149
t88.5 -112.5t143.5 -44.5q99 0 153 58q14 15 24.5 39.5t16 41t8.5 16.5q6 0 14.5 -2t13.5 -4zM376 800q86 58 105 58q9 0 9 -20q0 -1 -9 -8t-24.5 -20.5l-28.5 -25.5q-20 -20 -41 -48q-5 -8 -11 -8q-3 0 -10 8q-14 20 -42 46l-35.5 32.5t-25.5 23.5q0 20 10 20q9 0 44 -20
t59 -38z" />
    <glyph glyph-name="ccaron" unicode="&#x10d;" horiz-adv-x="405" 
d="M231 436q110 0 152 -51q0 -67 -37 -67q-17 0 -26 7.5t-23 27.5q-31 46 -74 46q-41 0 -74.5 -39t-33.5 -116q0 -80 39.5 -133t109.5 -53q21 0 40 4t32.5 9.5t23 11t16.5 10.5l7 5q6 0 6 -13q0 -8 -6 -18q-20 -28 -59 -50.5t-85 -22.5q-83 0 -142.5 62.5t-59.5 152.5
q0 92 50 159.5t144 67.5zM232 580q23 21 54 43.5t39 22.5t8 -23q0 -1 -8 -9l-22 -23t-25 -29q-12 -16 -36 -55q-5 -9 -9 -9t-9 9q-13 22 -37 52q-13 16 -32 37.5t-22 26.5q0 23 9 23q8 0 38 -22.5t52 -43.5z" />
    <glyph glyph-name="Dcaron" unicode="&#x10e;" horiz-adv-x="722" 
d="M157 656q38 0 96.5 1t77.5 1q163 0 254 -96t91 -226q0 -145 -92 -242t-254 -97q-12 0 -71.5 2t-99.5 1l-121 -3q-3 3 -3 15q0 14 3 14q13 0 38.5 7t30.5 16q7 12 7 94v378q0 59 -7 86q-3 8 -29.5 15t-39.5 7q-4 0 -4 12q0 13 4 17q52 -2 119 -2zM201 535v-396
q0 -42 15 -76q4 -10 53.5 -15t76.5 -5q230 0 230 297q0 114 -60.5 194t-176.5 80h-5q-108 0 -120 -16q-13 -18 -13 -63zM359 800q86 58 105 58q9 0 9 -20q0 -1 -9 -8t-24.5 -20.5l-28.5 -25.5q-20 -20 -41 -48q-5 -8 -11 -8q-3 0 -10 8q-14 20 -42 46l-35.5 32.5t-25.5 23.5
q0 20 10 20q9 0 44 -20t59 -38z" />
    <glyph glyph-name="dcaron" unicode="&#x10f;" horiz-adv-x="497" 
d="M248 398q-58 0 -91 -52t-33 -121q0 -73 39 -126.5t108 -53.5q34 0 53 15.5t19 41.5v238q0 21 -22.5 39.5t-72.5 18.5zM261 440q43 0 75 -17q7 0 7 18v108q0 34 -6 64q-5 16 -51 16h-9q-6 0 -6 11q0 16 6 16q30 3 55.5 8t40 10t24.5 9.5t15 7.5l4 3h2q4 0 8 -5.5t5 -10.5
q-11 -32 -11 -87v-450q0 -48 6 -76q2 -7 11 -11t18.5 -5t18.5 -1l9 -1q3 -1 3 -12q0 -15 -6 -15q-15 -1 -33.5 -4t-35 -6.5t-30.5 -7t-23 -6.5l-9 -2q-6 0 -6 17v12q0 6 -4 4q-56 -31 -106 -31q-83 0 -139 59t-56 141q0 97 68.5 170.5t154.5 73.5zM485 642q0 23 18.5 37
t49.5 14q15 -18 15 -62q0 -31 -27 -71.5t-48 -52.5q-1 -1 -7 -1q-4 0 -9 4.5t-5 8.5l9 8q8 9 17 25.5t9 36.5q0 6 -11 22t-11 31z" />
    <glyph glyph-name="Dcroat" unicode="&#x110;" horiz-adv-x="731" 
d="M100 348h345q6 0 6 -10q0 -16 -6 -30h-346q-5 0 -5 13q0 18 6 27zM203 656q36 0 95.5 1t78.5 1q163 0 254 -96t91 -226q0 -145 -92 -242t-254 -97q-12 0 -72.5 2t-98.5 1l-121 -3q-3 3 -3 15q0 14 3 14q13 0 38.5 7t30.5 16q7 12 7 94v378q0 59 -7 86q-3 8 -29.5 15
t-39.5 7q-4 0 -4 12q0 13 4 17q52 -2 119 -2zM247 535v-396q0 -42 15 -76q4 -10 53.5 -15t76.5 -5q115 0 174.5 75.5t59.5 221.5q0 113 -62.5 193.5t-178.5 80.5h-5q-108 0 -120 -16q-13 -18 -13 -63z" />
    <glyph glyph-name="dcroat" unicode="&#x111;" horiz-adv-x="491" 
d="M254 440q43 0 75 -17q7 0 7 18v108q0 34 -6 64q-5 16 -51 16h-9q-6 0 -6 11q0 16 6 16q30 3 55.5 8t40 10t24.5 9.5t14 7.5l5 3h2q4 0 8 -5.5t5 -10.5q-11 -32 -11 -87v-450q0 -48 6 -76q2 -7 11 -11t18.5 -5t18.5 -1l9 -1q3 -1 3 -12q0 -15 -6 -15q-15 -1 -33.5 -4
t-35 -6.5t-30.5 -7t-23 -6.5l-9 -2q-6 0 -6 17v12q0 6 -4 4q-56 -31 -106 -31q-83 0 -139 59t-56 141q0 97 68.5 170.5t154.5 73.5zM241 398q-58 0 -91 -52t-33 -121q0 -73 39 -126.5t108 -53.5q34 0 53 15.5t19 41.5v238q0 21 -22.5 39.5t-72.5 18.5zM212 569h265
q6 0 6 -10q0 -17 -6 -30h-266q-5 0 -5 13q0 18 6 27z" />
    <glyph glyph-name="Emacron" unicode="&#x112;" horiz-adv-x="571" 
d="M179 656q45 0 156 4t167 4q4 -29 15.5 -76.5t13.5 -59.5q-5 -5 -18 -5t-14 7q-15 55 -42 70.5t-74 15.5h-67q-86 0 -88 -13q-5 -24 -5 -84v-160q0 -6 43 -6h53h40.5t26.5 4t18 5t10.5 13t7.5 17.5t7 28.5q1 7 15 7q12 0 17 -5v-189q-4 -4 -16 -4q-13 0 -16 8
q-7 27 -12 40.5t-7.5 16t-8.5 6.5q-13 8 -106 8q-72 0 -72 -9v-155q0 -65 9 -91q3 -10 68 -10h48q93 0 126 17q15 8 33.5 35.5t29.5 65.5q2 6 14 6q19 0 25 -6l-15.5 -41.5l-16.5 -46t-13 -40.5t-9 -38q-51 0 -161 2t-180 2l-121 -3q-3 3 -3 16t3 13q13 0 38.5 7t30.5 16
q7 12 7 94v378q0 59 -7 86q-3 8 -29.5 15t-39.5 7q-4 0 -4 12q0 13 4 17q52 -2 119 -2zM162 751q0 39 14 39h250q6 0 6 -7q0 -13 -7 -34q-1 -3 -3 -4.5t-4 -2.5h-1h-248h-2t-3 2.5t-2 6.5z" />
    <glyph glyph-name="emacron" unicode="&#x113;" horiz-adv-x="454" 
d="M239 399q-52 0 -79.5 -44.5t-27.5 -73.5q0 -7 6 -7h195q5 0 5 10q0 32 -27 73.5t-72 41.5zM249 436q46 0 81 -17.5t53.5 -45t27 -56t8.5 -56.5q0 -20 -6 -24.5t-23 -4.5h-252q-8 0 -8 -5q0 -63 38 -116t110 -53q21 0 40 4t32.5 9.5t23 11t16.5 10.5l7 5q6 0 6 -13
q0 -8 -6 -18q-20 -28 -59 -50.5t-85 -22.5q-83 0 -142.5 62.5t-59.5 152.5q0 105 56.5 166t141.5 61zM112 522q0 37 12 37h208q5 0 5 -7q0 -10 -6 -32q-1 -3 -2.5 -4.5l-2.5 -2.5h-2h-206l-4 2q-2 3 -2 7z" />
    <glyph glyph-name="Ebreve" unicode="&#x114;" horiz-adv-x="571" 
d="M152 656q45 0 156 4t167 4q4 -29 15.5 -76.5t13.5 -59.5q-5 -5 -18 -5t-14 7q-15 55 -42 70.5t-74 15.5h-67q-86 0 -88 -13q-5 -24 -5 -84v-160q0 -6 43 -6h53h40.5t26.5 4t18 5t10.5 13t7.5 17.5t7 28.5q1 7 15 7q12 0 17 -5v-189q-4 -4 -16 -4q-13 0 -16 8
q-7 27 -12 40.5t-7.5 16t-8.5 6.5q-13 8 -106 8q-72 0 -72 -9v-155q0 -65 9 -91q3 -10 68 -10h48q93 0 126 17q15 8 33.5 35.5t29.5 65.5q2 6 14 6q19 0 25 -6l-15.5 -41.5l-16.5 -46t-13 -40.5t-9 -38q-51 0 -161 2t-180 2l-121 -3q-3 3 -3 16t3 13q13 0 38.5 7t30.5 16
q7 12 7 94v378q0 59 -7 86q-3 8 -29.5 15t-39.5 7q-4 0 -4 12q0 13 4 17q52 -2 119 -2zM285 773q32 0 56 15.5t31 42.5q0 2 4 2q5 0 11.5 -4t6.5 -7v-3q-1 -3 -1 -4q-7 -36 -38 -63t-70 -27q-40 0 -70.5 26.5t-37.5 64.5q0 1 -1 4v2q0 3 6.5 7t11.5 4q4 0 4 -2
q7 -27 31 -42.5t56 -15.5z" />
    <glyph glyph-name="ebreve" unicode="&#x115;" horiz-adv-x="430" 
d="M225 399q-52 0 -79.5 -44.5t-27.5 -73.5q0 -7 6 -7h195q5 0 5 10q0 32 -27 73.5t-72 41.5zM235 436q46 0 81 -17.5t53.5 -45t27 -56t8.5 -56.5q0 -20 -6 -24.5t-23 -4.5h-252q-8 0 -8 -5q0 -63 38 -116t110 -53q21 0 40 4t32.5 9.5t23 11t16.5 10.5l7 5q6 0 6 -13
q0 -8 -6 -18q-20 -28 -59 -50.5t-85 -22.5q-83 0 -142.5 62.5t-59.5 152.5q0 105 56.5 166t141.5 61zM223 543q31 0 55 20t32 52q0 3 4 3q5 0 11.5 -4.5t6.5 -8.5v-4q-1 -3 -1 -4q-7 -41 -37.5 -70.5t-70.5 -29.5t-70.5 29t-37.5 72q0 1 -1 4v3q0 4 6.5 8.5t11.5 4.5
q4 0 4 -3q8 -32 32 -52t55 -20z" />
    <glyph glyph-name="Edotaccent" unicode="&#x116;" horiz-adv-x="571" 
d="M152 656q45 0 156 4t167 4q4 -29 15.5 -76.5t13.5 -59.5q-5 -5 -18 -5t-14 7q-15 55 -42 70.5t-74 15.5h-67q-86 0 -88 -13q-5 -24 -5 -84v-160q0 -6 43 -6h53h40.5t26.5 4t18 5t10.5 13t7.5 17.5t7 28.5q1 7 15 7q12 0 17 -5v-189q-4 -4 -16 -4q-13 0 -16 8
q-7 27 -12 40.5t-7.5 16t-8.5 6.5q-13 8 -106 8q-72 0 -72 -9v-155q0 -65 9 -91q3 -10 68 -10h48q93 0 126 17q15 8 33.5 35.5t29.5 65.5q2 6 14 6q19 0 25 -6l-15.5 -41.5l-16.5 -46t-13 -40.5t-9 -38q-51 0 -161 2t-180 2l-121 -3q-3 3 -3 16t3 13q13 0 38.5 7t30.5 16
q7 12 7 94v378q0 59 -7 86q-3 8 -29.5 15t-39.5 7q-4 0 -4 12q0 13 4 17q52 -2 119 -2zM232 778q0 21 14.5 35.5t35.5 14.5t35.5 -14.5t14.5 -35.5t-14.5 -35.5t-35.5 -14.5t-35.5 14.5t-14.5 35.5z" />
    <glyph glyph-name="edotaccent" unicode="&#x117;" horiz-adv-x="430" 
d="M225 399q-52 0 -79.5 -44.5t-27.5 -73.5q0 -7 6 -7h195q5 0 5 10q0 32 -27 73.5t-72 41.5zM235 436q46 0 81 -17.5t53.5 -45t27 -56t8.5 -56.5q0 -20 -6 -24.5t-23 -4.5h-252q-8 0 -8 -5q0 -63 38 -116t110 -53q21 0 40 4t32.5 9.5t23 11t16.5 10.5l7 5q6 0 6 -13
q0 -8 -6 -18q-20 -28 -59 -50.5t-85 -22.5q-83 0 -142.5 62.5t-59.5 152.5q0 105 56.5 166t141.5 61zM179 593q0 21 14.5 35.5t35.5 14.5t35.5 -14.5t14.5 -35.5t-14.5 -35.5t-35.5 -14.5t-35.5 14.5t-14.5 35.5z" />
    <glyph glyph-name="Eogonek" unicode="&#x118;" horiz-adv-x="612" 
d="M171 656q45 0 156 2t167 2q4 -29 15.5 -76.5t13.5 -59.5q-5 -5 -18 -5t-14 7q-15 55 -42 70.5t-74 15.5h-67q-86 0 -88 -13q-5 -24 -5 -84v-160q0 -6 43 -6h53h40.5t26.5 4t18 5t10.5 13t7.5 17.5t7 28.5q1 7 15 7q12 0 17 -5v-189q-4 -4 -16 -4q-13 0 -16 8
q-7 27 -12 40.5t-7.5 16t-8.5 6.5q-13 8 -106 8q-72 0 -72 -9v-155q0 -65 9 -91q3 -10 68 -10h48q93 0 126 17q15 8 33.5 35.5t29.5 65.5q1 6 14 6q19 0 25 -6l-19.5 -52t-23.5 -66.5t-11 -45.5q-42 0 -84.5 -41t-42.5 -75q0 -16 9 -29.5t32 -13.5q22 0 41 9.5t29 19t11 9.5
q4 0 4 -13t-4 -18q-50 -66 -105 -66q-37 0 -54 25t-17 52q0 36 30.5 74t73.5 68q-233 5 -264 5l-121 -3q-3 3 -3 16t3 13q13 0 38.5 7t30.5 16q7 12 7 94v378q0 59 -7 86q-3 8 -29.5 15t-39.5 7q-4 0 -4 12q0 13 4 17q52 -2 119 -2z" />
    <glyph glyph-name="eogonek" unicode="&#x119;" horiz-adv-x="411" 
d="M212 399q-52 0 -79.5 -44.5t-27.5 -73.5q0 -7 6 -7h195q5 0 5 10q0 32 -27 73.5t-72 41.5zM226 -6q-83 0 -142.5 62.5t-59.5 152.5q0 105 56.5 166t141.5 61q46 0 81 -17.5t53.5 -45t27 -56t8.5 -56.5q0 -20 -6 -24.5t-23 -4.5h-252q-8 0 -8 -5q0 -63 38 -116t110 -53
q21 0 40 4t32.5 9.5t23 11t16.5 10.5l7 5q6 0 6 -13q0 -8 -6 -18q-15 -22 -43 -41q-53 -39 -78.5 -72.5t-25.5 -75.5q0 -16 9 -29.5t32 -13.5q22 0 41 9.5t29 19t11 9.5q4 0 4 -13t-4 -18q-50 -66 -105 -66q-37 0 -54 25t-17 52q0 29 23.5 69.5t55.5 72.5l-4 -1h-9.5h-8.5z
" />
    <glyph glyph-name="Ecaron" unicode="&#x11a;" horiz-adv-x="571" 
d="M152 656q45 0 156 4t167 4q4 -29 15.5 -76.5t13.5 -59.5q-5 -5 -18 -5t-14 7q-15 55 -42 70.5t-74 15.5h-67q-86 0 -88 -13q-5 -24 -5 -84v-160q0 -6 43 -6h53h40.5t26.5 4t18 5t10.5 13t7.5 17.5t7 28.5q1 7 15 7q12 0 17 -5v-189q-4 -4 -16 -4q-13 0 -16 8
q-7 27 -12 40.5t-7.5 16t-8.5 6.5q-13 8 -106 8q-72 0 -72 -9v-155q0 -65 9 -91q3 -10 68 -10h48q93 0 126 17q15 8 33.5 35.5t29.5 65.5q2 6 14 6q19 0 25 -6l-15.5 -41.5l-16.5 -46t-13 -40.5t-9 -38q-51 0 -161 2t-180 2l-121 -3q-3 3 -3 16t3 13q13 0 38.5 7t30.5 16
q7 12 7 94v378q0 59 -7 86q-3 8 -29.5 15t-39.5 7q-4 0 -4 12q0 13 4 17q52 -2 119 -2zM294 800q86 58 105 58q9 0 9 -20q0 -1 -9 -8t-24.5 -20.5l-28.5 -25.5q-20 -20 -41 -48q-5 -8 -11 -8q-3 0 -10 8q-14 20 -42 46l-35.5 32.5t-25.5 23.5q0 20 10 20q9 0 44 -20t59 -38z
" />
    <glyph glyph-name="ecaron" unicode="&#x11b;" horiz-adv-x="430" 
d="M225 399q-52 0 -79.5 -44.5t-27.5 -73.5q0 -7 6 -7h195q5 0 5 10q0 32 -27 73.5t-72 41.5zM235 436q46 0 81 -17.5t53.5 -45t27 -56t8.5 -56.5q0 -20 -6 -24.5t-23 -4.5h-252q-8 0 -8 -5q0 -63 38 -116t110 -53q21 0 40 4t32.5 9.5t23 11t16.5 10.5l7 5q6 0 6 -13
q0 -8 -6 -18q-20 -28 -59 -50.5t-85 -22.5q-83 0 -142.5 62.5t-59.5 152.5q0 105 56.5 166t141.5 61zM224 580q23 21 54 43.5t39 22.5t8 -23q0 -1 -8 -9l-22 -23t-25 -29q-12 -16 -36 -55q-5 -9 -9 -9t-9 9q-13 22 -37 52q-13 16 -32 37.5t-22 26.5q0 23 9 23q8 0 38 -22.5
t52 -43.5z" />
    <glyph glyph-name="Gcircumflex" unicode="&#x11c;" horiz-adv-x="715" 
d="M44 322q0 142 95 243.5t233 101.5q71 0 237 -45q4 -114 4 -124q0 -15 -21 -15q-10 0 -13 5q-27 137 -204 137q-100 0 -167 -85t-67 -205q0 -111 73.5 -204.5t184.5 -93.5q88 0 130 22q7 3 7 15l-1 82v7q0 65 -8 86q-4 10 -32.5 16t-44.5 6q-4 0 -4 12.5t4 16.5
q128 -5 131 -5q8 0 108 5q2 -6 2 -14q0 -15 -4 -15q-6 0 -27.5 -6.5t-30.5 -11.5q-10 -7 -10 -67q0 -21 1.5 -45.5t1.5 -26.5q0 -18 7 -35t7 -20q0 -8 -25 -18q-2 -1 -19.5 -7.5t-22.5 -8.5t-22.5 -7.5t-28 -7.5l-30 -6t-37 -5.5t-41 -3t-49.5 -1.5q-132 0 -224.5 97
t-92.5 231zM483 698q-19 0 -105 58q-24 -18 -59 -38t-44 -20q-10 0 -10 20q4 4 25.5 23.5l35.5 32.5q28 26 42 46q7 8 10 8q6 0 11 -8q21 -28 41 -48l28.5 -25.5t24.5 -20.5t9 -8q0 -20 -9 -20z" />
    <glyph glyph-name="gcircumflex" unicode="&#x11d;" horiz-adv-x="474" 
d="M379 -85q0 42 -41 56.5t-163 14.5q-2 0 -6 -2q-1 -1 -9 -4.5t-10 -4.5t-9 -5.5t-9.5 -6t-8.5 -6t-8 -8t-6 -8.5t-5.5 -10t-3 -11.5t-1.5 -13.5q0 -43 44.5 -69.5t98.5 -26.5q60 0 98.5 32t38.5 73zM123 296q0 -46 28.5 -78t66.5 -32q39 0 64.5 30t25.5 72q0 46 -28.5 78
t-66.5 32q-39 0 -64.5 -30t-25.5 -72zM217 432q37 0 85 -13t79 -13h58q6 -2 6 -25q0 -14 -6 -14h-71q-4 0 -4 -3l10 -24q11 -24 11 -48q0 -54 -48 -97t-118 -43q-32 0 -56 4q-13 -7 -27.5 -25t-14.5 -32t8 -22.5t23 -12t29 -5t33 -1.5h7q124 -2 174 -25.5t50 -70.5
q0 -77 -65 -132.5t-167 -56.5q-71 -1 -127.5 27t-56.5 84q0 62 98 106q-27 4 -50 25t-23 51q0 26 22.5 54t50.5 46q-30 11 -55.5 47.5t-25.5 78.5q0 59 49.5 99.5t121.5 40.5zM307 497q-8 0 -39 22.5t-54 43.5q-22 -21 -52 -43.5t-38 -22.5q-9 0 -9 23q3 4 22 25.5t32 37.5
q22 27 37 53q6 10 8 10q5 0 10 -10q24 -39 36 -55q11 -14 24.5 -29t21.5 -23t8 -9q0 -23 -7 -23z" />
    <glyph glyph-name="Gbreve" unicode="&#x11e;" horiz-adv-x="715" 
d="M44 322q0 142 95 243.5t233 101.5q71 0 237 -45q4 -114 4 -124q0 -15 -21 -15q-10 0 -13 5q-27 137 -204 137q-100 0 -167 -85t-67 -205q0 -111 73.5 -204.5t184.5 -93.5q88 0 130 22q7 3 7 15l-1 82v7q0 65 -8 86q-4 10 -32.5 16t-44.5 6q-4 0 -4 12.5t4 16.5
q128 -5 131 -5q8 0 108 5q2 -6 2 -14q0 -15 -4 -15q-6 0 -27.5 -6.5t-30.5 -11.5q-10 -7 -10 -67q0 -21 1.5 -45.5t1.5 -26.5q0 -18 7 -35t7 -20q0 -8 -25 -18q-2 -1 -19.5 -7.5t-22.5 -8.5t-22.5 -7.5t-28 -7.5l-30 -6t-37 -5.5t-41 -3t-49.5 -1.5q-132 0 -224.5 97
t-92.5 231zM377 773q32 0 56 15.5t31 42.5q0 2 4 2q5 0 11.5 -4t6.5 -7v-3q-1 -3 -1 -4q-7 -36 -38 -63t-70 -27q-40 0 -70.5 26.5t-37.5 64.5q0 1 -1 4v2q0 3 6.5 7t11.5 4q4 0 4 -2q7 -27 31 -42.5t56 -15.5z" />
    <glyph glyph-name="gbreve" unicode="&#x11f;" horiz-adv-x="474" 
d="M379 -85q0 42 -41 56.5t-163 14.5q-2 0 -6 -2q-1 -1 -9 -4.5t-10 -4.5t-9 -5.5t-9.5 -6t-8.5 -6t-8 -8t-6 -8.5t-5.5 -10t-3 -11.5t-1.5 -13.5q0 -43 44.5 -69.5t98.5 -26.5q60 0 98.5 32t38.5 73zM123 296q0 -46 28.5 -78t66.5 -32q39 0 64.5 30t25.5 72q0 46 -28.5 78
t-66.5 32q-39 0 -64.5 -30t-25.5 -72zM217 432q37 0 85 -13t79 -13h58q6 -2 6 -25q0 -14 -6 -14h-71q-4 0 -4 -3l10 -24q11 -24 11 -48q0 -54 -48 -97t-118 -43q-32 0 -56 4q-13 -7 -27.5 -25t-14.5 -32t8 -22.5t23 -12t29 -5t33 -1.5h7q124 -2 174 -25.5t50 -70.5
q0 -77 -65 -132.5t-167 -56.5q-71 -1 -127.5 27t-56.5 84q0 62 98 106q-27 4 -50 25t-23 51q0 26 22.5 54t50.5 46q-30 11 -55.5 47.5t-25.5 78.5q0 59 49.5 99.5t121.5 40.5zM213 543q31 0 55 20t32 52q0 3 4 3q5 0 11.5 -4.5t6.5 -8.5v-4q-1 -3 -1 -4q-7 -41 -37.5 -70.5
t-70.5 -29.5t-70.5 29t-37.5 72q0 1 -1 4v3q0 4 6.5 8.5t11.5 4.5q4 0 4 -3q8 -32 32 -52t55 -20z" />
    <glyph glyph-name="Gdotaccent" unicode="&#x120;" horiz-adv-x="715" 
d="M44 322q0 142 95 243.5t233 101.5q71 0 237 -45q4 -114 4 -124q0 -15 -21 -15q-10 0 -13 5q-27 137 -204 137q-100 0 -167 -85t-67 -205q0 -111 73.5 -204.5t184.5 -93.5q88 0 130 22q7 3 7 15l-1 82v7q0 65 -8 86q-4 10 -32.5 16t-44.5 6q-4 0 -4 12.5t4 16.5
q128 -5 131 -5q8 0 108 5q2 -6 2 -14q0 -15 -4 -15q-6 0 -27.5 -6.5t-30.5 -11.5q-10 -7 -10 -67q0 -21 1.5 -45.5t1.5 -26.5q0 -18 7 -35t7 -20q0 -8 -25 -18q-2 -1 -19.5 -7.5t-22.5 -8.5t-22.5 -7.5t-28 -7.5l-30 -6t-37 -5.5t-41 -3t-49.5 -1.5q-132 0 -224.5 97
t-92.5 231zM327 778q0 21 14.5 35.5t35.5 14.5t35.5 -14.5t14.5 -35.5t-14.5 -35.5t-35.5 -14.5t-35.5 14.5t-14.5 35.5z" />
    <glyph glyph-name="gdotaccent" unicode="&#x121;" horiz-adv-x="474" 
d="M379 -85q0 42 -41 56.5t-163 14.5q-2 0 -6 -2q-1 -1 -9 -4.5t-10 -4.5t-9 -5.5t-9.5 -6t-8.5 -6t-8 -8t-6 -8.5t-5.5 -10t-3 -11.5t-1.5 -13.5q0 -43 44.5 -69.5t98.5 -26.5q60 0 98.5 32t38.5 73zM123 296q0 -46 28.5 -78t66.5 -32q39 0 64.5 30t25.5 72q0 46 -28.5 78
t-66.5 32q-39 0 -64.5 -30t-25.5 -72zM217 432q37 0 85 -13t79 -13h58q6 -2 6 -25q0 -14 -6 -14h-71q-4 0 -4 -3l10 -24q11 -24 11 -48q0 -54 -48 -97t-118 -43q-32 0 -56 4q-13 -7 -27.5 -25t-14.5 -32t8 -22.5t23 -12t29 -5t33 -1.5h7q124 -2 174 -25.5t50 -70.5
q0 -77 -65 -132.5t-167 -56.5q-71 -1 -127.5 27t-56.5 84q0 62 98 106q-27 4 -50 25t-23 51q0 26 22.5 54t50.5 46q-30 11 -55.5 47.5t-25.5 78.5q0 59 49.5 99.5t121.5 40.5zM163 593q0 21 14.5 35.5t35.5 14.5t35.5 -14.5t14.5 -35.5t-14.5 -35.5t-35.5 -14.5t-35.5 14.5
t-14.5 35.5z" />
    <glyph glyph-name="Gcommaaccent" unicode="&#x122;" horiz-adv-x="715" 
d="M44 322q0 142 95 243.5t233 101.5q71 0 237 -45q4 -114 4 -124q0 -15 -21 -15q-10 0 -13 5q-27 137 -204 137q-100 0 -167 -85t-67 -205q0 -111 73.5 -204.5t184.5 -93.5q88 0 130 22q7 3 7 15l-1 82v7q0 65 -8 86q-4 10 -32.5 16t-44.5 6q-4 0 -4 12.5t4 16.5
q128 -5 131 -5q8 0 108 5q2 -6 2 -14q0 -15 -4 -15q-6 0 -27.5 -6.5t-30.5 -11.5q-10 -7 -10 -67q0 -21 1.5 -45.5t1.5 -26.5q0 -18 7 -35t7 -20q0 -8 -25 -18q-2 -1 -19.5 -7.5t-22.5 -8.5t-22.5 -7.5t-28 -7.5l-30 -6t-37 -5.5t-41 -3t-49.5 -1.5q-132 0 -224.5 97
t-92.5 231zM319 -101q0 22 19 38.5t60 16.5q9 -7 15.5 -23.5t6.5 -29.5q0 -80 -82 -126q-2 -2 -8 -2q-20 0 -20 7l23 22q23 23 23 37q0 13 -18.5 29t-18.5 31z" />
    <glyph glyph-name="gcommaaccent" unicode="&#x123;" horiz-adv-x="474" 
d="M379 -85q0 42 -41 56.5t-163 14.5q-2 0 -6 -2q-1 -1 -9 -4.5t-10 -4.5t-9 -5.5t-9.5 -6t-8.5 -6t-8 -8t-6 -8.5t-5.5 -10t-3 -11.5t-1.5 -13.5q0 -43 44.5 -69.5t98.5 -26.5q60 0 98.5 32t38.5 73zM123 296q0 -46 28.5 -78t66.5 -32q39 0 64.5 30t25.5 72q0 46 -28.5 78
t-66.5 32q-39 0 -64.5 -30t-25.5 -72zM217 432q37 0 85 -13t79 -13h58q6 -2 6 -25q0 -14 -6 -14h-71q-4 0 -4 -3l10 -24q11 -24 11 -48q0 -54 -48 -97t-118 -43q-32 0 -56 4q-13 -7 -27.5 -25t-14.5 -32t8 -22.5t23 -12t29 -5t33 -1.5h7q124 -2 174 -25.5t50 -70.5
q0 -77 -65 -132.5t-167 -56.5q-71 -1 -127.5 27t-56.5 84q0 62 98 106q-27 4 -50 25t-23 51q0 26 22.5 54t50.5 46q-30 11 -55.5 47.5t-25.5 78.5q0 59 49.5 99.5t121.5 40.5zM264 538q0 -22 -19 -38.5t-60 -16.5q-9 7 -15.5 23.5t-6.5 29.5q0 45 27 78t55 48q2 2 8 2
q20 0 20 -7l-23 -22q-23 -23 -23 -37q0 -13 18.5 -29t18.5 -31z" />
    <glyph glyph-name="Hcircumflex" unicode="&#x124;" horiz-adv-x="707" 
d="M507 135v176l-2 4q-94 2 -148 2q-154 0 -154 -5v-173q0 -58 9 -93q2 -7 28 -13.5t36 -6.5q3 0 3.5 -12t-1.5 -17q-100 5 -116 5q-5 0 -120 -5q-4 4 -4 15q0 14 4 14q13 0 38.5 6t28.5 14q7 27 7 89v388q0 62 -7 89q-3 8 -28.5 14.5t-38.5 6.5q-4 0 -4 13q0 12 4 16
q13 -1 53 -3.5t67 -2.5q20 0 39 1t41 2.5l36 2.5q2 -4 1.5 -16.5t-3.5 -12.5q-10 0 -36 -7t-28 -14q-9 -35 -9 -93v-149l2 -3q98 -2 152 -2q58 0 148 2q2 2 2 4v152q0 62 -7 89q-3 8 -28.5 14.5t-38.5 6.5q-4 0 -4 12.5t4 16.5q12 -1 53 -3.5t68 -2.5q19 0 38 1t40.5 2.5
l35.5 2.5q2 -6 2 -15q0 -14 -4 -14q-10 0 -36 -7t-28 -14q-8 -31 -8 -93v-380q0 -62 8 -93q2 -7 28 -13.5t36 -6.5q4 0 4 -15q0 -8 -2 -14q-100 5 -114 5q-6 0 -121 -5q-4 4 -4 16.5t4 12.5q13 0 38.5 6t28.5 14q7 27 7 89zM465 698q-19 0 -105 58q-24 -18 -59 -38t-44 -20
q-10 0 -10 20q4 4 25.5 23.5l35.5 32.5q28 26 42 46q7 8 10 8q6 0 11 -8q21 -28 41 -48l28.5 -25.5t24.5 -20.5t9 -8q0 -20 -9 -20z" />
    <glyph glyph-name="hcircumflex" unicode="&#x125;" horiz-adv-x="530" 
d="M312 438q67 0 96 -48t29 -148v-108q0 -57 8 -88q2 -7 26 -13.5t34 -6.5q3 0 4 -12t-1 -17q-100 5 -107 5q-3 0 -105 -5q-4 4 -4 16.5t4 12.5q12 0 33.5 6.5t23.5 13.5q7 29 7 70v106q0 92 -25.5 123.5t-78.5 31.5q-30 0 -59.5 -23.5t-29.5 -41.5v-177q0 -58 8 -89
q2 -7 26 -13.5t34 -6.5q3 0 4 -12t-1 -17q-100 5 -107 5q-6 0 -109 -5q-4 4 -4 16.5t4 12.5q12 0 35.5 6.5t25.5 13.5q7 29 7 69v434q0 34 -6 64q-5 16 -51 16h-9q-6 0 -6 11q0 16 6 16q30 3 55.5 8t40 10t24.5 9.5t14 7.5l5 3h2q4 0 8 -5.5t5 -10.5q-11 -32 -11 -87v-219
q0 -4 2 -4q1 0 3 2q22 24 62.5 46t77.5 22zM224 702q-19 0 -105 58q-24 -18 -59 -38t-44 -20q-10 0 -10 20q4 4 25.5 23.5l35.5 32.5q28 26 42 46q7 8 10 8q6 0 11 -8q21 -28 41 -48l28.5 -25.5t24.5 -20.5t9 -8q0 -20 -9 -20z" />
    <glyph glyph-name="Hbar" unicode="&#x126;" horiz-adv-x="738" 
d="M174 656q20 0 39 1t41 2.5l36 2.5q2 -4 1.5 -16.5t-3.5 -12.5q-10 0 -36 -7t-28 -14q-9 -35 -9 -104q12 -1 154 -1q110 0 150 1q0 77 -7 104q-3 8 -28.5 14.5t-38.5 6.5q-4 0 -4 12.5t4 16.5q12 -1 53 -3.5t68 -2.5q19 0 38 1t40.5 2.5l35.5 2.5q2 -6 2 -15q0 -14 -4 -14
q-10 0 -36 -7t-28 -14q-8 -31 -8 -104h41q5 0 5 -13q0 -16 -6 -25h-40v-331q0 -62 8 -93q2 -7 28 -13.5t36 -6.5q4 0 4 -15q0 -8 -2 -14q-100 5 -114 5q-6 0 -121 -5q-4 4 -4 16.5t4 12.5q13 0 38.5 6t28.5 14q7 27 7 89v158l-2 4q-94 2 -148 2q-154 0 -154 -5v-155
q0 -58 9 -93q2 -7 28 -13.5t36 -6.5q3 0 3.5 -12t-1.5 -17q-100 5 -116 5q-5 0 -120 -5q-4 4 -4 15q0 14 4 14q13 0 38.5 6t28.5 14q7 27 7 89v335h-34q-5 0 -5 13q0 16 6 25h33q0 77 -7 104q-3 8 -28.5 14.5t-38.5 6.5q-4 0 -4 13q0 12 4 16q13 -1 53 -3.5t67 -2.5z
M369 471q-109 0 -154 -1v-118q0 -3 2 -3q98 -2 152 -2q58 0 148 2q2 2 2 4v117q-41 1 -150 1z" />
    <glyph glyph-name="hbar" unicode="&#x127;" horiz-adv-x="535" 
d="M43 569h265q6 0 6 -10q0 -17 -6 -30h-266q-5 0 -5 13q0 18 6 27zM312 438q67 0 96 -48t29 -148v-108q0 -57 8 -88q2 -7 26 -13.5t34 -6.5q3 0 4 -12t-1 -17q-100 5 -107 5q-3 0 -105 -5q-4 4 -4 16.5t4 12.5q12 0 33.5 6.5t23.5 13.5q7 29 7 70v106q0 92 -25.5 123.5
t-78.5 31.5q-30 0 -59.5 -23.5t-29.5 -41.5v-177q0 -58 8 -89q2 -7 26 -13.5t34 -6.5q3 0 4 -12t-1 -17q-100 5 -107 5q-6 0 -109 -5q-4 4 -4 16.5t4 12.5q12 0 35.5 6.5t25.5 13.5q7 29 7 69v434q0 34 -6 64q-5 16 -51 16h-9q-6 0 -6 11q0 16 6 16q30 3 55.5 8t40 10
t24.5 9.5t14 7.5l5 3h2q4 0 8 -5.5t5 -10.5q-11 -32 -11 -87v-219q0 -4 2 -4q1 0 3 2q22 24 62.5 46t77.5 22z" />
    <glyph glyph-name="Itilde" unicode="&#x128;" horiz-adv-x="318" 
d="M245 766q36 0 51 34q2 1 6 1q9 0 9 -16q0 -28 -27.5 -49t-50.5 -21q-29 0 -71 21.5t-69 21.5q-33 0 -49 -35q-2 -1 -6 -1q-9 0 -9 16q0 28 27.5 49t50.5 21q28 0 69 -21t69 -21zM116 523q0 62 -7 89q-3 8 -28.5 14.5t-38.5 6.5q-4 0 -4 13q0 12 4 16q115 -5 120 -5
q16 0 116 5q2 -6 2 -15q0 -14 -4 -14q-10 0 -36 -7t-28 -14q-9 -35 -9 -93v-380q0 -58 9 -93q2 -7 28 -13.5t36 -6.5q4 0 4 -15q0 -8 -2 -14q-100 5 -116 5q-5 0 -120 -5q-4 4 -4 15q0 14 4 14q13 0 38.5 6t28.5 14q7 27 7 89v388z" />
    <glyph glyph-name="itilde" unicode="&#x129;" horiz-adv-x="282" 
d="M178 135q0 -58 8 -89q2 -7 26 -13.5t34 -6.5q3 0 4 -12t-1 -17q-100 5 -107 5q-6 0 -109 -5q-4 4 -4 16.5t4 12.5q12 0 35.5 6.5t25.5 13.5q7 29 7 70v189q0 39 -14 54q-10 12 -24.5 16.5t-24 4.5t-9.5 2q0 24 6 25q106 16 138 26q1 0 3 0.5l2 0.5q4 0 5 -8.5t0 -12.5
q-5 -40 -5 -72v-206zM204 548q36 0 51 34q2 1 6 1q9 0 9 -16q0 -28 -27.5 -49t-50.5 -21q-29 0 -71 21.5t-69 21.5q-33 0 -49 -35q-2 -1 -6 -1q-9 0 -9 16q0 28 27.5 49t50.5 21q28 0 69 -21t69 -21z" />
    <glyph glyph-name="Imacron" unicode="&#x12a;" horiz-adv-x="318" 
d="M116 523q0 62 -7 89q-3 8 -28.5 14.5t-38.5 6.5q-4 0 -4 13q0 12 4 16q115 -5 120 -5q16 0 116 5q2 -6 2 -15q0 -14 -4 -14q-10 0 -36 -7t-28 -14q-9 -35 -9 -93v-380q0 -58 9 -93q2 -7 28 -13.5t36 -6.5q4 0 4 -15q0 -8 -2 -14q-100 5 -116 5q-5 0 -120 -5q-4 4 -4 15
q0 14 4 14q13 0 38.5 6t28.5 14q7 27 7 89v388zM32 751q0 39 14 39h250q6 0 6 -7q0 -13 -7 -34q-1 -3 -3 -4.5t-4 -2.5h-1h-248h-2t-3 2.5t-2 6.5z" />
    <glyph glyph-name="imacron" unicode="&#x12b;" horiz-adv-x="282" 
d="M178 135q0 -58 8 -89q2 -7 26 -13.5t34 -6.5q3 0 4 -12t-1 -17q-100 5 -107 5q-6 0 -109 -5q-4 4 -4 16.5t4 12.5q12 0 35.5 6.5t25.5 13.5q7 29 7 70v189q0 39 -14 54q-10 12 -24.5 16.5t-24 4.5t-9.5 2q0 24 6 25q106 16 138 26q1 0 3 0.5l2 0.5q4 0 5 -8.5t0 -12.5
q-5 -40 -5 -72v-206zM6 522q0 37 12 37h208q5 0 5 -7q0 -10 -6 -32q-1 -3 -2.5 -4.5l-2.5 -2.5h-2h-206l-4 2q-2 3 -2 7z" />
    <glyph glyph-name="Ibreve" unicode="&#x12c;" horiz-adv-x="318" 
d="M116 523q0 62 -7 89q-3 8 -28.5 14.5t-38.5 6.5q-4 0 -4 13q0 12 4 16q115 -5 120 -5q16 0 116 5q2 -6 2 -15q0 -14 -4 -14q-10 0 -36 -7t-28 -14q-9 -35 -9 -93v-380q0 -58 9 -93q2 -7 28 -13.5t36 -6.5q4 0 4 -15q0 -8 -2 -14q-100 5 -116 5q-5 0 -120 -5q-4 4 -4 15
q0 14 4 14q13 0 38.5 6t28.5 14q7 27 7 89v388zM165 773q32 0 56 15.5t31 42.5q0 2 4 2q5 0 11.5 -4t6.5 -7v-3q-1 -3 -1 -4q-7 -36 -38 -63t-70 -27q-40 0 -70.5 26.5t-37.5 64.5q0 1 -1 4v2q0 3 6.5 7t11.5 4q4 0 4 -2q7 -27 31 -42.5t56 -15.5z" />
    <glyph glyph-name="ibreve" unicode="&#x12d;" horiz-adv-x="282" 
d="M178 135q0 -58 8 -89q2 -7 26 -13.5t34 -6.5q3 0 4 -12t-1 -17q-100 5 -107 5q-6 0 -109 -5q-4 4 -4 16.5t4 12.5q12 0 35.5 6.5t25.5 13.5q7 29 7 70v189q0 39 -14 54q-10 12 -24.5 16.5t-24 4.5t-9.5 2q0 24 6 25q106 16 138 26q1 0 3 0.5l2 0.5q4 0 5 -8.5t0 -12.5
q-5 -40 -5 -72v-206zM125 543q31 0 55 20t32 52q0 3 4 3q5 0 11.5 -4.5t6.5 -8.5v-4q-1 -3 -1 -4q-7 -41 -37.5 -70.5t-70.5 -29.5t-70.5 29t-37.5 72q0 1 -1 4v3q0 4 6.5 8.5t11.5 4.5q4 0 4 -3q8 -32 32 -52t55 -20z" />
    <glyph glyph-name="Iogonek" unicode="&#x12e;" horiz-adv-x="347" 
d="M173 657q16 0 116 5q2 -6 2 -15q0 -14 -4 -14q-10 0 -36 -7t-28 -14q-9 -35 -9 -93v-380q0 -58 9 -93q2 -7 28 -13.5t36 -6.5q4 0 4 -15q0 -8 -2 -14q-45 3 -53 3q-40 -24 -73.5 -58t-33.5 -64q0 -16 9 -29.5t32 -13.5q22 0 41 9.5t29 19t11 9.5q4 0 4 -13t-4 -18
q-50 -66 -105 -66q-37 0 -54 25t-17 52q0 37 35 77.5t81 71.5h-18q-5 0 -120 -5q-4 4 -4 15q0 14 4 14q13 0 38.5 6t28.5 14q7 27 7 89v388q0 62 -7 89q-3 8 -28.5 14.5t-38.5 6.5q-4 0 -4 13q0 12 4 16q115 -5 120 -5z" />
    <glyph glyph-name="iogonek" unicode="&#x12f;" horiz-adv-x="323" 
d="M53 -3q-4 4 -4 16.5t4 12.5q12 0 35.5 6.5t25.5 13.5q7 29 7 70v189q0 39 -14 54q-10 12 -24.5 16.5t-24 4.5t-9.5 2q0 24 6 25q106 16 138 26q1 0 3 0.5l2 0.5q4 0 5 -8.5t0 -12.5q-5 -40 -5 -72v-206q0 -58 8 -89q2 -7 26 -13.5t34 -6.5q3 0 4 -12t-1 -17
q-5 0 -18.5 0.5t-18.5 1.5q-40 -25 -72.5 -58.5t-32.5 -62.5q0 -16 9 -29.5t32 -13.5q22 0 41 9.5t29 19t11 9.5q4 0 4 -13t-4 -18q-50 -66 -105 -66q-37 0 -54 25t-17 52q0 37 34.5 77t81.5 71q-4 0 -13 0.5t-14 0.5q-6 0 -109 -5zM108 593q0 21 14.5 35.5t35.5 14.5
t35.5 -14.5t14.5 -35.5t-14.5 -35.5t-35.5 -14.5t-35.5 14.5t-14.5 35.5z" />
    <glyph glyph-name="Idotaccent" unicode="&#x130;" horiz-adv-x="318" 
d="M116 523q0 62 -7 89q-3 8 -28.5 14.5t-38.5 6.5q-4 0 -4 13q0 12 4 16q115 -5 120 -5q16 0 116 5q2 -6 2 -15q0 -14 -4 -14q-10 0 -36 -7t-28 -14q-9 -35 -9 -93v-380q0 -58 9 -93q2 -7 28 -13.5t36 -6.5q4 0 4 -15q0 -8 -2 -14q-100 5 -116 5q-5 0 -120 -5q-4 4 -4 15
q0 14 4 14q13 0 38.5 6t28.5 14q7 27 7 89v388zM115 778q0 21 14.5 35.5t35.5 14.5t35.5 -14.5t14.5 -35.5t-14.5 -35.5t-35.5 -14.5t-35.5 14.5t-14.5 35.5z" />
    <glyph glyph-name="dotlessi" unicode="&#x131;" horiz-adv-x="282" 
d="M178 135q0 -58 8 -89q2 -7 26 -13.5t34 -6.5q3 0 4 -12t-1 -17q-100 5 -107 5q-6 0 -109 -5q-4 4 -4 16.5t4 12.5q12 0 35.5 6.5t25.5 13.5q7 29 7 70v189q0 39 -14 54q-10 12 -24.5 16.5t-24 4.5t-9.5 2q0 24 6 25q106 16 138 26q1 0 3 0.5l2 0.5q4 0 5 -8.5t0 -12.5
q-5 -40 -5 -72v-206z" />
    <glyph glyph-name="IJ" unicode="&#x132;" horiz-adv-x="640" 
d="M144 523q0 62 -7 89q-3 8 -28.5 14.5t-38.5 6.5q-4 0 -4 13q0 12 4 16q115 -5 120 -5q16 0 116 5q2 -6 2 -15q0 -14 -4 -14q-10 0 -36 -7t-28 -14q-9 -35 -9 -93v-380q0 -58 9 -93q2 -7 28 -13.5t36 -6.5q4 0 4 -15q0 -8 -2 -14q-100 5 -116 5q-5 0 -120 -5q-4 4 -4 15
q0 14 4 14q13 0 38.5 6t28.5 14q7 27 7 89v388zM357 656q20 0 39 1t41 2.5l36 2.5q2 -6 2 -15q0 -14 -4 -14q-10 0 -36 -7t-28 -14q-9 -35 -9 -93v-434q0 -126 -70.5 -219t-179.5 -93q-11 0 -24 4t-21 8l-7 4q-12 14 -12 37q0 22 18.5 36t43.5 14q18 0 40.5 -21.5
t35.5 -21.5q14 0 28.5 14t28.5 41t23 76.5t9 112.5v446q0 62 -7 89q-3 8 -28.5 14.5t-38.5 6.5q-4 0 -4 13q0 12 4 16q13 -1 53 -3.5t67 -2.5z" />
    <glyph glyph-name="ij" unicode="&#x133;" horiz-adv-x="519" 
d="M112 593q0 21 14.5 35.5t35.5 14.5t35.5 -14.5t14.5 -35.5t-14.5 -35.5t-35.5 -14.5t-35.5 14.5t-14.5 35.5zM208 135q0 -58 8 -89q2 -7 26 -13.5t34 -6.5q3 0 4 -12t-1 -17q-100 5 -107 5t-109 -5q-4 4 -4 16.5t4 12.5q12 0 35.5 6.5t25.5 13.5q7 29 7 70v189
q0 39 -14 54q-10 12 -24.5 16.5t-24 4.5t-9.5 2q0 24 6 25q106 16 138 26l2 1h3q4 0 5 -8.5t0 -12.5q-5 -40 -5 -72v-206zM346 305q0 39 -14 54q-10 12 -24.5 16.5t-24 4.5t-9.5 2q0 24 6 25q106 16 138 26q1 0 3 0.5l2 0.5q4 0 5 -8.5t0 -12.5q-5 -40 -5 -72v-273
q0 -127 -39 -188q-25 -39 -63.5 -69t-70.5 -42q-9 6 -13 15q-2 5 0 7l12 6q12 6 27.5 21t31.5 40t27 74t11 113v260zM320 593q0 21 14.5 35.5t35.5 14.5t35.5 -14.5t14.5 -35.5t-14.5 -35.5t-35.5 -14.5t-35.5 14.5t-14.5 35.5z" />
    <glyph glyph-name="Jcircumflex" unicode="&#x134;" horiz-adv-x="322" 
d="M178 656q20 0 39 1t41 2.5l36 2.5q2 -6 2 -15q0 -14 -4 -14q-10 0 -36 -7t-28 -14q-9 -35 -9 -93v-434q0 -126 -70.5 -219t-179.5 -93q-11 0 -24 4t-21 8l-7 4q-12 14 -12 37q0 22 18.5 36t43.5 14q18 0 40.5 -21.5t35.5 -21.5q14 0 28.5 14t28.5 41t23 76.5t9 112.5v446
q0 62 -7 89q-3 8 -28.5 14.5t-38.5 6.5q-4 0 -4 13q0 12 4 16q13 -1 53 -3.5t67 -2.5zM283 728q-19 0 -105 58q-24 -18 -59 -38t-44 -20q-10 0 -10 20q4 4 25.5 23.5l35.5 32.5q28 26 42 46q7 8 10 8q6 0 11 -8q21 -28 41 -48l28.5 -25.5t24.5 -20.5t9 -8q0 -20 -9 -20z" />
    <glyph glyph-name="jcircumflex" unicode="&#x135;" horiz-adv-x="264" 
d="M251 467q-8 0 -39 22.5t-54 43.5q-22 -21 -52 -43.5t-38 -22.5q-9 0 -9 23q3 4 22 25.5t32 37.5q22 27 37 53q6 10 8 10q5 0 10 -10q24 -39 36 -55q11 -14 24.5 -29t21.5 -23t8 -9q0 -23 -7 -23zM132 305q0 39 -14 54q-10 12 -24.5 16.5t-24 4.5t-9.5 2q0 24 6 25
q106 16 138 26l2 1h3q4 0 5 -8.5t0 -12.5q-5 -40 -5 -72v-273q0 -127 -39 -188q-25 -39 -63.5 -69t-70.5 -42q-8 5 -12 15q-3 5 -1 7l12 6q12 6 27.5 21t31.5 40t27 74t11 113v260z" />
    <glyph glyph-name="Kcommaaccent" unicode="&#x136;" horiz-adv-x="693" 
d="M165 656q20 0 39 1t41 2.5l36 2.5q2 -4 1.5 -16.5t-3.5 -12.5q-10 0 -36 -7t-28 -14q-9 -35 -9 -93v-163l7 -6h7q32 0 58 29q117 131 172 203q24 29 24 38q0 17 -57 17q-4 0 -4 9t2 16l34 -2.5t39 -2.5t34 -1q25 0 57 2.5l44 3.5q2 -4 1.5 -14.5t-3.5 -10.5
q-61 -7 -92 -42l-201 -234q-8 -9 7 -27l241 -265q16 -17 42 -28t40.5 -13t23.5 -2q5 0 5 -18q0 -7 -2 -11q-100 5 -124 5q-25 0 -45 -1t-45 -2t-45 -2q-4 4 -4 16.5t4 12.5q12 0 27.5 4t15.5 12q0 32 -227 265q-4 4 -29 4q-7 0 -7 -8v-164q0 -58 9 -93q2 -7 28 -13.5
t36 -6.5q3 0 3.5 -12t-1.5 -17q-100 5 -116 5q-5 0 -120 -5q-4 4 -4 15q0 14 4 14q13 0 38.5 6t28.5 14q7 27 7 89v388q0 62 -7 89q-3 8 -28.5 14.5t-38.5 6.5q-4 0 -4 13q0 12 4 16q13 -1 53 -3.5t67 -2.5zM300 -101q0 22 19 38.5t60 16.5q9 -7 15.5 -23.5t6.5 -29.5
q0 -80 -82 -126q-2 -2 -8 -2q-20 0 -20 7l23 22q23 23 23 37q0 13 -18.5 29t-18.5 31z" />
    <glyph glyph-name="kcommaaccent" unicode="&#x137;" horiz-adv-x="496" 
d="M387 368q-17 -10 -65 -47.5t-83 -73.5l71 -78.5l69 -77t37 -38.5q17 -14 43 -21.5t37 -7.5q4 0 4 -16q0 -9 -1 -11q-100 5 -109 5q-2 0 -104 -5q-4 4 -4 15.5t4 11.5q10 0 23 4t13 9q0 2 -1 3l-146 158l-12 -3v-60q2 -66 8 -89q2 -7 26 -13.5t34 -6.5q3 0 4 -12t-1 -17
q-100 5 -107 5q-6 0 -109 -5q-4 4 -4 16.5t4 12.5q12 0 35.5 6.5t25.5 13.5q7 29 7 70v433q0 34 -6 64q-5 16 -51 16h-9q-6 0 -6 11q0 16 6 16q30 3 55.5 8t40 10t24.5 9.5t14 7.5l5 3h2q4 0 8 -5.5t5 -10.5q-11 -32 -11 -87v-350q21 5 25 9l46 39l36 30l23 20t15 16t4 12
q0 12 -22 14t-23 4q-7 20 1 23h79q15 0 31.5 1t39 2t39.5 2q4 -2 4.5 -9t-1.5 -13t-4 -6q-13 0 -37 -6t-32 -11zM201 -101q0 22 19 38.5t60 16.5q9 -7 15.5 -23.5t6.5 -29.5q0 -80 -82 -126q-2 -2 -8 -2q-20 0 -20 7l23 22q23 23 23 37q0 13 -18.5 29t-18.5 31z" />
    <glyph glyph-name="kgreenlandic" unicode="&#x138;" horiz-adv-x="590" 
d="M224 250l35.5 29.5l33.5 28l27.5 23.5l24.5 21l17.5 16t12 13t3.5 8q0 12 -22 14t-23 4q-7 20 1 23h79q16 0 32 1t38.5 2t38.5 2q10 -6 3 -27q-1 -2 -15 -2q-37 -3 -58 -16q-10 -7 -71 -57.5t-98 -84.5l69 -82l63.5 -76t33.5 -37q16 -14 42 -21.5t38 -7.5q4 0 4 -16
q0 -9 -1 -11q-100 5 -109 5q-1 0 -104 -5q-4 4 -4 15.5t4 11.5q10 0 23 4t13 9q0 2 -1 3l-143 158l-12 -3v-60q-2 -52 8 -89q2 -7 26 -13.5t34 -6.5q3 0 4 -12t-1 -17q-100 5 -107 5t-109 -5q-4 4 -4 16.5t4 12.5q12 0 35.5 6.5t25.5 13.5q7 29 7 70v173q0 34 -6 64
q-5 16 -51 16h-9q-6 0 -6 11q0 16 6 16q30 3 55.5 8t40 10t24.5 9.5t14 7.5l5 3h2q4 0 8 -5.5t5 -10.5q-11 -32 -11 -87v-90q21 5 25 9z" />
    <glyph glyph-name="Lacute" unicode="&#x139;" horiz-adv-x="568" 
d="M161 656q20 0 39 1t41 2.5l36 2.5q2 -6 2 -15q0 -14 -4 -14q-10 0 -36 -7t-28 -14q-9 -35 -9 -93v-377q0 -53 9 -88q3 -10 68 -10h48q93 0 126 17q15 8 33.5 35.5t29.5 65.5q2 6 14 6q19 0 25 -6l-15.5 -41.5l-16.5 -46t-13 -40.5t-9 -38q-52 0 -162.5 3t-178.5 3
l-121 -3q-3 3 -3 16t3 13q14 0 39 6t30 15q7 12 7 94v378q0 64 -7 91q-3 8 -28.5 14.5t-38.5 6.5q-4 0 -4 13q0 12 4 16q13 -1 53 -3.5t67 -2.5zM123 741q0 7 46 52t73 65q6 3 18 3q26 0 39 -9.5t13 -20.5q0 -23 -80 -63t-99 -40q-10 0 -10 13z" />
    <glyph glyph-name="lacute" unicode="&#x13a;" horiz-adv-x="251" 
d="M87 116v433q0 34 -6 64q-5 16 -51 16h-9q-6 0 -6 11q0 16 6 16q30 3 55.5 8t40 10t24.5 9.5t15 7.5l4 3h2q4 0 8 -5.5t5 -10.5q-11 -32 -11 -87v-456q0 -58 8 -89q2 -7 26 -13.5t34 -6.5q3 0 4 -12t-1 -17q-100 5 -107 5q-6 0 -109 -5q-4 4 -4 16.5t4 12.5q12 0 35.5 6.5
t25.5 13.5q7 29 7 70zM70 741q0 7 46 52t73 65q6 3 18 3q26 0 39 -9.5t13 -20.5q0 -23 -80 -63t-99 -40q-10 0 -10 13z" />
    <glyph glyph-name="Lcommaaccent" unicode="&#x13b;" horiz-adv-x="568" 
d="M161 656q20 0 39 1t41 2.5l36 2.5q2 -6 2 -15q0 -14 -4 -14q-10 0 -36 -7t-28 -14q-9 -35 -9 -93v-377q0 -53 9 -88q3 -10 68 -10h48q93 0 126 17q15 8 33.5 35.5t29.5 65.5q2 6 14 6q19 0 25 -6l-15.5 -41.5l-16.5 -46t-13 -40.5t-9 -38q-52 0 -162.5 3t-178.5 3
l-121 -3q-3 3 -3 16t3 13q14 0 39 6t30 15q7 12 7 94v378q0 64 -7 91q-3 8 -28.5 14.5t-38.5 6.5q-4 0 -4 13q0 12 4 16q13 -1 53 -3.5t67 -2.5zM254 -101q0 22 19 38.5t60 16.5q9 -7 15.5 -23.5t6.5 -29.5q0 -80 -82 -126q-2 -2 -8 -2q-20 0 -20 7l23 22q23 23 23 37
q0 13 -18.5 29t-18.5 31z" />
    <glyph glyph-name="lcommaaccent" unicode="&#x13c;" horiz-adv-x="251" 
d="M87 116v433q0 34 -6 64q-5 16 -51 16h-9q-6 0 -6 11q0 16 6 16q30 3 55.5 8t40 10t24.5 9.5t15 7.5l4 3h2q4 0 8 -5.5t5 -10.5q-11 -32 -11 -87v-456q0 -58 8 -89q2 -7 26 -13.5t34 -6.5q3 0 4 -12t-1 -17q-100 5 -107 5q-6 0 -109 -5q-4 4 -4 16.5t4 12.5q12 0 35.5 6.5
t25.5 13.5q7 29 7 70zM76 -101q0 22 19 38.5t60 16.5q9 -7 15.5 -23.5t6.5 -29.5q0 -80 -82 -126q-2 -2 -8 -2q-20 0 -20 7l23 22q23 23 23 37q0 13 -18.5 29t-18.5 31z" />
    <glyph glyph-name="Lcaron" unicode="&#x13d;" horiz-adv-x="568" 
d="M161 656q20 0 39 1t41 2.5l36 2.5q2 -6 2 -15q0 -14 -4 -14q-10 0 -36 -7t-28 -14q-9 -35 -9 -93v-377q0 -53 9 -88q3 -10 68 -10h48q93 0 126 17q15 8 33.5 35.5t29.5 65.5q2 6 14 6q19 0 25 -6l-15.5 -41.5l-16.5 -46t-13 -40.5t-9 -38q-52 0 -162.5 3t-178.5 3
l-121 -3q-3 3 -3 16t3 13q14 0 39 6t30 15q7 12 7 94v378q0 64 -7 91q-3 8 -28.5 14.5t-38.5 6.5q-4 0 -4 13q0 12 4 16q13 -1 53 -3.5t67 -2.5zM469 642q0 23 18.5 37t49.5 14q15 -18 15 -62q0 -31 -27 -71.5t-48 -52.5q-1 -1 -7 -1q-4 0 -9 4.5t-5 8.5l9 8q8 9 17 25.5
t9 36.5q0 6 -11 22t-11 31z" />
    <glyph glyph-name="lcaron" unicode="&#x13e;" horiz-adv-x="251" 
d="M87 116v433q0 34 -6 64q-5 16 -51 16h-9q-6 0 -6 11q0 16 6 16q30 3 55.5 8t40 10t24.5 9.5t15 7.5l4 3h2q4 0 8 -5.5t5 -10.5q-11 -32 -11 -87v-456q0 -58 8 -89q2 -7 26 -13.5t34 -6.5q3 0 4 -12t-1 -17q-100 5 -107 5q-6 0 -109 -5q-4 4 -4 16.5t4 12.5q12 0 35.5 6.5
t25.5 13.5q7 29 7 70zM219 642q0 23 18.5 37t49.5 14q15 -18 15 -62q0 -31 -27 -71.5t-48 -52.5q-1 -1 -7 -1q-4 0 -9 4.5t-5 8.5l9 8q8 9 17 25.5t9 36.5q0 6 -11 22t-11 31z" />
    <glyph glyph-name="Ldot" unicode="&#x13f;" horiz-adv-x="568" 
d="M161 656q20 0 39 1t41 2.5l36 2.5q2 -6 2 -15q0 -14 -4 -14q-10 0 -36 -7t-28 -14q-9 -35 -9 -93v-377q0 -53 9 -88q3 -10 68 -10h48q93 0 126 17q15 8 33.5 35.5t29.5 65.5q2 6 14 6q19 0 25 -6l-15.5 -41.5l-16.5 -46t-13 -40.5t-9 -38q-52 0 -162.5 3t-178.5 3
l-121 -3q-3 3 -3 16t3 13q14 0 39 6t30 15q7 12 7 94v378q0 64 -7 91q-3 8 -28.5 14.5t-38.5 6.5q-4 0 -4 13q0 12 4 16q13 -1 53 -3.5t67 -2.5zM385 314q0 21 14.5 35.5t35.5 14.5t35.5 -14.5t14.5 -35.5t-14.5 -35.5t-35.5 -14.5t-35.5 14.5t-14.5 35.5z" />
    <glyph glyph-name="ldot" unicode="&#x140;" horiz-adv-x="430" 
d="M110 116v433q0 34 -6 64q-5 16 -51 16h-9q-6 0 -6 11q0 16 6 16q30 3 55.5 8t40 10t24.5 9.5t15 7.5l4 3h2q4 0 8 -5.5t5 -10.5q-11 -32 -11 -87v-456q0 -58 8 -89q2 -7 26 -13.5t34 -6.5q3 0 4 -12t-1 -17q-100 5 -107 5q-6 0 -109 -5q-4 4 -4 16.5t4 12.5
q12 0 35.5 6.5t25.5 13.5q7 29 7 70zM290 294q0 21 14.5 35.5t35.5 14.5t35.5 -14.5t14.5 -35.5t-14.5 -35.5t-35.5 -14.5t-35.5 14.5t-14.5 35.5z" />
    <glyph glyph-name="Lslash" unicode="&#x141;" horiz-adv-x="616" 
d="M177 656q20 0 39 1t41 2.5l36 2.5q2 -6 2 -15q0 -14 -4 -14q-10 0 -36 -7t-28 -14q-9 -35 -9 -93v-199l187 127q5 -5 13 -17t5 -14l-205 -136v-138q0 -53 9 -88q3 -10 68 -10h48q93 0 126 17q15 8 33.5 35.5t29.5 65.5q2 6 14 6q19 0 25 -6l-15.5 -41.5l-16.5 -46
t-13 -40.5t-9 -38q-52 0 -162.5 3t-178.5 3l-121 -3q-3 3 -3 16t3 13q14 0 39 6t30 15q7 12 7 94v77l-59 -42q-6 6 -13 16.5t-4 12.5l76 53v261q0 64 -7 91q-3 8 -28.5 14.5t-38.5 6.5q-4 0 -4 13q0 12 4 16q13 -1 53 -3.5t67 -2.5z" />
    <glyph glyph-name="lslash" unicode="&#x142;" horiz-adv-x="285" 
d="M46 260q-6 6 -12 15.5t-3 12.5l69 47v214q0 34 -6 64q-5 16 -51 16h-9q-6 0 -6 11q0 16 6 16q30 3 55.5 8t40 10t24.5 9.5t14 7.5l5 3h2q4 0 8 -5.5t5 -10.5q-11 -32 -11 -87v-203l51 35q22 -21 16 -27l-67 -46v-215q0 -58 8 -89q2 -7 26 -13.5t34 -6.5q3 0 4 -12t-1 -17
q-100 5 -107 5t-109 -5q-4 4 -4 16.5t4 12.5q12 0 35.5 6.5t25.5 13.5q7 29 7 70v181z" />
    <glyph glyph-name="Nacute" unicode="&#x143;" horiz-adv-x="721" 
d="M551 524q0 61 -7 88q-3 8 -34.5 15.5t-44.5 7.5q-4 0 -4 11.5t4 15.5q13 -1 52 -3.5t66 -2.5q26 0 65.5 3t46.5 3q2 -6 2 -15q0 -12 -4 -12q-10 0 -43.5 -8t-35.5 -15q-8 -31 -8 -93v-380q0 -62 3 -140q-4 -4 -19 -4q-17 0 -33 23l-388 550v-427q0 -66 7 -93
q2 -7 33.5 -14.5t41.5 -7.5q3 0 3.5 -12t-1.5 -17q-100 5 -115 5l-115 -5q-3 3 -3 15q0 14 3 14q14 0 45.5 7.5t34.5 16.5q10 26 10 94v393q0 49 -7 75q-3 8 -34 14.5t-45 6.5q-4 0 -4 12.5t4 16.5q78 -2 102 -2q52 0 80 2q37 -68 339 -490q3 17 3 41v311zM297 741
q0 7 46 52t73 65q6 3 18 3q26 0 39 -9.5t13 -20.5q0 -23 -80 -63t-99 -40q-10 0 -10 13z" />
    <glyph glyph-name="nacute" unicode="&#x144;" horiz-adv-x="543" 
d="M322 438q70 0 98 -50t28 -162v-91q0 -58 8 -89q2 -7 26 -13.5t34 -6.5q3 0 4 -12t-1 -17q-100 5 -107 5q-2 0 -105 -5q-4 4 -4 16.5t4 12.5q12 0 33.5 6.5t23.5 13.5q7 29 7 70v100q0 93 -24 127t-78 34q-32 0 -61.5 -23.5t-29.5 -42.5v-176q0 -58 8 -89q2 -7 26 -13.5
t34 -6.5q3 0 4 -12t-1 -17q-100 5 -107 5q-6 0 -109 -5q-4 4 -4 16.5t4 12.5q12 0 35.5 6.5t25.5 13.5q7 29 7 70v189q0 39 -14 54q-10 12 -24.5 16.5t-24 4.5t-9.5 2q0 24 6 25q106 16 138 26q1 0 3 0.5l2 0.5q4 0 5 -8.5t0 -12.5q-4 -28 -4 -40q0 -4 2 -4q1 0 3 2
q23 24 62.5 45.5t75.5 21.5zM364 659q16 0 26 -5.5t12.5 -10t2.5 -8.5q0 -25 -71.5 -80.5t-84.5 -55.5q-12 0 -12 13q0 3 15.5 28.5t38 58t39.5 51.5q9 9 34 9z" />
    <glyph glyph-name="Ncommaaccent" unicode="&#x145;" horiz-adv-x="721" 
d="M551 524q0 61 -7 88q-3 8 -34.5 15.5t-44.5 7.5q-4 0 -4 11.5t4 15.5q13 -1 52 -3.5t66 -2.5q26 0 65.5 3t46.5 3q2 -6 2 -15q0 -12 -4 -12q-10 0 -43.5 -8t-35.5 -15q-8 -31 -8 -93v-380q0 -62 3 -140q-4 -4 -19 -4q-17 0 -33 23l-388 550v-427q0 -66 7 -93
q2 -7 33.5 -14.5t41.5 -7.5q3 0 3.5 -12t-1.5 -17q-100 5 -115 5l-115 -5q-3 3 -3 15q0 14 3 14q14 0 45.5 7.5t34.5 16.5q10 26 10 94v393q0 49 -7 75q-3 8 -34 14.5t-45 6.5q-4 0 -4 12.5t4 16.5q78 -2 102 -2q52 0 80 2q37 -68 339 -490q3 17 3 41v311zM323 -101
q0 22 19 38.5t60 16.5q9 -7 15.5 -23.5t6.5 -29.5q0 -80 -82 -126q-2 -2 -8 -2q-20 0 -20 7l23 22q23 23 23 37q0 13 -18.5 29t-18.5 31z" />
    <glyph glyph-name="ncommaaccent" unicode="&#x146;" horiz-adv-x="543" 
d="M322 438q70 0 98 -50t28 -162v-91q0 -58 8 -89q2 -7 26 -13.5t34 -6.5q3 0 4 -12t-1 -17q-100 5 -107 5q-2 0 -105 -5q-4 4 -4 16.5t4 12.5q12 0 33.5 6.5t23.5 13.5q7 29 7 70v100q0 93 -24 127t-78 34q-32 0 -61.5 -23.5t-29.5 -42.5v-176q0 -58 8 -89q2 -7 26 -13.5
t34 -6.5q3 0 4 -12t-1 -17q-100 5 -107 5q-6 0 -109 -5q-4 4 -4 16.5t4 12.5q12 0 35.5 6.5t25.5 13.5q7 29 7 70v189q0 39 -14 54q-10 12 -24.5 16.5t-24 4.5t-9.5 2q0 24 6 25q106 16 138 26q1 0 3 0.5l2 0.5q4 0 5 -8.5t0 -12.5q-4 -28 -4 -40q0 -4 2 -4q1 0 3 2
q23 24 62.5 45.5t75.5 21.5zM219 -101q0 22 19 38.5t60 16.5q9 -7 15.5 -23.5t6.5 -29.5q0 -80 -82 -126q-2 -2 -8 -2q-20 0 -20 7l23 22q23 23 23 37q0 13 -18.5 29t-18.5 31z" />
    <glyph glyph-name="Ncaron" unicode="&#x147;" horiz-adv-x="721" 
d="M551 524q0 61 -7 88q-3 8 -34.5 15.5t-44.5 7.5q-4 0 -4 11.5t4 15.5q13 -1 52 -3.5t66 -2.5q26 0 65.5 3t46.5 3q2 -6 2 -15q0 -12 -4 -12q-10 0 -43.5 -8t-35.5 -15q-8 -31 -8 -93v-380q0 -62 3 -140q-4 -4 -19 -4q-17 0 -33 23l-388 550v-427q0 -66 7 -93
q2 -7 33.5 -14.5t41.5 -7.5q3 0 3.5 -12t-1.5 -17q-100 5 -115 5l-115 -5q-3 3 -3 15q0 14 3 14q14 0 45.5 7.5t34.5 16.5q10 26 10 94v393q0 49 -7 75q-3 8 -34 14.5t-45 6.5q-4 0 -4 12.5t4 16.5q78 -2 102 -2q52 0 80 2q37 -68 339 -490q3 17 3 41v311zM365 800
q86 58 105 58q9 0 9 -20q0 -1 -9 -8t-24.5 -20.5l-28.5 -25.5q-20 -20 -41 -48q-5 -8 -11 -8q-3 0 -10 8q-14 20 -42 46l-35.5 32.5t-25.5 23.5q0 20 10 20q9 0 44 -20t59 -38z" />
    <glyph glyph-name="ncaron" unicode="&#x148;" horiz-adv-x="543" 
d="M322 438q70 0 98 -50t28 -162v-91q0 -58 8 -89q2 -7 26 -13.5t34 -6.5q3 0 4 -12t-1 -17q-100 5 -107 5q-2 0 -105 -5q-4 4 -4 16.5t4 12.5q12 0 33.5 6.5t23.5 13.5q7 29 7 70v100q0 93 -24 127t-78 34q-32 0 -61.5 -23.5t-29.5 -42.5v-176q0 -58 8 -89q2 -7 26 -13.5
t34 -6.5q3 0 4 -12t-1 -17q-100 5 -107 5q-6 0 -109 -5q-4 4 -4 16.5t4 12.5q12 0 35.5 6.5t25.5 13.5q7 29 7 70v189q0 39 -14 54q-10 12 -24.5 16.5t-24 4.5t-9.5 2q0 24 6 25q106 16 138 26q1 0 3 0.5l2 0.5q4 0 5 -8.5t0 -12.5q-4 -28 -4 -40q0 -4 2 -4q1 0 3 2
q23 24 62.5 45.5t75.5 21.5zM270 582q23 21 54 43.5t39 22.5t8 -23q0 -1 -8 -9l-22 -23t-25 -29q-12 -16 -36 -55q-5 -9 -9 -9t-9 9q-13 22 -37 52q-13 16 -32 37.5t-22 26.5q0 23 9 23q8 0 38 -22.5t52 -43.5z" />
    <glyph glyph-name="Eng" unicode="&#x14a;" horiz-adv-x="774" 
d="M635 85q0 -132 -56 -222t-162 -90q-11 0 -24 4t-21 8l-7 4q-12 14 -12 37q0 22 18.5 36t43.5 14q18 0 40.5 -21.5t35.5 -21.5q28 0 55 49.5t33 145.5l-381 540v-427q0 -66 7 -93q2 -7 33.5 -14.5t41.5 -7.5q3 0 3.5 -12t-1.5 -17q-100 5 -115 5l-115 -5q-3 3 -3 15
q0 14 3 14q14 0 45.5 7.5t34.5 16.5q10 26 10 94v393q0 49 -7 75q-3 8 -34 14.5t-45 6.5q-4 0 -4 12.5t4 16.5q78 -2 102 -2q52 0 80 2q37 -68 339 -490q3 17 3 41v311q0 61 -7 88q-3 8 -34.5 15.5t-44.5 7.5q-4 0 -4 11.5t4 15.5q13 -1 52 -3.5t66 -2.5q26 0 65.5 3t46.5 3
q2 -6 2 -15q0 -12 -4 -12q-10 0 -43.5 -8t-35.5 -15q-8 -31 -8 -93v-434z" />
    <glyph glyph-name="eng" unicode="&#x14b;" horiz-adv-x="532" 
d="M469 251v-183q0 -127 -39 -188q-25 -39 -63.5 -69t-70.5 -42q-8 5 -12 15q-3 5 -1 7l12 6q12 6 27.5 21t31.5 40.5t27 74.5t11 113v181q0 144 -98 144q-29 0 -60 -22.5t-35 -32.5v-181q0 -58 8 -89q2 -7 26 -13.5t34 -6.5q3 0 4 -12t-1 -17q-100 5 -107 5t-109 -5
q-4 4 -4 16.5t4 12.5q12 0 35.5 6.5t25.5 13.5q7 29 7 70v189q0 39 -14 54q-10 12 -24.5 16.5t-24 4.5t-9.5 2q0 24 6 25q106 16 138 26l2 1h3q4 0 5 -8.5t0 -12.5l-5 -44l5 -2q68 71 127 71q67 0 102.5 -50t35.5 -137z" />
    <glyph glyph-name="Omacron" unicode="&#x14c;" horiz-adv-x="728" 
d="M234 751q0 39 14 39h250q6 0 6 -7q0 -13 -7 -34q-1 -3 -3 -4.5t-4 -2.5h-1h-248h-2t-3 2.5t-2 6.5zM348 625q-95 0 -150 -83t-55 -192q0 -80 26 -151t81 -118.5t129 -47.5q64 0 112 41.5t70.5 103t22.5 131.5q0 80 -26 150.5t-81 118t-129 47.5zM44 328q0 140 93.5 239.5
t225.5 99.5t226 -99.5t94 -239.5t-94 -239t-226 -99t-225.5 99t-93.5 239z" />
    <glyph glyph-name="omacron" unicode="&#x14d;" horiz-adv-x="510" 
d="M142 522q0 37 12 37h208q5 0 5 -7q0 -10 -6 -32q-1 -3 -2.5 -4.5l-2.5 -2.5h-2h-206l-4 2q-2 3 -2 7zM243 398q-53 0 -86.5 -48.5t-33.5 -118.5q0 -82 42.5 -140.5t99.5 -58.5q53 0 87 50t34 120q0 81 -43 138.5t-100 57.5zM254 437q90 0 154 -65t64 -156
q0 -92 -62.5 -157.5t-153.5 -65.5t-155 65.5t-64 157.5q0 93 62 157t155 64z" />
    <glyph glyph-name="Obreve" unicode="&#x14e;" horiz-adv-x="728" 
d="M368 773q32 0 56 15.5t31 42.5q0 2 4 2q5 0 11.5 -4t6.5 -7v-3q-1 -3 -1 -4q-7 -36 -38 -63t-70 -27q-40 0 -70.5 26.5t-37.5 64.5q0 1 -1 4v2q0 3 6.5 7t11.5 4q4 0 4 -2q7 -27 31 -42.5t56 -15.5zM348 625q-95 0 -150 -83t-55 -192q0 -80 26 -151t81 -118.5t129 -47.5
q64 0 112 41.5t70.5 103t22.5 131.5q0 80 -26 150.5t-81 118t-129 47.5zM44 328q0 140 93.5 239.5t225.5 99.5t226 -99.5t94 -239.5t-94 -239t-226 -99t-225.5 99t-93.5 239z" />
    <glyph glyph-name="obreve" unicode="&#x14f;" horiz-adv-x="533" 
d="M266 543q31 0 55 20t32 52q0 3 4 3q5 0 11.5 -4.5t6.5 -8.5v-4q-1 -3 -1 -4q-7 -41 -37.5 -70.5t-70.5 -29.5t-70.5 29t-37.5 72q0 1 -1 4v3q0 4 6.5 8.5t11.5 4.5q4 0 4 -3q8 -32 32 -52t55 -20zM257 398q-53 0 -86.5 -48.5t-33.5 -118.5q0 -82 42.5 -140.5t99.5 -58.5
q53 0 87 50t34 120q0 81 -43 138.5t-100 57.5zM268 437q90 0 154 -65t64 -156q0 -92 -62.5 -157.5t-153.5 -65.5t-155 65.5t-64 157.5q0 93 62 157t155 64z" />
    <glyph glyph-name="Ohungarumlaut" unicode="&#x150;" horiz-adv-x="728" 
d="M415 741q0 7 46 52t73 65q6 3 18 3q26 0 39 -9.5t13 -20.5q0 -23 -80 -63t-99 -40q-10 0 -10 13zM265 741q0 7 46 52t73 65q6 3 18 3q26 0 39 -9.5t13 -20.5q0 -23 -80 -63t-99 -40q-10 0 -10 13zM348 625q-95 0 -150 -83t-55 -192q0 -80 26 -151t81 -118.5t129 -47.5
q64 0 112 41.5t70.5 103t22.5 131.5q0 80 -26 150.5t-81 118t-129 47.5zM44 328q0 140 93.5 239.5t225.5 99.5t226 -99.5t94 -239.5t-94 -239t-226 -99t-225.5 99t-93.5 239z" />
    <glyph glyph-name="ohungarumlaut" unicode="&#x151;" horiz-adv-x="510" 
d="M408 657q16 0 26 -5.5t12.5 -10t2.5 -8.5q0 -25 -71.5 -80.5t-84.5 -55.5q-12 0 -12 13q0 3 15.5 28.5t38 58t39.5 51.5q9 9 34 9zM281 657q16 0 26 -5.5t12.5 -10t2.5 -8.5q0 -25 -71.5 -80.5t-84.5 -55.5q-12 0 -12 13q0 3 15.5 28.5t38 58t39.5 51.5q9 9 34 9z
M243 398q-53 0 -86.5 -48.5t-33.5 -118.5q0 -82 42.5 -140.5t99.5 -58.5q53 0 87 50t34 120q0 81 -43 138.5t-100 57.5zM254 437q90 0 154 -65t64 -156q0 -92 -62.5 -157.5t-153.5 -65.5t-155 65.5t-64 157.5q0 93 62 157t155 64z" />
    <glyph glyph-name="OE" unicode="&#x152;" horiz-adv-x="1035" 
d="M354 625q-95 0 -150 -83t-55 -192q0 -80 28.5 -151.5t88 -120t136.5 -48.5q50 0 79 7t45 31q11 17 16.5 37.5t6.5 36.5t1 50v296q0 66 -35 98q-26 24 -63 31.5t-98 7.5zM369 667q7 0 96 -5.5t128 -5.5q43 0 154.5 4t168.5 4q4 -29 15.5 -76.5t13.5 -59.5q-5 -5 -18 -5
t-14 7q-15 55 -42 70.5t-74 15.5h-67q-86 0 -88 -13q-5 -24 -5 -84v-160q0 -6 43 -6h53h40.5t26.5 4t18 5t10.5 13t7.5 17.5t7 28.5q1 7 15 7q12 0 17 -5v-189q-4 -4 -16 -4q-13 0 -16 8q-7 27 -12 40.5t-7.5 16t-8.5 6.5q-13 8 -106 8q-72 0 -72 -9v-155q0 -65 9 -91
q3 -10 68 -10h48q93 0 126 17q15 8 33.5 35.5t29.5 65.5q1 6 14 6q19 0 25 -6l-15.5 -41.5l-16.5 -46t-13 -40.5t-9 -38q-57 0 -177.5 3t-163.5 3q-45 0 -118 -5q-60 -4 -113 -4q-132 0 -223 97.5t-91 237.5t93.5 239.5t225.5 99.5z" />
    <glyph glyph-name="oe" unicode="&#x153;" horiz-adv-x="807" 
d="M267 436q108 0 174 -87q52 86 150 86q46 0 80.5 -17t52 -45t25.5 -56t8 -56q0 -20 -5.5 -24t-23.5 -4q-42 -1 -236 -1q-5 0 -7 -5q0 -1 -1 -3v-8q-1 -8 -1 -14q0 -2 0.5 -6t0.5 -6q4 -53 42.5 -95.5t105.5 -42.5q33 0 60.5 11.5t41.5 23t15 11.5q6 0 6 -13q0 -12 -6 -18
q-70 -75 -148 -75q-105 0 -163 85q-63 -84 -169 -84q-91 0 -155 65.5t-64 157.5q0 93 62 156.5t155 63.5zM589 399q-37 0 -62 -26.5t-32.5 -51t-7.5 -40.5q0 -7 6 -7h182q5 2 5 10q0 30 -26.5 72.5t-64.5 42.5zM256 397q-53 0 -86.5 -48.5t-33.5 -117.5q0 -82 42.5 -140.5
t99.5 -58.5q53 0 87 50t34 120q0 81 -43 138t-100 57z" />
    <glyph glyph-name="Racute" unicode="&#x154;" horiz-adv-x="660" 
d="M237 741q0 7 46 52t73 65q6 3 18 3q26 0 39 -9.5t13 -20.5q0 -23 -80 -63t-99 -40q-10 0 -10 13zM287 616q-45 0 -70 -7q-4 -1 -6.5 -7.5t-4 -30t-1.5 -72.5v-121q0 -29 87 -29h25q35 0 72.5 35t37.5 93q0 139 -140 139zM303 660q34 0 69 -10t69 -30t56 -57t22 -86
q0 -42 -31.5 -88t-85.5 -71q-10 -4 -6 -10q50 -105 115 -176q96 -105 156 -105q3 -6 3 -14q0 -9 -3 -15q-11 -3 -27 -3q-140 0 -243 144l-36.5 52.5l-30 44t-22 29.5t-22 24t-20.5 13q-11 4 -37 4q-8 0 -12 -0.5t-8 -4.5t-4 -12v-147q0 -67 8 -87q5 -13 35.5 -21t43.5 -8
q4 0 4 -14q0 -9 -2 -15q-100 5 -130 5l-122 -5q-3 3 -3 18q0 13 3 13q14 0 39 6t30 15q7 12 7 94v378q0 59 -7 86q-3 8 -29.5 15t-39.5 7q-4 0 -4 12q0 13 4 17l120 -2q30 0 71 2t70 2z" />
    <glyph glyph-name="racute" unicode="&#x155;" horiz-adv-x="380" 
d="M317 662q16 0 26 -5.5t12.5 -10t2.5 -8.5q0 -25 -71.5 -80.5t-84.5 -55.5q-12 0 -12 13q0 3 15.5 28.5t38 58t39.5 51.5q9 9 34 9zM293 437q59 0 78 -29q0 -35 -11 -51t-27 -16q-18 0 -33 17t-41 17q-31 0 -54 -29t-23 -61v-150q0 -58 8 -89q2 -7 26.5 -13.5t34.5 -6.5
q3 0 4 -12t-1 -17q-100 5 -108 5q-6 0 -109 -5q-4 4 -4 16.5t4 12.5q12 0 35.5 6.5t25.5 13.5q7 29 7 70v189q0 39 -14 54q-10 12 -24.5 16.5t-24 4.5t-9.5 2q0 24 6 25q106 16 138 26q1 0 3 0.5l2 0.5q4 0 5 -8.5t0 -12.5l-6 -50q18 27 49.5 50.5t62.5 23.5z" />
    <glyph glyph-name="Rcommaaccent" unicode="&#x156;" horiz-adv-x="660" 
d="M309 -101q0 22 19 38.5t60 16.5q9 -7 15.5 -23.5t6.5 -29.5q0 -80 -82 -126q-2 -2 -8 -2q-20 0 -20 7l23 22q23 23 23 37q0 13 -18.5 29t-18.5 31zM287 616q-45 0 -70 -7q-4 -1 -6.5 -7.5t-4 -30t-1.5 -72.5v-121q0 -29 87 -29h25q35 0 72.5 35t37.5 93q0 139 -140 139z
M303 660q34 0 69 -10t69 -30t56 -57t22 -86q0 -42 -31.5 -88t-85.5 -71q-10 -4 -6 -10q50 -105 115 -176q96 -105 156 -105q3 -6 3 -14q0 -9 -3 -15q-11 -3 -27 -3q-140 0 -243 144l-36.5 52.5l-30 44t-22 29.5t-22 24t-20.5 13q-11 4 -37 4q-8 0 -12 -0.5t-8 -4.5t-4 -12
v-147q0 -67 8 -87q5 -13 35.5 -21t43.5 -8q4 0 4 -14q0 -9 -2 -15q-100 5 -130 5l-122 -5q-3 3 -3 18q0 13 3 13q14 0 39 6t30 15q7 12 7 94v378q0 59 -7 86q-3 8 -29.5 15t-39.5 7q-4 0 -4 12q0 13 4 17l120 -2q30 0 71 2t70 2z" />
    <glyph glyph-name="rcommaaccent" unicode="&#x157;" horiz-adv-x="380" 
d="M89 -101q0 22 19 38.5t60 16.5q9 -7 15.5 -23.5t6.5 -29.5q0 -80 -82 -126q-2 -2 -8 -2q-20 0 -20 7l23 22q23 23 23 37q0 13 -18.5 29t-18.5 31zM293 437q59 0 78 -29q0 -35 -11 -51t-27 -16q-18 0 -33 17t-41 17q-31 0 -54 -29t-23 -61v-150q0 -58 8 -89
q2 -7 26.5 -13.5t34.5 -6.5q3 0 4 -12t-1 -17q-100 5 -108 5q-6 0 -109 -5q-4 4 -4 16.5t4 12.5q12 0 35.5 6.5t25.5 13.5q7 29 7 70v189q0 39 -14 54q-10 12 -24.5 16.5t-24 4.5t-9.5 2q0 24 6 25q106 16 138 26q1 0 3 0.5l2 0.5q4 0 5 -8.5t0 -12.5l-6 -50
q18 27 49.5 50.5t62.5 23.5z" />
    <glyph glyph-name="Rcaron" unicode="&#x158;" horiz-adv-x="660" 
d="M307 800q86 58 105 58q9 0 9 -20q0 -1 -9 -8t-24.5 -20.5l-28.5 -25.5q-20 -20 -41 -48q-5 -8 -11 -8q-3 0 -10 8q-14 20 -42 46l-35.5 32.5t-25.5 23.5q0 20 10 20q9 0 44 -20t59 -38zM287 616q-45 0 -70 -7q-4 -1 -6.5 -7.5t-4 -30t-1.5 -72.5v-121q0 -29 87 -29h25
q35 0 72.5 35t37.5 93q0 139 -140 139zM303 660q34 0 69 -10t69 -30t56 -57t22 -86q0 -42 -31.5 -88t-85.5 -71q-10 -4 -6 -10q50 -105 115 -176q96 -105 156 -105q3 -6 3 -14q0 -9 -3 -15q-11 -3 -27 -3q-140 0 -243 144l-36.5 52.5l-30 44t-22 29.5t-22 24t-20.5 13
q-11 4 -37 4q-8 0 -12 -0.5t-8 -4.5t-4 -12v-147q0 -67 8 -87q5 -13 35.5 -21t43.5 -8q4 0 4 -14q0 -9 -2 -15q-100 5 -130 5l-122 -5q-3 3 -3 18q0 13 3 13q14 0 39 6t30 15q7 12 7 94v378q0 59 -7 86q-3 8 -29.5 15t-39.5 7q-4 0 -4 12q0 13 4 17l120 -2q30 0 71 2t70 2z
" />
    <glyph glyph-name="rcaron" unicode="&#x159;" horiz-adv-x="380" 
d="M201 585q23 21 54 43.5t39 22.5t8 -23q0 -1 -8 -9l-22 -23t-25 -29q-12 -16 -36 -55q-5 -9 -9 -9t-9 9q-13 22 -37 52q-13 16 -32 37.5t-22 26.5q0 23 9 23q8 0 38 -22.5t52 -43.5zM293 437q59 0 78 -29q0 -35 -11 -51t-27 -16q-18 0 -33 17t-41 17q-31 0 -54 -29
t-23 -61v-150q0 -58 8 -89q2 -7 26.5 -13.5t34.5 -6.5q3 0 4 -12t-1 -17q-100 5 -108 5q-6 0 -109 -5q-4 4 -4 16.5t4 12.5q12 0 35.5 6.5t25.5 13.5q7 29 7 70v189q0 39 -14 54q-10 12 -24.5 16.5t-24 4.5t-9.5 2q0 24 6 25q106 16 138 26q1 0 3 0.5l2 0.5q4 0 5 -8.5
t0 -12.5l-6 -50q18 27 49.5 50.5t62.5 23.5z" />
    <glyph glyph-name="Sacute" unicode="&#x15a;" horiz-adv-x="491" 
d="M201 741q0 7 46 52t73 65q6 3 18 3q26 0 39 -9.5t13 -20.5q0 -23 -80 -63t-99 -40q-10 0 -10 13zM61 490q0 77 59 126.5t137 49.5q22 0 41.5 -2.5t32 -5.5t36 -9.5t41.5 -10.5q12 -53 12 -143q0 -7 -10 -7q-24 0 -26 10q-5 44 -42.5 85.5t-91.5 41.5q-60 0 -84.5 -30
t-24.5 -74q0 -19 7 -36.5t14 -29t25.5 -26.5t27 -21t34 -22t32.5 -20l35 -21.5t41 -26t34.5 -27t34 -34.5t20 -37.5t9.5 -46.5q0 -80 -62.5 -131.5t-146.5 -51.5q-24 0 -51 3.5t-45 7t-45.5 10t-38.5 8.5q-25 123 -25 159q0 6 16 6q18 0 25 -9q34 -144 166 -144q50 0 85 30
t35 85q0 20 -6 37t-12.5 28t-23 23.5t-25.5 18.5t-33 19l-33 18l-40.5 24t-38 24.5t-38.5 31l-28 33t-22.5 41.5t-6.5 46z" />
    <glyph glyph-name="sacute" unicode="&#x15b;" horiz-adv-x="359" 
d="M306 658q16 0 26 -5.5t12.5 -10t2.5 -8.5q0 -25 -71.5 -80.5t-84.5 -55.5q-12 0 -12 13q0 3 15.5 28.5t38 58t39.5 51.5q9 9 34 9zM191 437q22 0 55.5 -5.5l46.5 -7.5q10 -46 12 -102q0 -5 -13 -5q-14 0 -15 7q-5 28 -28.5 53t-53.5 25q-72 0 -72 -59q0 -15 4 -26.5
t15.5 -22t17.5 -15t26.5 -16t25.5 -14.5q4 -2 23.5 -13.5l27.5 -16.5t23.5 -17t22.5 -21.5t13.5 -24t6.5 -29.5q0 -59 -46 -98.5t-108 -39.5q-21 0 -38.5 2.5t-41.5 8.5t-37 8q-6 16 -11.5 50t-5.5 54q8 6 12 6q15 0 16 -6q6 -30 37.5 -58.5t68.5 -28.5q32 0 52.5 17.5
t20.5 50.5q0 17 -6.5 31.5t-21 26t-27 19t-35.5 19.5t-34 19q-78 45 -78 107q0 54 43.5 88t101.5 34z" />
    <glyph glyph-name="Scircumflex" unicode="&#x15c;" horiz-adv-x="491" 
d="M366 698q-19 0 -105 58q-24 -18 -59 -38t-44 -20q-10 0 -10 20q4 4 25.5 23.5l35.5 32.5q28 26 42 46q7 8 10 8q6 0 11 -8q21 -28 41 -48l28.5 -25.5t24.5 -20.5t9 -8q0 -20 -9 -20zM61 490q0 77 59 126.5t137 49.5q22 0 41.5 -2.5t32 -5.5t36 -9.5t41.5 -10.5
q12 -53 12 -143q0 -7 -10 -7q-24 0 -26 10q-5 44 -42.5 85.5t-91.5 41.5q-60 0 -84.5 -30t-24.5 -74q0 -19 7 -36.5t14 -29t25.5 -26.5t27 -21t34 -22t32.5 -20l35 -21.5t41 -26t34.5 -27t34 -34.5t20 -37.5t9.5 -46.5q0 -80 -62.5 -131.5t-146.5 -51.5q-24 0 -51 3.5t-45 7
t-45.5 10t-38.5 8.5q-25 123 -25 159q0 6 16 6q18 0 25 -9q34 -144 166 -144q50 0 85 30t35 85q0 20 -6 37t-12.5 28t-23 23.5t-25.5 18.5t-33 19l-33 18l-40.5 24t-38 24.5t-38.5 31l-28 33t-22.5 41.5t-6.5 46z" />
    <glyph glyph-name="scircumflex" unicode="&#x15d;" horiz-adv-x="359" 
d="M270 467q-8 0 -39 22.5t-54 43.5q-22 -21 -52 -43.5t-38 -22.5q-9 0 -9 23q3 4 22 25.5t32 37.5q22 27 37 53q6 10 8 10q5 0 10 -10q24 -39 36 -55q11 -14 24.5 -29t21.5 -23t8 -9q0 -23 -7 -23zM191 437q22 0 55.5 -5.5l46.5 -7.5q10 -46 12 -102q0 -5 -13 -5
q-14 0 -15 7q-5 28 -28.5 53t-53.5 25q-72 0 -72 -59q0 -15 4 -26.5t15.5 -22t17.5 -15t26.5 -16t25.5 -14.5q4 -2 23.5 -13.5l27.5 -16.5t23.5 -17t22.5 -21.5t13.5 -24t6.5 -29.5q0 -59 -46 -98.5t-108 -39.5q-21 0 -38.5 2.5t-41.5 8.5t-37 8q-6 16 -11.5 50t-5.5 54
q8 6 12 6q15 0 16 -6q6 -30 37.5 -58.5t68.5 -28.5q32 0 52.5 17.5t20.5 50.5q0 17 -6.5 31.5t-21 26t-27 19t-35.5 19.5t-34 19q-78 45 -78 107q0 54 43.5 88t101.5 34z" />
    <glyph glyph-name="Scedilla" unicode="&#x15e;" horiz-adv-x="491" 
d="M241 -31h30q23 0 37.5 -17t14.5 -41q0 -40 -32 -64.5t-79 -24.5q-26 0 -40 10q0 2 -2 7.5t-2 9.5q0 6 5.5 11t11.5 5t19.5 -7.5t23.5 -7.5q24 0 37.5 11.5t13.5 27.5q0 19 -11.5 29.5t-24.5 10.5q-12 0 -31 -8q-2 0 -7.5 6t-4.5 9q3 5 18 27.5t20 32.5h25zM61 490
q0 77 59 126.5t137 49.5q22 0 41.5 -2.5t32 -5.5t36 -9.5t41.5 -10.5q12 -53 12 -143q0 -7 -10 -7q-24 0 -26 10q-5 44 -42.5 85.5t-91.5 41.5q-60 0 -84.5 -30t-24.5 -74q0 -19 7 -36.5t14 -29t25.5 -26.5t27 -21t34 -22t32.5 -20l35 -21.5t41 -26t34.5 -27t34 -34.5
t20 -37.5t9.5 -46.5q0 -80 -62.5 -131.5t-146.5 -51.5q-24 0 -51 3.5t-45 7t-45.5 10t-38.5 8.5q-25 123 -25 159q0 6 16 6q18 0 25 -9q34 -144 166 -144q50 0 85 30t35 85q0 20 -6 37t-12.5 28t-23 23.5t-25.5 18.5t-33 19l-33 18l-40.5 24t-38 24.5t-38.5 31l-28 33
t-22.5 41.5t-6.5 46z" />
    <glyph glyph-name="scedilla" unicode="&#x15f;" horiz-adv-x="359" 
d="M167 -29h25q19 0 31.5 -14.5t12.5 -34.5q0 -34 -27 -55t-67 -21q-21 0 -34 9q0 1 -1.5 5.5t-1.5 8.5q0 5 4.5 9.5t9.5 4.5q6 0 17 -6.5t20 -6.5q20 0 31.5 9.5t11.5 23.5q0 16 -10 25t-21 9q-9 0 -26 -7q-2 0 -6.5 5t-3.5 8l16 24.5t16 26.5h21zM191 437q22 0 55.5 -5.5
l46.5 -7.5q10 -46 12 -102q0 -5 -13 -5q-14 0 -15 7q-5 28 -28.5 53t-53.5 25q-72 0 -72 -59q0 -15 4 -26.5t15.5 -22t17.5 -15t26.5 -16t25.5 -14.5q4 -2 23.5 -13.5l27.5 -16.5t23.5 -17t22.5 -21.5t13.5 -24t6.5 -29.5q0 -59 -46 -98.5t-108 -39.5q-21 0 -38.5 2.5
t-41.5 8.5t-37 8q-6 16 -11.5 50t-5.5 54q8 6 12 6q15 0 16 -6q6 -30 37.5 -58.5t68.5 -28.5q32 0 52.5 17.5t20.5 50.5q0 17 -6.5 31.5t-21 26t-27 19t-35.5 19.5t-34 19q-78 45 -78 107q0 54 43.5 88t101.5 34z" />
    <glyph glyph-name="Scaron" unicode="&#x160;" horiz-adv-x="491" 
d="M261 800q86 58 105 58q9 0 9 -20q0 -1 -9 -8t-24.5 -20.5l-28.5 -25.5q-20 -20 -41 -48q-5 -8 -11 -8q-3 0 -10 8q-14 20 -42 46l-35.5 32.5t-25.5 23.5q0 20 10 20q9 0 44 -20t59 -38zM61 490q0 77 59 126.5t137 49.5q22 0 41.5 -2.5t32 -5.5t36 -9.5t41.5 -10.5
q12 -53 12 -143q0 -7 -10 -7q-24 0 -26 10q-5 44 -42.5 85.5t-91.5 41.5q-60 0 -84.5 -30t-24.5 -74q0 -19 7 -36.5t14 -29t25.5 -26.5t27 -21t34 -22t32.5 -20l35 -21.5t41 -26t34.5 -27t34 -34.5t20 -37.5t9.5 -46.5q0 -80 -62.5 -131.5t-146.5 -51.5q-24 0 -51 3.5t-45 7
t-45.5 10t-38.5 8.5q-25 123 -25 159q0 6 16 6q18 0 25 -9q34 -144 166 -144q50 0 85 30t35 85q0 20 -6 37t-12.5 28t-23 23.5t-25.5 18.5t-33 19l-33 18l-40.5 24t-38 24.5t-38.5 31l-28 33t-22.5 41.5t-6.5 46z" />
    <glyph glyph-name="scaron" unicode="&#x161;" horiz-adv-x="383" 
d="M198 581q23 21 54 43.5t39 22.5t8 -23q0 -1 -8 -9l-22 -23t-25 -29q-12 -16 -36 -55q-5 -9 -9 -9t-9 9q-13 22 -37 52q-13 16 -32 37.5t-22 26.5q0 23 9 23q8 0 38 -22.5t52 -43.5zM200 437q22 0 55.5 -5.5l46.5 -7.5q10 -46 12 -102q0 -5 -13 -5q-14 0 -15 7
q-5 28 -28.5 53t-53.5 25q-72 0 -72 -59q0 -15 4 -26.5t15.5 -22t17.5 -15t26.5 -16t25.5 -14.5q4 -2 23.5 -13.5l27.5 -16.5t23.5 -17t22.5 -21.5t13.5 -24t6.5 -29.5q0 -59 -46 -98.5t-108 -39.5q-21 0 -38.5 2.5t-41.5 8.5t-37 8q-6 16 -11.5 50t-5.5 54q8 6 12 6
q15 0 16 -6q6 -30 37.5 -58.5t68.5 -28.5q32 0 52.5 17.5t20.5 50.5q0 17 -6.5 31.5t-21 26t-27 19t-35.5 19.5t-34 19q-78 45 -78 107q0 54 43.5 88t101.5 34z" />
    <glyph glyph-name="uni0162" unicode="&#x162;" horiz-adv-x="669" 
d="M335 656q44 0 113 2t107 2q25 0 69 11l19 -143q-7 -7 -24 -7q-9 0 -10 5q-14 56 -34.5 72.5t-77.5 16.5q-106 0 -110 -15q-9 -32 -9 -100v-361q0 -58 9 -93q2 -7 28 -13.5t36 -6.5q4 0 4 -15q0 -8 -2 -14q-100 5 -116 5q-5 0 -120 -5q-4 4 -4 15q0 14 4 14q13 0 38.5 6
t28.5 14q7 27 7 89v362q0 87 -9 103q-8 15 -108 15q-57 0 -77.5 -16.5t-34.5 -72.5q-1 -5 -10 -5q-17 0 -24 7l19 143q44 -11 69 -11q38 0 106.5 -2t112.5 -2zM295 -101q0 22 19 38.5t60 16.5q9 -7 15.5 -23.5t6.5 -29.5q0 -80 -82 -126q-2 -2 -8 -2q-20 0 -20 7l23 22
q23 23 23 37q0 13 -18.5 29t-18.5 31z" />
    <glyph glyph-name="uni0163" unicode="&#x163;" horiz-adv-x="314" 
d="M80 374h-58q-5 0 -5 21q0 6 1 7q29 13 63 53q11 13 21.5 29.5t17.5 28.5t7 13q30 0 30 -5v-99q26 0 79 -0.5t56 -0.5q8 0 8 -9q0 -18 -10 -38h-133v-245q0 -40 20.5 -64t53.5 -24q30 0 62 19q3 2 9 -8.5t5 -11.5q-15 -16 -46 -31.5t-64 -15.5q-50 0 -83.5 33t-33.5 94
v254zM145 -101q0 22 19 38.5t60 16.5q9 -7 15.5 -23.5t6.5 -29.5q0 -80 -82 -126q-2 -2 -8 -2q-20 0 -20 7l23 22q23 23 23 37q0 13 -18.5 29t-18.5 31z" />
    <glyph glyph-name="Tcaron" unicode="&#x164;" horiz-adv-x="669" 
d="M340 804q86 58 105 58q9 0 9 -20q0 -1 -9 -8t-24.5 -20.5l-28.5 -25.5q-20 -20 -41 -48q-5 -8 -11 -8q-3 0 -10 8q-14 20 -42 46l-35.5 32.5t-25.5 23.5q0 20 10 20q9 0 44 -20t59 -38zM335 656q44 0 113 2t107 2q25 0 69 11l19 -143q-7 -7 -24 -7q-9 0 -10 5
q-14 56 -34.5 72.5t-77.5 16.5q-106 0 -110 -15q-9 -32 -9 -100v-361q0 -58 9 -93q2 -7 28 -13.5t36 -6.5q4 0 4 -15q0 -8 -2 -14q-100 5 -116 5q-5 0 -120 -5q-4 4 -4 15q0 14 4 14q13 0 38.5 6t28.5 14q7 27 7 89v362q0 87 -9 103q-8 15 -108 15q-57 0 -77.5 -16.5
t-34.5 -72.5q-1 -5 -10 -5q-17 0 -24 7l19 143q44 -11 69 -11q38 0 106.5 -2t112.5 -2z" />
    <glyph glyph-name="tcaron" unicode="&#x165;" horiz-adv-x="314" 
d="M236 611q0 23 18.5 37t49.5 14q15 -18 15 -62q0 -31 -27 -71.5t-48 -52.5q-1 -1 -7 -1q-4 0 -9 4.5t-5 8.5l9 8q8 9 17 25.5t9 36.5q0 6 -11 22t-11 31zM80 374h-58q-5 0 -5 21q0 6 1 7q29 13 63 53q11 13 21.5 29.5t17.5 28.5t7 13q30 0 30 -5v-99q26 0 79 -0.5t56 -0.5
q8 0 8 -9q0 -18 -10 -38h-133v-245q0 -40 20.5 -64t53.5 -24q30 0 62 19q3 2 9 -8.5t5 -11.5q-15 -16 -46 -31.5t-64 -15.5q-50 0 -83.5 33t-33.5 94v254z" />
    <glyph glyph-name="Tbar" unicode="&#x166;" horiz-adv-x="701" 
d="M179 348h344q6 0 6 -10q0 -16 -6 -30h-345q-5 0 -5 13q0 18 6 27zM350 656q44 0 113 2t107 2q25 0 69 11l19 -143q-7 -7 -24 -7q-9 0 -10 5q-14 56 -34.5 72.5t-77.5 16.5q-106 0 -110 -15q-9 -32 -9 -100v-361q0 -58 9 -93q2 -7 28 -13.5t36 -6.5q4 0 4 -15q0 -8 -2 -14
q-100 5 -116 5q-5 0 -120 -5q-4 4 -4 15q0 14 4 14q13 0 38.5 6t28.5 14q7 27 7 89v362q0 87 -9 103q-7 15 -108 15q-57 0 -77.5 -16.5t-34.5 -72.5q-1 -5 -10 -5q-17 0 -24 7l19 143q44 -11 69 -11q38 0 106.5 -2t112.5 -2z" />
    <glyph glyph-name="tbar" unicode="&#x167;" horiz-adv-x="317" 
d="M120 526q30 0 30 -5v-99q26 0 79 -0.5t56 -0.5q8 0 8 -9q0 -18 -10 -38h-133v-245q0 -40 20.5 -64t53.5 -24q30 0 62 19q3 2 9 -8.5t5 -11.5q-15 -16 -46 -31.5t-64 -15.5q-50 0 -83.5 33t-33.5 94v254h-58q-5 0 -5 21q0 6 1 7q29 13 63 53q11 13 21.5 29.5t17.5 28.5
t7 13zM17 308h268q6 0 6 -10q0 -16 -6 -30h-269q-5 0 -5 13q0 18 6 27z" />
    <glyph glyph-name="Utilde" unicode="&#x168;" horiz-adv-x="719" 
d="M455 766q36 0 51 34q2 1 6 1q9 0 9 -16q0 -28 -27.5 -49t-50.5 -21q-29 0 -71 21.5t-69 21.5q-33 0 -49 -35q-2 -1 -6 -1q-9 0 -9 16q0 28 27.5 49t50.5 21q28 0 69 -21t69 -21zM157 657q16 0 116 5q2 -6 2 -14q0 -15 -4 -15q-10 0 -36 -7t-28 -14q-9 -35 -9 -93v-223
q0 -113 48 -180t136 -67q171 0 171 225v250q0 61 -7 88q-3 8 -34.5 15.5t-44.5 7.5q-4 0 -4 11.5t4 15.5q13 -1 52 -3.5t66 -2.5q26 0 65.5 3t46.5 3q2 -6 2 -15q0 -12 -4 -12q-10 0 -43.5 -8t-35.5 -15q-8 -31 -8 -93v-243q0 -155 -65 -215.5t-185 -60.5q-119 0 -183 70
t-64 226v227q0 62 -7 89q-3 8 -28.5 14.5t-38.5 6.5q-4 0 -4 13q0 12 4 16q115 -5 120 -5z" />
    <glyph glyph-name="utilde" unicode="&#x169;" horiz-adv-x="517" 
d="M315 549q36 0 51 34q2 1 6 1q9 0 9 -16q0 -28 -27.5 -49t-50.5 -21q-29 0 -71 21.5t-69 21.5q-33 0 -49 -35q-2 -1 -6 -1q-9 0 -9 16q0 28 27.5 49t50.5 21q28 0 69 -21t69 -21zM435 341v-200q0 -43 7 -76q2 -7 11 -11t19 -5t20 -1l9 -1q3 -1 3 -11q0 -3 -2.5 -9.5
t-5.5 -6.5q-15 -1 -33.5 -4t-34.5 -7t-30 -8t-22 -7l-9 -2q-8 0 -8 16v51l-2 5q-66 -71 -131 -71q-37 0 -63.5 18.5t-39 49t-17.5 59t-5 59.5v126q0 39 -14 54q-10 12 -24.5 16.5t-24 4.5t-9.5 2q0 24 6 25q106 16 138 26q1 0 3 0.5l2 0.5q4 0 5 -8.5t0 -12.5q-6 -48 -6 -74
v-135q0 -77 23 -113.5t75 -36.5q30 0 57 23.5t27 40.5v187q0 39 -14 54q-10 12 -24.5 16.5t-24 4.5t-9.5 2q0 24 6 25q106 16 138 26q1 0 3 0.5l2 0.5q4 0 5 -8.5t0 -12.5q-6 -48 -6 -72z" />
    <glyph glyph-name="Umacron" unicode="&#x16a;" horiz-adv-x="719" 
d="M237 751q0 39 14 39h250q6 0 6 -7q0 -13 -7 -34q-1 -3 -3 -4.5t-4 -2.5h-1h-248h-2t-3 2.5t-2 6.5zM157 657q16 0 116 5q2 -6 2 -14q0 -15 -4 -15q-10 0 -36 -7t-28 -14q-9 -35 -9 -93v-223q0 -113 48 -180t136 -67q171 0 171 225v250q0 61 -7 88q-3 8 -34.5 15.5
t-44.5 7.5q-4 0 -4 11.5t4 15.5q13 -1 52 -3.5t66 -2.5q26 0 65.5 3t46.5 3q2 -6 2 -15q0 -12 -4 -12q-10 0 -43.5 -8t-35.5 -15q-8 -31 -8 -93v-243q0 -155 -65 -215.5t-185 -60.5q-119 0 -183 70t-64 226v227q0 62 -7 89q-3 8 -28.5 14.5t-38.5 6.5q-4 0 -4 13q0 12 4 16
q115 -5 120 -5z" />
    <glyph glyph-name="umacron" unicode="&#x16b;" horiz-adv-x="517" 
d="M152 522q0 37 12 37h208q5 0 5 -7q0 -10 -6 -32q-1 -3 -2.5 -4.5l-2.5 -2.5h-2h-206l-4 2q-2 3 -2 7zM435 341v-200q0 -43 7 -76q2 -7 11 -11t19 -5t20 -1l9 -1q3 -1 3 -11q0 -3 -2.5 -9.5t-5.5 -6.5q-15 -1 -33.5 -4t-34.5 -7t-30 -8t-22 -7l-9 -2q-8 0 -8 16v51l-2 5
q-66 -71 -131 -71q-37 0 -63.5 18.5t-39 49t-17.5 59t-5 59.5v126q0 39 -14 54q-10 12 -24.5 16.5t-24 4.5t-9.5 2q0 24 6 25q106 16 138 26q1 0 3 0.5l2 0.5q4 0 5 -8.5t0 -12.5q-6 -48 -6 -74v-135q0 -77 23 -113.5t75 -36.5q30 0 57 23.5t27 40.5v187q0 39 -14 54
q-10 12 -24.5 16.5t-24 4.5t-9.5 2q0 24 6 25q106 16 138 26q1 0 3 0.5l2 0.5q4 0 5 -8.5t0 -12.5q-6 -48 -6 -72z" />
    <glyph glyph-name="Ubreve" unicode="&#x16c;" horiz-adv-x="719" 
d="M371 773q32 0 56 15.5t31 42.5q0 2 4 2q5 0 11.5 -4t6.5 -7v-3q-1 -3 -1 -4q-7 -36 -38 -63t-70 -27q-40 0 -70.5 26.5t-37.5 64.5q0 1 -1 4v2q0 3 6.5 7t11.5 4q4 0 4 -2q7 -27 31 -42.5t56 -15.5zM157 657q16 0 116 5q2 -6 2 -14q0 -15 -4 -15q-10 0 -36 -7t-28 -14
q-9 -35 -9 -93v-223q0 -113 48 -180t136 -67q171 0 171 225v250q0 61 -7 88q-3 8 -34.5 15.5t-44.5 7.5q-4 0 -4 11.5t4 15.5q13 -1 52 -3.5t66 -2.5q26 0 65.5 3t46.5 3q2 -6 2 -15q0 -12 -4 -12q-10 0 -43.5 -8t-35.5 -15q-8 -31 -8 -93v-243q0 -155 -65 -215.5
t-185 -60.5q-119 0 -183 70t-64 226v227q0 62 -7 89q-3 8 -28.5 14.5t-38.5 6.5q-4 0 -4 13q0 12 4 16q115 -5 120 -5z" />
    <glyph glyph-name="ubreve" unicode="&#x16d;" horiz-adv-x="517" 
d="M265 543q31 0 55 20t32 52q0 3 4 3q5 0 11.5 -4.5t6.5 -8.5v-4q-1 -3 -1 -4q-7 -41 -37.5 -70.5t-70.5 -29.5t-70.5 29t-37.5 72q0 1 -1 4v3q0 4 6.5 8.5t11.5 4.5q4 0 4 -3q8 -32 32 -52t55 -20zM435 341v-200q0 -43 7 -76q2 -7 11 -11t19 -5t20 -1l9 -1q3 -1 3 -11
q0 -3 -2.5 -9.5t-5.5 -6.5q-15 -1 -33.5 -4t-34.5 -7t-30 -8t-22 -7l-9 -2q-8 0 -8 16v51l-2 5q-66 -71 -131 -71q-37 0 -63.5 18.5t-39 49t-17.5 59t-5 59.5v126q0 39 -14 54q-10 12 -24.5 16.5t-24 4.5t-9.5 2q0 24 6 25q106 16 138 26q1 0 3 0.5l2 0.5q4 0 5 -8.5
t0 -12.5q-6 -48 -6 -74v-135q0 -77 23 -113.5t75 -36.5q30 0 57 23.5t27 40.5v187q0 39 -14 54q-10 12 -24.5 16.5t-24 4.5t-9.5 2q0 24 6 25q106 16 138 26q1 0 3 0.5l2 0.5q4 0 5 -8.5t0 -12.5q-6 -48 -6 -72z" />
    <glyph glyph-name="Uring" unicode="&#x16e;" horiz-adv-x="719" 
d="M316 818q0 -23 16.5 -39.5t39.5 -16.5q22 0 38 16.5t16 39.5t-15.5 39t-38.5 16t-39.5 -16t-16.5 -39zM283 818q0 37 26.5 63t62.5 26t61.5 -26t25.5 -63t-25.5 -63.5t-61.5 -26.5t-62.5 26.5t-26.5 63.5zM157 657q16 0 116 5q2 -6 2 -14q0 -15 -4 -15q-10 0 -36 -7
t-28 -14q-9 -35 -9 -93v-223q0 -113 48 -180t136 -67q171 0 171 225v250q0 61 -7 88q-3 8 -34.5 15.5t-44.5 7.5q-4 0 -4 11.5t4 15.5q13 -1 52 -3.5t66 -2.5q26 0 65.5 3t46.5 3q2 -6 2 -15q0 -12 -4 -12q-10 0 -43.5 -8t-35.5 -15q-8 -31 -8 -93v-243q0 -155 -65 -215.5
t-185 -60.5q-119 0 -183 70t-64 226v227q0 62 -7 89q-3 8 -28.5 14.5t-38.5 6.5q-4 0 -4 13q0 12 4 16q115 -5 120 -5z" />
    <glyph glyph-name="uring" unicode="&#x16f;" horiz-adv-x="517" 
d="M208 587q0 -23 16 -39.5t39 -16.5q22 0 38 16.5t16 39.5t-15.5 39t-38.5 16t-39 -16t-16 -39zM175 587q0 37 26 63t62 26t61.5 -26t25.5 -63t-25.5 -63.5t-61.5 -26.5t-62 26.5t-26 63.5zM435 341v-200q0 -43 7 -76q2 -7 11 -11t19 -5t20 -1l9 -1q3 -1 3 -11
q0 -3 -2.5 -9.5t-5.5 -6.5q-15 -1 -33.5 -4t-34.5 -7t-30 -8t-22 -7l-9 -2q-8 0 -8 16v51l-2 5q-66 -71 -131 -71q-37 0 -63.5 18.5t-39 49t-17.5 59t-5 59.5v126q0 39 -14 54q-10 12 -24.5 16.5t-24 4.5t-9.5 2q0 24 6 25q106 16 138 26q1 0 3 0.5l2 0.5q4 0 5 -8.5
t0 -12.5q-6 -48 -6 -74v-135q0 -77 23 -113.5t75 -36.5q30 0 57 23.5t27 40.5v187q0 39 -14 54q-10 12 -24.5 16.5t-24 4.5t-9.5 2q0 24 6 25q106 16 138 26q1 0 3 0.5l2 0.5q4 0 5 -8.5t0 -12.5q-6 -48 -6 -72z" />
    <glyph glyph-name="Uhungarumlaut" unicode="&#x170;" horiz-adv-x="719" 
d="M400 741q0 7 46 52t73 65q6 3 18 3q26 0 39 -9.5t13 -20.5q0 -23 -80 -63t-99 -40q-10 0 -10 13zM250 741q0 7 46 52t73 65q6 3 18 3q26 0 39 -9.5t13 -20.5q0 -23 -80 -63t-99 -40q-10 0 -10 13zM157 657q16 0 116 5q2 -6 2 -14q0 -15 -4 -15q-10 0 -36 -7t-28 -14
q-9 -35 -9 -93v-223q0 -113 48 -180t136 -67q171 0 171 225v250q0 61 -7 88q-3 8 -34.5 15.5t-44.5 7.5q-4 0 -4 11.5t4 15.5q13 -1 52 -3.5t66 -2.5q26 0 65.5 3t46.5 3q2 -6 2 -15q0 -12 -4 -12q-10 0 -43.5 -8t-35.5 -15q-8 -31 -8 -93v-243q0 -155 -65 -215.5
t-185 -60.5q-119 0 -183 70t-64 226v227q0 62 -7 89q-3 8 -28.5 14.5t-38.5 6.5q-4 0 -4 13q0 12 4 16q115 -5 120 -5z" />
    <glyph glyph-name="uhungarumlaut" unicode="&#x171;" horiz-adv-x="517" 
d="M410 657q16 0 26 -5.5t12.5 -10t2.5 -8.5q0 -25 -71.5 -80.5t-84.5 -55.5q-12 0 -12 13q0 3 15.5 28.5t38 58t39.5 51.5q9 9 34 9zM283 657q16 0 26 -5.5t12.5 -10t2.5 -8.5q0 -25 -71.5 -80.5t-84.5 -55.5q-12 0 -12 13q0 3 15.5 28.5t38 58t39.5 51.5q9 9 34 9z
M435 341v-200q0 -43 7 -76q2 -7 11 -11t19 -5t20 -1l9 -1q3 -1 3 -11q0 -3 -2.5 -9.5t-5.5 -6.5q-15 -1 -33.5 -4t-34.5 -7t-30 -8t-22 -7l-9 -2q-8 0 -8 16v51l-2 5q-66 -71 -131 -71q-37 0 -63.5 18.5t-39 49t-17.5 59t-5 59.5v126q0 39 -14 54q-10 12 -24.5 16.5t-24 4.5
t-9.5 2q0 24 6 25q106 16 138 26q1 0 3 0.5l2 0.5q4 0 5 -8.5t0 -12.5q-6 -48 -6 -74v-135q0 -77 23 -113.5t75 -36.5q30 0 57 23.5t27 40.5v187q0 39 -14 54q-10 12 -24.5 16.5t-24 4.5t-9.5 2q0 24 6 25q106 16 138 26q1 0 3 0.5l2 0.5q4 0 5 -8.5t0 -12.5q-6 -48 -6 -72z
" />
    <glyph glyph-name="Uogonek" unicode="&#x172;" horiz-adv-x="757" 
d="M167 657q16 0 116 5q2 -6 2 -14q0 -15 -4 -15q-10 0 -36 -7t-28 -14q-9 -35 -9 -93v-223q0 -113 48 -180t136 -67q171 0 171 225v250q0 61 -7 88q-3 8 -34.5 15.5t-44.5 7.5q-4 0 -4 11.5t4 15.5q13 -1 52 -3.5t66 -2.5q26 0 65.5 3t46.5 3q2 -6 2 -15q0 -12 -4 -12
q-10 0 -43.5 -8t-35.5 -15q-8 -31 -8 -93v-243q0 -101 -26 -155t-84 -93q-41 -27 -64.5 -45t-47.5 -48t-24 -57q0 -16 9 -29.5t32 -13.5t41.5 9.5t28.5 19t11 9.5q5 0 5 -13q0 -10 -5 -17q-51 -67 -105 -67q-37 0 -54 25t-17 52q0 40 33 84.5t70 65.5q-25 -3 -53 -3
q-119 0 -183 70t-64 226v227q0 62 -7 89q-3 8 -28.5 14.5t-38.5 6.5q-4 0 -4 13q0 12 4 16q115 -5 120 -5z" />
    <glyph glyph-name="uogonek" unicode="&#x173;" horiz-adv-x="512" 
d="M416 341v-200q0 -43 7 -76q2 -7 11 -11t19 -5t19 -1l10 -1q3 -1 3 -11q0 -3 -2.5 -9.5t-5.5 -6.5q-6 0 -20 -2q-31 -5 -75 -55.5t-44 -87.5q0 -16 9 -29.5t32 -13.5t41.5 9.5t28.5 19t11 9.5q5 0 5 -13q0 -11 -5 -18q-50 -66 -105 -66q-37 0 -54 25t-17 52q0 31 33 80
t67 72l-36 -10q-8 0 -8 16v51l-2 5q-66 -71 -131 -71q-37 0 -63.5 18.5t-39 49t-17.5 59t-5 59.5v126q0 39 -14 54q-10 12 -24.5 16.5t-24 4.5t-9.5 2q0 24 6 25q106 16 138 26l2 1h3q4 0 5 -8.5t0 -12.5q-6 -48 -6 -74v-135q0 -77 23 -113.5t75 -36.5q30 0 57 23.5t27 40.5
v187q0 39 -14 54q-10 12 -24.5 16.5t-24 4.5t-9.5 2q0 24 6 25q106 16 138 26l2 1h3q4 0 5 -8.5t0 -12.5q-6 -48 -6 -72z" />
    <glyph glyph-name="Wcircumflex" unicode="&#x174;" horiz-adv-x="1076" 
d="M667 698q-19 0 -105 58q-24 -18 -59 -38t-44 -20q-10 0 -10 20q4 4 25.5 23.5l35.5 32.5q28 26 42 46q7 8 10 8q6 0 11 -8q21 -28 41 -48l28.5 -25.5t24.5 -20.5t9 -8q0 -20 -9 -20zM146 657q5 0 105 5q2 -4 1.5 -16.5t-3.5 -12.5q-7 0 -17 -1.5t-21.5 -9t-11.5 -18.5
q0 -30 23 -74l207 -410q3 -5 8 -2.5t7 7.5l83 173l-105 216q-29 59 -58 96q-8 10 -27 16.5t-31 6.5q-4 0 -4 15q0 10 4 14q115 -5 126 -5q4 0 104 5q2 -4 1.5 -16.5t-3.5 -12.5q-7 0 -16.5 -1.5t-21 -8.5t-11.5 -19q0 -26 23 -74l66 -135l70 147q14 31 14 58q0 17 -21.5 25
t-37.5 8q-4 0 -4 12.5t4 16.5q80 -5 101 -5q4 0 104 5q2 -4 1.5 -16.5t-3.5 -12.5q-10 0 -34.5 -8t-34.5 -20q-18 -22 -58 -103l-77 -158l109 -224q6 -11 12 5l179 411q17 41 17 63q0 17 -20.5 25.5t-36.5 8.5q-4 0 -4 12.5t4 16.5q80 -5 102 -5q23 0 38 1l31 2t30 2
q2 -6 2 -15q0 -14 -4 -14q-10 0 -32 -7.5t-33 -20.5q-29 -34 -58 -101l-212 -480q-15 -32 -39 -32q-6 0 -9 5l-122 250l-108 -223q-15 -32 -39 -32q-6 0 -9 5l-260 517q-29 59 -58 96q-8 10 -27 16.5t-31 6.5q-4 0 -4 13q0 12 4 16q115 -5 126 -5z" />
    <glyph glyph-name="wcircumflex" unicode="&#x175;" horiz-adv-x="734" 
d="M482 467q-8 0 -39 22.5t-54 43.5q-22 -21 -52 -43.5t-38 -22.5q-9 0 -9 23q3 4 22 25.5t32 37.5q22 27 37 53q6 10 8 10q5 0 10 -10q24 -39 36 -55q11 -14 24.5 -29t21.5 -23t8 -9q0 -23 -7 -23zM622 370q0 35 -66 35h-4q-4 0 -4 12.5t4 16.5q15 -1 33.5 -2t34 -2
t33.5 -1q17 0 29.5 1t28.5 2l31 2q2 -6 2 -15q0 -14 -5 -14q-13 0 -35 -8.5t-29 -27.5l-131 -358q-8 -22 -28 -22q-10 0 -12 4l-123 294l-101 -276q-1 -3 -4 -7.5t-9.5 -9.5t-13.5 -5q-10 0 -12 4q-24 54 -54.5 129.5t-57.5 136t-63 124.5q-13 22 -54 22q-4 0 -4 13
q0 12 4 16q15 -1 33 -2t33 -2t33 -1l100 5q2 -4 1.5 -16.5t-3.5 -12.5q-50 0 -50 -23q0 -3 12.5 -30l43.5 -93.5l63 -138.5l38 108l29.5 84t8.5 29q0 5 -4.5 16t-9.5 19l-5 9q-6 9 -19 15q-10 5 -32 5q-4 0 -4 12.5t4 16.5q15 -1 32.5 -2t32 -2t32.5 -1q17 0 31.5 1t33.5 2
t33 2q2 -6 2 -17t-3 -12q-48 0 -48 -39q0 -21 110 -246l38 111l33.5 96.5t10.5 42.5z" />
    <glyph glyph-name="Ycircumflex" unicode="&#x176;" horiz-adv-x="649" 
d="M436 698q-19 0 -105 58q-24 -18 -59 -38t-44 -20q-10 0 -10 20q4 4 25.5 23.5l35.5 32.5q28 26 42 46q7 8 10 8q6 0 11 -8q21 -28 41 -48l28.5 -25.5t24.5 -20.5t9 -8q0 -20 -9 -20zM139 656q12 0 132 6q2 -4 1.5 -15.5t-3.5 -11.5q-17 0 -38.5 -8.5t-21.5 -25.5
q0 -11 11 -30l112 -212q5 -5 10 2q136 206 136 241q0 11 -20 22t-49 11q-4 0 -4 11.5t4 15.5q111 -6 118 -6q31 0 64 3t42 3q2 -6 2 -15q0 -12 -4 -12q-12 0 -42 -9t-40 -22l-110.5 -179t-72.5 -134v-152q0 -62 8 -93q2 -7 27 -14.5t34 -7.5q4 0 4 -13q0 -8 -2 -14
q-100 5 -112 5q-3 0 -118 -5q-4 4 -4 14q0 13 4 13q12 0 36.5 7t27.5 15q8 31 8 96v125q0 14 -21.5 55.5t-124.5 226.5q-16 30 -24.5 41.5t-24.5 22.5q-11 8 -33 15t-32 7q-4 0 -4 11q0 12 4 16l54 -3.5t66 -2.5z" />
    <glyph glyph-name="ycircumflex" unicode="&#x177;" horiz-adv-x="454" 
d="M344 467q-8 0 -39 22.5t-54 43.5q-22 -21 -52 -43.5t-38 -22.5q-9 0 -9 23q3 4 22 25.5t32 37.5q22 27 37 53q6 10 8 10q5 0 10 -10q24 -39 36 -55q11 -14 24.5 -29t21.5 -23t8 -9q0 -23 -7 -23zM114 429q17 0 31.5 1t33 2t32.5 2q2 -6 2 -15q0 -14 -4 -14q-8 0 -26.5 -7
t-20.5 -14v-2q0 -18 107 -261l76 219q7 21 7 31q0 15 -15.5 24.5t-41.5 9.5q-4 0 -4 13q0 12 4 16l39 -3t50 -2q22 0 48 2l39 3q2 -6 2 -15q0 -14 -4 -14q-13 0 -35.5 -9t-29.5 -29l-179 -483q-23 -62 -52 -86.5t-53 -24.5q-21 0 -31 13t-10 26q0 22 14 32q83 0 110 86
l12 36t11 34l-143 350q-11 24 -20 34q-9 9 -27.5 15t-29.5 6q-4 0 -4 13q0 12 4 16q103 -5 108 -5z" />
    <glyph glyph-name="Ydieresis" unicode="&#x178;" horiz-adv-x="649" 
d="M376 778q0 21 14.5 35.5t35.5 14.5t35.5 -14.5t14.5 -35.5t-14.5 -35.5t-35.5 -14.5t-35.5 14.5t-14.5 35.5zM195 778q0 21 14.5 35.5t35.5 14.5t35.5 -14.5t14.5 -35.5t-14.5 -35.5t-35.5 -14.5t-35.5 14.5t-14.5 35.5zM139 656q12 0 132 6q2 -4 1.5 -15.5t-3.5 -11.5
q-17 0 -38.5 -8.5t-21.5 -25.5q0 -11 11 -30l112 -212q5 -5 10 2q136 206 136 241q0 11 -20 22t-49 11q-4 0 -4 11.5t4 15.5q111 -6 118 -6q31 0 64 3t42 3q2 -6 2 -15q0 -12 -4 -12q-12 0 -42 -9t-40 -22l-110.5 -179t-72.5 -134v-152q0 -62 8 -93q2 -7 27 -14.5t34 -7.5
q4 0 4 -13q0 -8 -2 -14q-100 5 -112 5q-3 0 -118 -5q-4 4 -4 14q0 13 4 13q12 0 36.5 7t27.5 15q8 31 8 96v125q0 14 -21.5 55.5t-124.5 226.5q-16 30 -24.5 41.5t-24.5 22.5q-11 8 -33 15t-32 7q-4 0 -4 11q0 12 4 16l54 -3.5t66 -2.5z" />
    <glyph glyph-name="Zacute" unicode="&#x179;" horiz-adv-x="600" 
d="M237 741q0 7 46 52t73 65q6 3 18 3q26 0 39 -9.5t13 -20.5q0 -23 -80 -63t-99 -40q-10 0 -10 13zM214 656h109q70 0 210 10q3 -1 6.5 -13t3.5 -20l-374 -557q-7 -10 -7 -15q0 -10 14 -10h226q36 0 62 10.5t42.5 32.5t24 36.5t17.5 41.5q2 3 14 3q15 0 24 -9
q-32 -104 -44 -166h-496q-8 9 -8 26q0 12 4 17l383 565h-212q-66 0 -94.5 -27.5t-47.5 -96.5q-1 -4 -10 -4q-23 0 -32 9q27 124 33 176q10 -3 72.5 -6t79.5 -3z" />
    <glyph glyph-name="zacute" unicode="&#x17a;" horiz-adv-x="414" 
d="M304 657q16 0 26 -5.5t12.5 -10t2.5 -8.5q0 -25 -71.5 -80.5t-84.5 -55.5q-12 0 -12 13q0 3 15.5 28.5t38 58t39.5 51.5q9 9 34 9zM135 47q0 -7 12 -7h131q42 0 61.5 21t30.5 59q2 11 8 11q22 0 29 -12l-21 -119h-337q-20 12 -20 23q0 3 1 4l257 357l-149 1
q-20 0 -33 -9.5t-17.5 -19.5t-9 -25.5t-5.5 -18.5q-3 -6 -24 -6q-11 0 -11 3q0 4 7 47.5t9 73.5q59 -6 95 -6h122q56 0 122 8q3 -5 3 -24l-254 -347q-7 -10 -7 -14z" />
    <glyph glyph-name="Zdotaccent" unicode="&#x17b;" horiz-adv-x="600" 
d="M266 778q0 21 14.5 35.5t35.5 14.5t35.5 -14.5t14.5 -35.5t-14.5 -35.5t-35.5 -14.5t-35.5 14.5t-14.5 35.5zM214 656h109q70 0 210 10q3 -1 6.5 -13t3.5 -20l-374 -557q-7 -10 -7 -15q0 -10 14 -10h226q36 0 62 10.5t42.5 32.5t24 36.5t17.5 41.5q2 3 14 3q15 0 24 -9
q-32 -104 -44 -166h-496q-8 9 -8 26q0 12 4 17l383 565h-212q-66 0 -94.5 -27.5t-47.5 -96.5q-1 -4 -10 -4q-23 0 -32 9q27 124 33 176q10 -3 72.5 -6t79.5 -3z" />
    <glyph glyph-name="zdotaccent" unicode="&#x17c;" horiz-adv-x="414" 
d="M181 593q0 21 14.5 35.5t35.5 14.5t35.5 -14.5t14.5 -35.5t-14.5 -35.5t-35.5 -14.5t-35.5 14.5t-14.5 35.5zM135 47q0 -7 12 -7h131q42 0 61.5 21t30.5 59q2 11 8 11q22 0 29 -12l-21 -119h-337q-20 12 -20 23q0 3 1 4l257 357l-149 1q-20 0 -33 -9.5t-17.5 -19.5
t-9 -25.5t-5.5 -18.5q-3 -6 -24 -6q-11 0 -11 3q0 4 7 47.5t9 73.5q59 -6 95 -6h122q56 0 122 8q3 -5 3 -24l-254 -347q-7 -10 -7 -14z" />
    <glyph glyph-name="Zcaron" unicode="&#x17d;" horiz-adv-x="600" 
d="M317 800q86 58 105 58q9 0 9 -20q0 -1 -9 -8t-24.5 -20.5l-28.5 -25.5q-20 -20 -41 -48q-5 -8 -11 -8q-3 0 -10 8q-14 20 -42 46l-35.5 32.5t-25.5 23.5q0 20 10 20q9 0 44 -20t59 -38zM214 656h109q70 0 210 10q3 -1 6.5 -13t3.5 -20l-374 -557q-7 -10 -7 -15
q0 -10 14 -10h226q36 0 62 10.5t42.5 32.5t24 36.5t17.5 41.5q2 3 14 3q15 0 24 -9q-32 -104 -44 -166h-496q-8 9 -8 26q0 12 4 17l383 565h-212q-66 0 -94.5 -27.5t-47.5 -96.5q-1 -4 -10 -4q-23 0 -32 9q27 124 33 176q10 -3 72.5 -6t79.5 -3z" />
    <glyph glyph-name="zcaron" unicode="&#x17e;" horiz-adv-x="414" 
d="M218 579q23 21 54 43.5t39 22.5t8 -23q0 -1 -8 -9l-22 -23t-25 -29q-12 -16 -36 -55q-5 -9 -9 -9t-9 9q-13 22 -37 52q-13 16 -32 37.5t-22 26.5q0 23 9 23q8 0 38 -22.5t52 -43.5zM135 47q0 -7 12 -7h131q42 0 61.5 21t30.5 59q2 11 8 11q22 0 29 -12l-21 -119h-337
q-20 12 -20 23q0 3 1 4l257 357l-149 1q-20 0 -33 -9.5t-17.5 -19.5t-9 -25.5t-5.5 -18.5q-3 -6 -24 -6q-11 0 -11 3q0 4 7 47.5t9 73.5q59 -6 95 -6h122q56 0 122 8q3 -5 3 -24l-254 -347q-7 -10 -7 -14z" />
    <glyph glyph-name="longs" unicode="&#x17f;" horiz-adv-x="293" 
d="M188 475l1 -340q0 -58 8 -89q2 -7 24.5 -13.5t31.5 -6.5q3 0 4 -12t-1 -17q-100 5 -107 5q-3 0 -105 -5q-4 4 -4 15q0 14 4 14q12 0 34 6.5t24 13.5q9 35 9 89q1 141 1 230q0 7 -5 7h-53q-3 0 -3 6q0 9 16 25t34 16h6q5 0 5 6v13q0 105 62.5 181t136.5 76q72 0 95 -39
q0 -63 -36 -63q-13 0 -25 15.5t-27.5 31.5t-37.5 16q-44 0 -68 -54t-24 -127z" />
    <glyph glyph-name="uni0189" unicode="&#x189;" horiz-adv-x="746" 
d="M174 656q36 0 95.5 1t78.5 1q163 0 254 -96t91 -226q0 -145 -92 -242t-254 -97q-12 0 -72.5 2t-98.5 1l-121 -3q-3 3 -3 15q0 14 3 14q13 0 38.5 7t30.5 16q7 12 7 94v165h-72l-5 2q-1 2 -1 5q0 10 8 34q1 2 2.5 3t2.5 1h2h63v168q0 59 -7 86q-3 8 -29.5 15t-39.5 7
q-4 0 -4 12q0 13 4 17q52 -2 119 -2zM218 535v-182h142q1 0 2.5 0.5t3.5 -2t1 -7.5q-2 -14 -8 -30l-7 -6h-134v-169q0 -42 15 -76q4 -10 53.5 -15t76.5 -5q115 0 174.5 75.5t59.5 221.5q0 113 -62.5 193.5t-178.5 80.5h-5q-108 0 -120 -16q-13 -18 -13 -63z" />
    <glyph glyph-name="Ohorn" unicode="&#x1a0;" horiz-adv-x="768" 
d="M599 598q37 0 37 32q0 6 -12 18.5t-12 25.5q0 33 68 33q20 -20 20 -54q0 -40 -36 -66t-79 -26h-5q87 -106 87 -233q0 -140 -94 -239t-226 -99t-225.5 99t-93.5 239t93.5 239.5t225.5 99.5q64 0 131 -30q82 -39 121 -39zM332 625q-95 0 -150 -83t-55 -192q0 -80 26 -151
t81 -118.5t129 -47.5q64 0 112 41.5t70.5 103t22.5 131.5q0 80 -26 150.5t-81 118t-129 47.5z" />
    <glyph glyph-name="ohorn" unicode="&#x1a1;" horiz-adv-x="546" 
d="M256 32q53 0 87 50t34 120q0 81 -43 138.5t-100 57.5q-53 0 -86.5 -48.5t-33.5 -118.5q0 -82 42.5 -140.5t99.5 -58.5zM423 344q40 -61 40 -128q0 -92 -62.5 -157.5t-153.5 -65.5t-155 65.5t-64 157.5q0 93 62 157t155 64q51 0 102 -26q62 -31 102 -31q34 0 34 30
q0 5 -11 16.5t-11 23.5q0 31 63 31q18 -18 18 -50q0 -37 -40 -62t-79 -25z" />
    <glyph glyph-name="Uhorn" unicode="&#x1af;" horiz-adv-x="751" 
d="M578 656q95 0 95 23q0 7 -8 16t-8 21q0 18 25.5 25.5t51.5 7.5q12 -17 12 -44q0 -57 -118 -85q-15 -4 -19 -19q-8 -30 -8 -82v-243q0 -155 -65 -215.5t-185 -60.5q-119 0 -183 70t-64 226v227q0 62 -7 89q-3 8 -28.5 14.5t-38.5 6.5q-4 0 -4 13q0 12 4 16q115 -5 120 -5
q16 0 116 5q2 -6 2 -14q0 -15 -4 -15q-10 0 -36 -7t-28 -14q-9 -35 -9 -93v-223q0 -113 48 -180t136 -67q171 0 171 225v250q0 66 -7 88q-3 8 -34.5 15.5t-44.5 7.5q-4 0 -4 11.5t4 15.5q15 -1 55.5 -3.5t62.5 -2.5z" />
    <glyph glyph-name="uhorn" unicode="&#x1b0;" horiz-adv-x="564" 
d="M497 459q0 5 -11 16.5t-11 23.5q0 31 63 31q18 -18 18 -50q0 -25 -20 -43t-42.5 -26t-56.5 -15q-5 -1 -5 -55v-200q0 -43 7 -76q2 -7 11 -11t19 -5t19 -1l10 -1q3 -1 3 -11q0 -3 -2.5 -9.5t-5.5 -6.5q-15 -1 -33.5 -4t-34.5 -7t-30 -8t-23 -7l-8 -2q-8 0 -8 16v46l-2 5
q-1 -1 -10 -9l-13.5 -12t-14.5 -12t-18 -12.5l-18.5 -10t-21.5 -8t-21 -2.5q-42 0 -71.5 18.5t-43 49t-19 59t-5.5 59.5v126q0 39 -14 54q-10 12 -24.5 16.5t-24 4.5t-9.5 2q0 24 6 25q106 16 138 26l2 1h3q4 0 5 -8.5t0 -12.5q-6 -48 -6 -74v-135q0 -77 24 -111t72 -34
q30 0 58 19.5t28 34.5v192q0 39 -14 54q-10 12 -24.5 16.5t-24 4.5t-9.5 2q0 24 6 25q75 12 110 19q2 0 18.5 3.5l26.5 5.5t24 6t21 8.5t7 9.5z" />
    <glyph glyph-name="uni01CD" unicode="&#x1cd;" 
d="M361 800q86 58 105 58q9 0 9 -20q0 -1 -9 -8t-24.5 -20.5l-28.5 -25.5q-20 -20 -41 -48q-5 -8 -11 -8q-3 0 -10 8q-14 20 -42 46l-35.5 32.5t-25.5 23.5q0 20 10 20q9 0 44 -20t59 -38zM365 660l200 -528q18 -47 29 -72q6 -15 31 -24.5t37 -9.5q4 0 4 -19q0 -4 -2 -10
q-100 5 -110 5q-1 0 -116 -5q-4 4 -3.5 16.5t4.5 12.5q12 0 30 5t21 13q2 8 2 16q0 13 -3.5 30.5t-6.5 27.5l-4 11l-41 113q-3 4 -6 4q-39 3 -76 3q-52 0 -127 -5l-5 -3l-43 -110q-17 -50 -17 -69q0 -14 8 -20q9 -7 29 -11.5t29 -4.5q3 0 3.5 -12t-1.5 -17q-100 5 -103 5
q-20 0 -35 -1t-33.5 -2l-35.5 -2q-4 4 -4 15q0 14 4 14q12 0 31 5t26 14q21 27 47 94l174 447q2 5 5.5 16t5.5 16.5t6 14t7 12.5t7.5 9t10 7t12.5 2zM249 299q52 -2 71 -2q44 0 91 3l3 5l-81 221l-86 -223q0 -4 2 -4z" />
    <glyph glyph-name="uni01CE" unicode="&#x1ce;" horiz-adv-x="423" 
d="M228 580q23 21 54 43.5t39 22.5t8 -23q0 -1 -8 -9l-22 -23t-25 -29q-12 -16 -36 -55q-5 -9 -9 -9t-9 9q-13 22 -37 52q-13 16 -32 37.5t-22 26.5q0 23 9 23q8 0 38 -22.5t52 -43.5zM184 50q27 0 52 16.5t25 33.5v103q-8 -4 -39 -14t-48.5 -17.5t-34 -25t-16.5 -40.5
q0 -27 17 -41.5t44 -14.5zM234 436q55 0 79 -26.5t24 -85.5v-231q0 -21 11 -35t30 -14q14 0 35 14q4 0 4 -8q0 -13 -5 -21q-41 -35 -70 -35q-23 0 -44 19t-29 40q-1 0 -7.5 -6.5t-17.5 -15t-25.5 -17.5t-34 -15t-39.5 -6q-46 0 -76 24.5t-30 73.5q0 22 11 41.5t26 32
t41 25.5t44.5 19.5l48.5 16.5t42 15q9 3 9 15v75q0 32 -20 49.5t-48 17.5q-30 0 -50 -20.5t-20 -53.5q0 -35 -41 -35q-28 0 -39 19q0 43 63 85.5t128 42.5z" />
    <glyph glyph-name="uni01CF" unicode="&#x1cf;" horiz-adv-x="318" 
d="M165 800q86 58 105 58q9 0 9 -20q0 -1 -9 -8t-24.5 -20.5l-28.5 -25.5q-20 -20 -41 -48q-5 -8 -11 -8q-3 0 -10 8q-14 20 -42 46l-35.5 32.5t-25.5 23.5q0 20 10 20q9 0 44 -20t59 -38zM116 523q0 62 -7 89q-3 8 -28.5 14.5t-38.5 6.5q-4 0 -4 13q0 12 4 16
q115 -5 120 -5q16 0 116 5q2 -6 2 -15q0 -14 -4 -14q-10 0 -36 -7t-28 -14q-9 -35 -9 -93v-380q0 -58 9 -93q2 -7 28 -13.5t36 -6.5q4 0 4 -15q0 -8 -2 -14q-100 5 -116 5q-5 0 -120 -5q-4 4 -4 15q0 14 4 14q13 0 38.5 6t28.5 14q7 27 7 89v388z" />
    <glyph glyph-name="uni01D0" unicode="&#x1d0;" horiz-adv-x="282" 
d="M138 580q23 21 54 43.5t39 22.5t8 -23q0 -1 -8 -9l-22 -23t-25 -29q-12 -16 -36 -55q-5 -9 -9 -9t-9 9q-13 22 -37 52q-13 16 -32 37.5t-22 26.5q0 23 9 23q8 0 38 -22.5t52 -43.5zM178 135q0 -58 8 -89q2 -7 26 -13.5t34 -6.5q3 0 4 -12t-1 -17q-100 5 -107 5
q-6 0 -109 -5q-4 4 -4 16.5t4 12.5q12 0 35.5 6.5t25.5 13.5q7 29 7 70v189q0 39 -14 54q-10 12 -24.5 16.5t-24 4.5t-9.5 2q0 24 6 25q106 16 138 26q1 0 3 0.5l2 0.5q4 0 5 -8.5t0 -12.5q-5 -40 -5 -72v-206z" />
    <glyph glyph-name="uni01D1" unicode="&#x1d1;" horiz-adv-x="728" 
d="M367 800q86 58 105 58q9 0 9 -20q0 -1 -9 -8t-24.5 -20.5l-28.5 -25.5q-20 -20 -41 -48q-5 -8 -11 -8q-3 0 -10 8q-14 20 -42 46l-35.5 32.5t-25.5 23.5q0 20 10 20q9 0 44 -20t59 -38zM348 625q-95 0 -150 -83t-55 -192q0 -80 26 -151t81 -118.5t129 -47.5
q64 0 112 41.5t70.5 103t22.5 131.5q0 80 -26 150.5t-81 118t-129 47.5zM44 328q0 140 93.5 239.5t225.5 99.5t226 -99.5t94 -239.5t-94 -239t-226 -99t-225.5 99t-93.5 239z" />
    <glyph glyph-name="uni01D2" unicode="&#x1d2;" horiz-adv-x="510" 
d="M253 580q23 21 54 43.5t39 22.5t8 -23q0 -1 -8 -9l-22 -23t-25 -29q-12 -16 -36 -55q-5 -9 -9 -9t-9 9q-13 22 -37 52q-13 16 -32 37.5t-22 26.5q0 23 9 23q8 0 38 -22.5t52 -43.5zM243 398q-53 0 -86.5 -48.5t-33.5 -118.5q0 -82 42.5 -140.5t99.5 -58.5q53 0 87 50
t34 120q0 81 -43 138.5t-100 57.5zM254 437q90 0 154 -65t64 -156q0 -92 -62.5 -157.5t-153.5 -65.5t-155 65.5t-64 157.5q0 93 62 157t155 64z" />
    <glyph glyph-name="uni01D3" unicode="&#x1d3;" horiz-adv-x="719" 
d="M372 800q86 58 105 58q9 0 9 -20q0 -1 -9 -8t-24.5 -20.5l-28.5 -25.5q-20 -20 -41 -48q-5 -8 -11 -8q-3 0 -10 8q-14 20 -42 46l-35.5 32.5t-25.5 23.5q0 20 10 20q9 0 44 -20t59 -38zM157 657q16 0 116 5q2 -6 2 -14q0 -15 -4 -15q-10 0 -36 -7t-28 -14q-9 -35 -9 -93
v-223q0 -113 48 -180t136 -67q171 0 171 225v250q0 61 -7 88q-3 8 -34.5 15.5t-44.5 7.5q-4 0 -4 11.5t4 15.5q13 -1 52 -3.5t66 -2.5q26 0 65.5 3t46.5 3q2 -6 2 -15q0 -12 -4 -12q-10 0 -43.5 -8t-35.5 -15q-8 -31 -8 -93v-243q0 -155 -65 -215.5t-185 -60.5
q-119 0 -183 70t-64 226v227q0 62 -7 89q-3 8 -28.5 14.5t-38.5 6.5q-4 0 -4 13q0 12 4 16q115 -5 120 -5z" />
    <glyph glyph-name="uni01D4" unicode="&#x1d4;" horiz-adv-x="517" 
d="M306 580q23 21 54 43.5t39 22.5t8 -23q0 -1 -8 -9l-22 -23t-25 -29q-12 -16 -36 -55q-5 -9 -9 -9t-9 9q-13 22 -37 52q-13 16 -32 37.5t-22 26.5q0 23 9 23q8 0 38 -22.5t52 -43.5zM435 341v-200q0 -43 7 -76q2 -7 11 -11t19 -5t20 -1l9 -1q3 -1 3 -11q0 -3 -2.5 -9.5
t-5.5 -6.5q-15 -1 -33.5 -4t-34.5 -7t-30 -8t-22 -7l-9 -2q-8 0 -8 16v51l-2 5q-66 -71 -131 -71q-37 0 -63.5 18.5t-39 49t-17.5 59t-5 59.5v126q0 39 -14 54q-10 12 -24.5 16.5t-24 4.5t-9.5 2q0 24 6 25q106 16 138 26q1 0 3 0.5l2 0.5q4 0 5 -8.5t0 -12.5q-6 -48 -6 -74
v-135q0 -77 23 -113.5t75 -36.5q30 0 57 23.5t27 40.5v187q0 39 -14 54q-10 12 -24.5 16.5t-24 4.5t-9.5 2q0 24 6 25q106 16 138 26q1 0 3 0.5l2 0.5q4 0 5 -8.5t0 -12.5q-6 -48 -6 -72z" />
    <glyph glyph-name="uni01D5" unicode="&#x1d5;" horiz-adv-x="719" 
d="M236 879q0 39 14 39h250q6 0 6 -7q0 -13 -7 -34q-1 -3 -3 -4.5t-4 -2.5h-1h-248h-2t-3 2.5t-2 6.5zM157 657q16 0 116 5q2 -6 2 -14q0 -15 -4 -15q-10 0 -36 -7t-28 -14q-9 -35 -9 -93v-223q0 -113 48 -180t136 -67q171 0 171 225v250q0 61 -7 88q-3 8 -34.5 15.5
t-44.5 7.5q-4 0 -4 11.5t4 15.5q13 -1 52 -3.5t66 -2.5q26 0 65.5 3t46.5 3q2 -6 2 -15q0 -12 -4 -12q-10 0 -43.5 -8t-35.5 -15q-8 -31 -8 -93v-243q0 -155 -65 -215.5t-185 -60.5q-119 0 -183 70t-64 226v227q0 62 -7 89q-3 8 -28.5 14.5t-38.5 6.5q-4 0 -4 13q0 12 4 16
q115 -5 120 -5zM412 778q0 21 14.5 35.5t35.5 14.5t35.5 -14.5t14.5 -35.5t-14.5 -35.5t-35.5 -14.5t-35.5 14.5t-14.5 35.5zM231 778q0 21 14.5 35.5t35.5 14.5t35.5 -14.5t14.5 -35.5t-14.5 -35.5t-35.5 -14.5t-35.5 14.5t-14.5 35.5z" />
    <glyph glyph-name="uni01D6" unicode="&#x1d6;" horiz-adv-x="517" 
d="M152 665q0 37 12 37h208q5 0 5 -7q0 -10 -6 -32q-1 -3 -2.5 -4.5l-2.5 -2.5h-2h-206l-4 2q-2 3 -2 7zM435 341v-200q0 -43 7 -76q2 -7 11 -11t19 -5t20 -1l9 -1q3 -1 3 -11q0 -3 -2.5 -9.5t-5.5 -6.5q-15 -1 -33.5 -4t-34.5 -7t-30 -8t-22 -7l-9 -2q-8 0 -8 16v51l-2 5
q-66 -71 -131 -71q-37 0 -63.5 18.5t-39 49t-17.5 59t-5 59.5v126q0 39 -14 54q-10 12 -24.5 16.5t-24 4.5t-9.5 2q0 24 6 25q106 16 138 26q1 0 3 0.5l2 0.5q4 0 5 -8.5t0 -12.5q-6 -48 -6 -74v-135q0 -77 23 -113.5t75 -36.5q30 0 57 23.5t27 40.5v187q0 39 -14 54
q-10 12 -24.5 16.5t-24 4.5t-9.5 2q0 24 6 25q106 16 138 26q1 0 3 0.5l2 0.5q4 0 5 -8.5t0 -12.5q-6 -48 -6 -72zM356 595q20 0 34.5 -15t14.5 -35t-15 -34t-35 -14t-35 14.5t-15 34.5t15.5 34.5t35.5 14.5zM173 595q20 0 34.5 -15t14.5 -35t-15 -34t-35 -14t-35 14.5
t-15 34.5t15.5 34.5t35.5 14.5z" />
    <glyph glyph-name="uni01D7" unicode="&#x1d7;" horiz-adv-x="719" 
d="M362 883q0 7 46 52t73 65q6 3 18 3q26 0 39 -9.5t13 -20.5q0 -23 -80 -63t-99 -40q-10 0 -10 13zM157 657q16 0 116 5q2 -6 2 -14q0 -15 -4 -15q-10 0 -36 -7t-28 -14q-9 -35 -9 -93v-223q0 -113 48 -180t136 -67q171 0 171 225v250q0 61 -7 88q-3 8 -34.5 15.5
t-44.5 7.5q-4 0 -4 11.5t4 15.5q13 -1 52 -3.5t66 -2.5q26 0 65.5 3t46.5 3q2 -6 2 -15q0 -12 -4 -12q-10 0 -43.5 -8t-35.5 -15q-8 -31 -8 -93v-243q0 -155 -65 -215.5t-185 -60.5q-119 0 -183 70t-64 226v227q0 62 -7 89q-3 8 -28.5 14.5t-38.5 6.5q-4 0 -4 13q0 12 4 16
q115 -5 120 -5zM412 778q0 21 14.5 35.5t35.5 14.5t35.5 -14.5t14.5 -35.5t-14.5 -35.5t-35.5 -14.5t-35.5 14.5t-14.5 35.5zM231 778q0 21 14.5 35.5t35.5 14.5t35.5 -14.5t14.5 -35.5t-14.5 -35.5t-35.5 -14.5t-35.5 14.5t-14.5 35.5z" />
    <glyph glyph-name="uni01D8" unicode="&#x1d8;" horiz-adv-x="517" 
d="M380 816q16 0 26 -5.5t12.5 -10t2.5 -8.5q0 -25 -71.5 -80.5t-84.5 -55.5q-12 0 -12 13q0 3 15.5 28.5t38 58t39.5 51.5q9 9 34 9zM435 341v-200q0 -43 7 -76q2 -7 11 -11t19 -5t20 -1l9 -1q3 -1 3 -11q0 -3 -2.5 -9.5t-5.5 -6.5q-15 -1 -33.5 -4t-34.5 -7t-30 -8t-22 -7
l-9 -2q-8 0 -8 16v51l-2 5q-66 -71 -131 -71q-37 0 -63.5 18.5t-39 49t-17.5 59t-5 59.5v126q0 39 -14 54q-10 12 -24.5 16.5t-24 4.5t-9.5 2q0 24 6 25q106 16 138 26q1 0 3 0.5l2 0.5q4 0 5 -8.5t0 -12.5q-6 -48 -6 -74v-135q0 -77 23 -113.5t75 -36.5q30 0 57 23.5
t27 40.5v187q0 39 -14 54q-10 12 -24.5 16.5t-24 4.5t-9.5 2q0 24 6 25q106 16 138 26q1 0 3 0.5l2 0.5q4 0 5 -8.5t0 -12.5q-6 -48 -6 -72zM356 595q20 0 34.5 -15t14.5 -35t-15 -34t-35 -14t-35 14.5t-15 34.5t15.5 34.5t35.5 14.5zM173 595q20 0 34.5 -15t14.5 -35
t-15 -34t-35 -14t-35 14.5t-15 34.5t15.5 34.5t35.5 14.5z" />
    <glyph glyph-name="uni01D9" unicode="&#x1d9;" horiz-adv-x="719" 
d="M371 916q86 58 105 58q9 0 9 -20q0 -1 -9 -8t-24.5 -20.5l-28.5 -25.5q-20 -20 -41 -48q-5 -8 -11 -8q-3 0 -10 8q-14 20 -42 46l-35.5 32.5t-25.5 23.5q0 20 10 20q9 0 44 -20t59 -38zM157 657q16 0 116 5q2 -6 2 -14q0 -15 -4 -15q-10 0 -36 -7t-28 -14q-9 -35 -9 -93
v-223q0 -113 48 -180t136 -67q171 0 171 225v250q0 61 -7 88q-3 8 -34.5 15.5t-44.5 7.5q-4 0 -4 11.5t4 15.5q13 -1 52 -3.5t66 -2.5q26 0 65.5 3t46.5 3q2 -6 2 -15q0 -12 -4 -12q-10 0 -43.5 -8t-35.5 -15q-8 -31 -8 -93v-243q0 -155 -65 -215.5t-185 -60.5
q-119 0 -183 70t-64 226v227q0 62 -7 89q-3 8 -28.5 14.5t-38.5 6.5q-4 0 -4 13q0 12 4 16q115 -5 120 -5zM412 778q0 21 14.5 35.5t35.5 14.5t35.5 -14.5t14.5 -35.5t-14.5 -35.5t-35.5 -14.5t-35.5 14.5t-14.5 35.5zM231 778q0 21 14.5 35.5t35.5 14.5t35.5 -14.5
t14.5 -35.5t-14.5 -35.5t-35.5 -14.5t-35.5 14.5t-14.5 35.5z" />
    <glyph glyph-name="uni01DA" unicode="&#x1da;" horiz-adv-x="517" 
d="M264 738q23 21 54 43.5t39 22.5t8 -23q0 -1 -8 -9l-22 -23t-25 -29q-12 -16 -36 -55q-5 -9 -9 -9t-9 9q-13 22 -37 52q-13 16 -32 37.5t-22 26.5q0 23 9 23q8 0 38 -22.5t52 -43.5zM435 341v-200q0 -43 7 -76q2 -7 11 -11t19 -5t20 -1l9 -1q3 -1 3 -11q0 -3 -2.5 -9.5
t-5.5 -6.5q-15 -1 -33.5 -4t-34.5 -7t-30 -8t-22 -7l-9 -2q-8 0 -8 16v51l-2 5q-66 -71 -131 -71q-37 0 -63.5 18.5t-39 49t-17.5 59t-5 59.5v126q0 39 -14 54q-10 12 -24.5 16.5t-24 4.5t-9.5 2q0 24 6 25q106 16 138 26q1 0 3 0.5l2 0.5q4 0 5 -8.5t0 -12.5q-6 -48 -6 -74
v-135q0 -77 23 -113.5t75 -36.5q30 0 57 23.5t27 40.5v187q0 39 -14 54q-10 12 -24.5 16.5t-24 4.5t-9.5 2q0 24 6 25q106 16 138 26q1 0 3 0.5l2 0.5q4 0 5 -8.5t0 -12.5q-6 -48 -6 -72zM356 595q20 0 34.5 -15t14.5 -35t-15 -34t-35 -14t-35 14.5t-15 34.5t15.5 34.5
t35.5 14.5zM173 595q20 0 34.5 -15t14.5 -35t-15 -34t-35 -14t-35 14.5t-15 34.5t15.5 34.5t35.5 14.5z" />
    <glyph glyph-name="uni01DB" unicode="&#x1db;" horiz-adv-x="719" 
d="M381 902q0 -13 -10 -13q-19 0 -99 40t-80 63q0 11 13 20.5t39 9.5q12 0 18 -3q27 -20 73 -65t46 -52zM157 657q16 0 116 5q2 -6 2 -14q0 -15 -4 -15q-10 0 -36 -7t-28 -14q-9 -35 -9 -93v-223q0 -113 48 -180t136 -67q171 0 171 225v250q0 61 -7 88q-3 8 -34.5 15.5
t-44.5 7.5q-4 0 -4 11.5t4 15.5q13 -1 52 -3.5t66 -2.5q26 0 65.5 3t46.5 3q2 -6 2 -15q0 -12 -4 -12q-10 0 -43.5 -8t-35.5 -15q-8 -31 -8 -93v-243q0 -155 -65 -215.5t-185 -60.5q-119 0 -183 70t-64 226v227q0 62 -7 89q-3 8 -28.5 14.5t-38.5 6.5q-4 0 -4 13q0 12 4 16
q115 -5 120 -5zM412 778q0 21 14.5 35.5t35.5 14.5t35.5 -14.5t14.5 -35.5t-14.5 -35.5t-35.5 -14.5t-35.5 14.5t-14.5 35.5zM231 778q0 21 14.5 35.5t35.5 14.5t35.5 -14.5t14.5 -35.5t-14.5 -35.5t-35.5 -14.5t-35.5 14.5t-14.5 35.5z" />
    <glyph glyph-name="uni01DC" unicode="&#x1dc;" horiz-adv-x="517" 
d="M108 792q0 4 2.5 8.5t12.5 10t26 5.5q25 0 34 -9q17 -20 40 -53t38 -57.5t15 -27.5q0 -13 -12 -13q-13 0 -84.5 55.5t-71.5 80.5zM435 341v-200q0 -43 7 -76q2 -7 11 -11t19 -5t20 -1l9 -1q3 -1 3 -11q0 -3 -2.5 -9.5t-5.5 -6.5q-15 -1 -33.5 -4t-34.5 -7t-30 -8t-22 -7
l-9 -2q-8 0 -8 16v51l-2 5q-66 -71 -131 -71q-37 0 -63.5 18.5t-39 49t-17.5 59t-5 59.5v126q0 39 -14 54q-10 12 -24.5 16.5t-24 4.5t-9.5 2q0 24 6 25q106 16 138 26q1 0 3 0.5l2 0.5q4 0 5 -8.5t0 -12.5q-6 -48 -6 -74v-135q0 -77 23 -113.5t75 -36.5q30 0 57 23.5
t27 40.5v187q0 39 -14 54q-10 12 -24.5 16.5t-24 4.5t-9.5 2q0 24 6 25q106 16 138 26q1 0 3 0.5l2 0.5q4 0 5 -8.5t0 -12.5q-6 -48 -6 -72zM356 595q20 0 34.5 -15t14.5 -35t-15 -34t-35 -14t-35 14.5t-15 34.5t15.5 34.5t35.5 14.5zM173 595q20 0 34.5 -15t14.5 -35
t-15 -34t-35 -14t-35 14.5t-15 34.5t15.5 34.5t35.5 14.5z" />
    <glyph glyph-name="uni01E2" unicode="&#x1e2;" horiz-adv-x="982" 
d="M522 737q0 39 14 39h250q6 0 6 -7q0 -13 -7 -34q-1 -3 -3 -4.5t-4 -2.5h-1h-248h-2t-3 2.5t-2 6.5zM485 297q12 0 12 11v215q0 8 -9 8q-4 0 -9 -7l-137 -223q-1 -4 1 -4q52 -2 70 -2q20 0 72 2zM408 247q-22 0 -99 -5l-5 -3l-69 -110q-29 -50 -33 -69q-3 -13 4 -20
q14 -14 54 -14q2 0 -0.5 -12t-4.5 -17q-60 3 -102 3q-36 0 -105 -3q-2 2 0 13q3 16 7 16q44 0 61 17q27 25 69 94l277 447q7 12 7 20q0 12 -16 18.5t-29 6.5q-4 0 -4 14q0 11 4 15q49 -2 116 -2q44 0 155 4t168 4q4 -29 15.5 -76.5t13.5 -59.5q-5 -5 -18 -5t-14 7
q-15 55 -42 70.5t-74 15.5h-67q-86 0 -88 -13q-5 -24 -5 -84v-160q0 -6 43 -6h53h40.5t26.5 4t18 5t10.5 13t7.5 17.5t7 28.5q1 7 15 7q12 0 17 -5v-189q-4 -4 -16 -4q-13 0 -16 8q-7 27 -12 40.5t-7.5 16t-8.5 6.5q-13 8 -106 8q-72 0 -72 -9v-155q0 -65 9 -91
q3 -10 68 -10h48q93 0 126 17q15 8 33.5 35.5t29.5 65.5q2 6 14 6q19 0 25 -6l-15.5 -41.5l-16.5 -46t-13 -40.5t-9 -38q-57 0 -177.5 3t-163.5 3l-118 -5q-4 4 -4 15q0 14 4 14q12 0 37.5 7.5t28.5 15.5q7 27 7 86v98q0 8 -13 11q-21 3 -76 3z" />
    <glyph glyph-name="uni01E3" unicode="&#x1e3;" horiz-adv-x="675" 
d="M128 507q0 37 12 37h375q5 0 5 -7q0 -10 -6 -32q-1 -3 -2.5 -4.5t-3.5 -2.5h-1h-373l-4 2q-2 3 -2 7zM272 100v103q-138 -26 -138 -97q0 -27 17 -41.5t44 -14.5t52 16.5t25 33.5zM464 399q-49 0 -78.5 -45t-29.5 -87q0 -6 6 -6q41 2 111 8.5t76 8.5q5 1 5 9
q0 27 -27 69.5t-63 42.5zM245 436q33 0 60 -14.5t36 -39.5q54 54 127 54q46 0 80 -16.5t51 -44t24.5 -54.5t7.5 -56q0 -5 -0.5 -8.5t-1.5 -6.5t-1.5 -5t-3 -3.5t-3 -2t-4.5 -1t-4.5 -1t-5 -0.5h-5.5q-101 -8 -239 -15q-8 0 -8 -8q0 -64 43.5 -110t105.5 -46q23 0 45.5 5.5
t34.5 11.5t25 14.5t14 8.5q6 0 6 -13t-7 -20q-60 -71 -142 -71q-105 0 -162 84q-24 -29 -68.5 -57t-93.5 -28q-46 0 -76 24.5t-30 73.5q0 33 21.5 60.5t56 45t68 28t67.5 16.5q9 1 9 15v84q0 25 -20.5 41.5t-47.5 16.5q-30 0 -50 -20.5t-20 -53.5q0 -35 -41 -35
q-28 0 -39 19q0 43 63 85.5t128 42.5z" />
    <glyph glyph-name="Aringacute" unicode="&#x1fa;" 
d="M383 883q0 7 46 52t73 65q6 3 18 3q26 0 39 -9.5t13 -20.5q0 -23 -80 -63t-99 -40q-10 0 -10 13zM403 660l200 -528q18 -47 29 -72q6 -15 31 -24.5t37 -9.5q4 0 4 -19q0 -4 -2 -10q-100 5 -110 5q-1 0 -116 -5q-4 4 -3.5 16.5t4.5 12.5q12 0 30 5t21 13q2 8 2 16
q0 13 -3.5 30.5t-6.5 27.5l-4 11l-41 113q-3 4 -6 4q-39 3 -76 3q-52 0 -127 -5l-5 -3l-43 -110q-17 -50 -17 -69q0 -14 8 -20q9 -7 29 -11.5t29 -4.5q3 0 3.5 -12t-1.5 -17q-100 5 -103 5q-20 0 -35 -1t-33.5 -2l-35.5 -2q-4 4 -4 15q0 14 4 14q12 0 31 5t26 14
q21 27 47 94l174 447q2 5 5.5 16t5.5 16.5t6 14t7 12.5t7.5 9t10 7t12.5 2zM287 299q52 -2 71 -2q44 0 91 3l3 5l-81 221l-86 -223q0 -4 2 -4zM337 752q0 -23 16.5 -39.5t39.5 -16.5q22 0 38 16.5t16 39.5t-15.5 39t-38.5 16t-39.5 -16t-16.5 -39zM304 752q0 37 26.5 63
t62.5 26t61.5 -26t25.5 -63t-25.5 -63.5t-61.5 -26.5t-62.5 26.5t-26.5 63.5z" />
    <glyph glyph-name="aringacute" unicode="&#x1fb;" horiz-adv-x="423" 
d="M320 897q16 0 26 -5.5t12.5 -10t2.5 -8.5q0 -25 -71.5 -80.5t-84.5 -55.5q-12 0 -12 13q0 3 15.5 28.5t38 58t39.5 51.5q9 9 34 9zM184 50q27 0 52 16.5t25 33.5v103q-8 -4 -39 -14t-48.5 -17.5t-34 -25t-16.5 -40.5q0 -27 17 -41.5t44 -14.5zM234 436q55 0 79 -26.5
t24 -85.5v-231q0 -21 11 -35t30 -14q14 0 35 14q4 0 4 -8q0 -13 -5 -21q-41 -35 -70 -35q-23 0 -44 19t-29 40q-1 0 -7.5 -6.5t-17.5 -15t-25.5 -17.5t-34 -15t-39.5 -6q-46 0 -76 24.5t-30 73.5q0 22 11 41.5t26 32t41 25.5t44.5 19.5l48.5 16.5t42 15q9 3 9 15v75
q0 32 -20 49.5t-48 17.5q-30 0 -50 -20.5t-20 -53.5q0 -35 -41 -35q-28 0 -39 19q0 43 63 85.5t128 42.5zM150 587q0 -23 16 -39.5t39 -16.5q22 0 38 16.5t16 39.5t-15.5 39t-38.5 16t-39 -16t-16 -39zM117 587q0 37 26 63t62 26t61.5 -26t25.5 -63t-25.5 -63.5t-61.5 -26.5
t-62 26.5t-26 63.5z" />
    <glyph glyph-name="AEacute" unicode="&#x1fc;" horiz-adv-x="982" 
d="M585 741q0 7 46 52t73 65q6 3 18 3q26 0 39 -9.5t13 -20.5q0 -23 -80 -63t-99 -40q-10 0 -10 13zM485 297q12 0 12 11v215q0 8 -9 8q-4 0 -9 -7l-137 -223q-1 -4 1 -4q52 -2 70 -2q20 0 72 2zM408 247q-22 0 -99 -5l-5 -3l-69 -110q-29 -50 -33 -69q-3 -13 4 -20
q14 -14 54 -14q2 0 -0.5 -12t-4.5 -17q-60 3 -102 3q-36 0 -105 -3q-2 2 0 13q3 16 7 16q44 0 61 17q27 25 69 94l277 447q7 12 7 20q0 12 -16 18.5t-29 6.5q-4 0 -4 14q0 11 4 15q49 -2 116 -2q44 0 155 4t168 4q4 -29 15.5 -76.5t13.5 -59.5q-5 -5 -18 -5t-14 7
q-15 55 -42 70.5t-74 15.5h-67q-86 0 -88 -13q-5 -24 -5 -84v-160q0 -6 43 -6h53h40.5t26.5 4t18 5t10.5 13t7.5 17.5t7 28.5q1 7 15 7q12 0 17 -5v-189q-4 -4 -16 -4q-13 0 -16 8q-7 27 -12 40.5t-7.5 16t-8.5 6.5q-13 8 -106 8q-72 0 -72 -9v-155q0 -65 9 -91
q3 -10 68 -10h48q93 0 126 17q15 8 33.5 35.5t29.5 65.5q2 6 14 6q19 0 25 -6l-15.5 -41.5l-16.5 -46t-13 -40.5t-9 -38q-57 0 -177.5 3t-163.5 3l-118 -5q-4 4 -4 15q0 14 4 14q12 0 37.5 7.5t28.5 15.5q7 27 7 86v98q0 8 -13 11q-21 3 -76 3z" />
    <glyph glyph-name="aeacute" unicode="&#x1fd;" horiz-adv-x="675" 
d="M443 658q16 0 26 -5.5t12.5 -10t2.5 -8.5q0 -25 -71.5 -80.5t-84.5 -55.5q-12 0 -12 13q0 3 15.5 28.5t38 58t39.5 51.5q9 9 34 9zM272 100v103q-138 -26 -138 -97q0 -27 17 -41.5t44 -14.5t52 16.5t25 33.5zM464 399q-49 0 -78.5 -45t-29.5 -87q0 -6 6 -6q41 2 111 8.5
t76 8.5q5 1 5 9q0 27 -27 69.5t-63 42.5zM245 436q33 0 60 -14.5t36 -39.5q54 54 127 54q46 0 80 -16.5t51 -44t24.5 -54.5t7.5 -56q0 -5 -0.5 -8.5t-1.5 -6.5t-1.5 -5t-3 -3.5t-3 -2t-4.5 -1t-4.5 -1t-5 -0.5h-5.5q-101 -8 -239 -15q-8 0 -8 -8q0 -64 43.5 -110t105.5 -46
q23 0 45.5 5.5t34.5 11.5t25 14.5t14 8.5q6 0 6 -13t-7 -20q-60 -71 -142 -71q-105 0 -162 84q-24 -29 -68.5 -57t-93.5 -28q-46 0 -76 24.5t-30 73.5q0 33 21.5 60.5t56 45t68 28t67.5 16.5q9 1 9 15v84q0 25 -20.5 41.5t-47.5 16.5q-30 0 -50 -20.5t-20 -53.5
q0 -35 -41 -35q-28 0 -39 19q0 43 63 85.5t128 42.5z" />
    <glyph glyph-name="Oslashacute" unicode="&#x1fe;" horiz-adv-x="696" 
d="M298 741q0 7 46 52t73 65q6 3 18 3q26 0 39 -9.5t13 -20.5q0 -23 -80 -63t-99 -40q-10 0 -10 13zM332 625q-95 0 -150 -83t-55 -192q0 -80 26 -151t81 -118.5t129 -47.5q64 0 112 41.5t70.5 103t22.5 131.5q0 80 -26 150.5t-81 118t-129 47.5zM540 667q8 -2 20 -10t9 -12
l-418 -658q-9 3 -20.5 11t-8.5 12zM347 667q132 0 226 -99.5t94 -239.5t-94 -239t-226 -99t-225.5 99t-93.5 239t93.5 239.5t225.5 99.5z" />
    <glyph glyph-name="oslashacute" unicode="&#x1ff;" horiz-adv-x="533" 
d="M341 657q16 0 26 -5.5t12.5 -10t2.5 -8.5q0 -25 -71.5 -80.5t-84.5 -55.5q-12 0 -12 13q0 3 15.5 28.5t38 58t39.5 51.5q9 9 34 9zM128 -8q-30 15 -27 21l270 424q30 -13 27 -20zM256 32q53 0 87 50t34 120q0 81 -43 138.5t-100 57.5q-53 0 -86.5 -48.5t-33.5 -118.5
q0 -82 42.5 -140.5t99.5 -58.5zM245 437q90 0 154 -65t64 -156q0 -92 -62.5 -157.5t-153.5 -65.5t-155 65.5t-64 157.5q0 93 62 157t155 64z" />
    <glyph glyph-name="uni0218" unicode="&#x218;" horiz-adv-x="468" 
d="M186 -101q0 22 19 38.5t60 16.5q9 -7 15.5 -23.5t6.5 -29.5q0 -80 -82 -126q-2 -2 -8 -2q-20 0 -20 7l23 22q23 23 23 37q0 13 -18.5 29t-18.5 31zM46 490q0 77 59 126.5t137 49.5q22 0 41.5 -2.5t32 -5.5t36 -9.5t41.5 -10.5q12 -53 12 -143q0 -7 -10 -7q-24 0 -26 10
q-5 44 -42.5 85.5t-91.5 41.5q-60 0 -84.5 -30t-24.5 -74q0 -19 7 -36.5t14 -29t25.5 -26.5t27 -21t34 -22t32.5 -20l35 -21.5t41 -26t34.5 -27t34 -34.5t20 -37.5t9.5 -46.5q0 -80 -62.5 -131.5t-146.5 -51.5q-24 0 -51 3.5t-45 7t-45.5 10t-38.5 8.5q-25 123 -25 159
q0 6 16 6q18 0 25 -9q34 -144 166 -144q50 0 85 30t35 85q0 20 -6 37t-12.5 28t-23 23.5t-25.5 18.5t-33 19l-33 18l-40.5 24t-38 24.5t-38.5 31l-28 33t-22.5 41.5t-6.5 46z" />
    </font>
</defs>
</svg>
